<?xml version="1.0" standalone="no"?>
 <!DOCTYPE svg PUBLIC "-//W3C//DTD SVG 1.1//EN" 
 "http://www.w3.org/Graphics/SVG/1.1/DTD/svg11.dtd"> 
<svg
  xmlns:svg="http://www.w3.org/2000/svg"
  xmlns="http://www.w3.org/2000/svg"
  xmlns:xlink="http://www.w3.org/1999/xlink"
  version="1.1"
  width="13.601700cm" height="8.770620cm" viewBox="0 0 136017000 87706200">
<title>SVG Picture created as half-swept-Edge_Cuts.svg date 2022/03/20 17:15:20 </title>
  <desc>Picture generated by PCBNEW </desc>
<g style="fill:#000000; fill-opacity:1.000000;stroke:#000000; stroke-opacity:1.000000;
stroke-linecap:round; stroke-linejoin:round;"
 transform="translate(0 0) scale(1 1)">
</g>
<g style="fill:#000000; fill-opacity:0.0; 
stroke:#000000; stroke-width:0.000000; stroke-opacity:1; 
stroke-linecap:round; stroke-linejoin:round;">
</g>
<g style="fill:#000000; fill-opacity:0.0; 
stroke:#000000; stroke-width:50000.000000; stroke-opacity:1; 
stroke-linecap:round; stroke-linejoin:round;">
<path d="M2025000.000000 19176401.000000 A2000000.000000 2000000.000000 0.0 0 0 25000.000000 21176401.000000" />
<path d="M45000.000000 69386401.000000 A2000000.000000 2000000.000000 0.0 0 0 2045000.000000 71386401.000000" />
<path d="M20425000 62376401
L20431080 68692321
" />
<path d="M20425000 52006401
L20435000 56146401
" />
<path d="M18425000 52006401
L18435000 56146401
" />
<path d="M18425000 62376401
L18485000 70386401
" />
<path d="M20425000.000000 62376401.000000 A1000000.000000 1000000.000000 0.0 0 0 18425000.000000 62376401.000000" />
<path d="M18435000.000000 56146401.000000 A1000000.000000 1000000.000000 0.0 0 0 20435000.000000 56146401.000000" />
<path d="M17485000.000000 71386401.000000 A1000000.000000 1000000.000000 0.0 0 0 18485000.000000 70386401.000000" />
<path d="M2045000 71386401
L17485000 71386401
" />
<path d="M20425000.000000 52006401.000000 A1000000.000000 1000000.000000 0.0 0 0 18425000.000000 52006401.000000" />
<path d="M18425000.000000 44576401.000000 A1000000.000000 1000000.000000 0.0 0 0 20425000.000000 44576401.000000" />
<path d="M20425000.000000 26776401.000000 A1000000.000000 1000000.000000 0.0 0 0 18425000.000000 26776401.000000" />
<path d="M18404386.934331 20179847.007069 A1013350.000000 1013350.000000 0.0 0 0 20431079.139158 20178321.000267" />
<path d="M18404389.630009 20179847.032512 A1031169.000000 1031169.000000 0.0 0 0 17625000.088086 19126400.648126" />
<path d="M2025000 19176401
L17625000 19126401
" />
<path d="M18425000 26776401
L18425000 44576401
" />
<path d="M25000 21176401
L45000 69386401
" />
<path d="M20425000 26776401
L20425000 44576401
" />
<path d="M114151372.601748 86976187.861532 A68675914.000000 68675914.000000 0.0 0 0 92634999.965562 78026401.151374" />
<path d="M110601079.929907 8494321.188098 A142343221.000000 142343221.000000 0.0 0 0 72704856.985411 25000.175265" />
<path d="M92636743.891826 78016715.417219 A548870758.000000 548870758.000000 0.0 0 0 21701079.984756 69962321.317470" />
<path d="M136001080 10526321
L136001080 56500321
" />
<path d="M68503468.996714 30460.329792 A65861565.000000 65861565.000000 0.0 0 0 20431080.121778 20178321.117397" />
<path d="M134585042 62265983
L120049079 85624321
" />
<path d="M72704857 25000
L68503469 30460
" />
<path d="M133969080 8494321
L110601080 8494321
" />
<path d="M20431080.000000 68692321.000000 A1269999.000000 1269999.000000 0.0 0 0 21701080.000000 69962321.000000" />
<path d="M136001080.000000 10526321.000000 A2032000.000000 2032000.000000 0.0 0 0 133969080.000000 8494321.000000" />
<path d="M134585042.036863 62265983.019269 A12446014.000000 12446014.000000 0.0 0 0 136001080.000000 56500321.000000" />
<path d="M114161809.071243 86959712.897093 A4095626.000000 4095626.000000 0.0 0 0 120049078.941053 85624320.966316" />
<g >
</g>
<g >
</g>
<g >
</g>
<g >
</g>
<g >
</g>
<g >
</g>
<g >
</g>
<g >
</g>
<g >
</g>
<g >
</g>
<g >
</g>
<g >
</g>
<g >
</g>
<g >
</g>
<g >
</g>
<g >
</g>
<g >
</g>
<g >
</g>
<g >
</g>
<g >
</g>
<g >
</g>
<g >
</g>
<g >
</g>
<g >
</g>
<g >
</g>
<g >
</g>
<g >
</g>
<g >
</g>
<g >
</g>
<g >
</g>
<g >
</g>
<g >
</g>
</g> 
</svg>
