<?xml version="1.0" standalone="no"?>
 <!DOCTYPE svg PUBLIC "-//W3C//DTD SVG 1.1//EN" 
 "http://www.w3.org/Graphics/SVG/1.1/DTD/svg11.dtd"> 
<svg
  xmlns:svg="http://www.w3.org/2000/svg"
  xmlns="http://www.w3.org/2000/svg"
  xmlns:xlink="http://www.w3.org/1999/xlink"
  version="1.1"
  width="13.601700cm" height="8.770620cm" viewBox="0 0 136017000 87706200">
<title>SVG Picture created as half-swept-User_Eco2.svg date 2022/03/20 17:15:20 </title>
  <desc>Picture generated by PCBNEW </desc>
<g style="fill:#000000; fill-opacity:1.000000;stroke:#000000; stroke-opacity:1.000000;
stroke-linecap:round; stroke-linejoin:round;"
 transform="translate(0 0) scale(1 1)">
</g>
<g style="fill:#000000; fill-opacity:0.0; 
stroke:#000000; stroke-width:0.000000; stroke-opacity:1; 
stroke-linecap:round; stroke-linejoin:round;">
</g>
<g style="fill:#000000; fill-opacity:0.0; 
stroke:#000000; stroke-width:150000.000000; stroke-opacity:1; 
stroke-linecap:round; stroke-linejoin:round;">
<path d="M2910000 70406401
L2910000 56606401
" />
<path d="M16710000 56606401
L16710000 70406401
" />
<path d="M16710000 56606401
L2910000 56606401
" />
<path d="M2910000 70406401
L16710000 70406401
" />
<path d="M7210000 60406401
L7210000 57206401
" />
<path d="M12410000 57206401
L7210000 57206401
" />
<path d="M12410000 60406401
L12410000 57206401
" />
<path d="M7210000 60406401
L12410000 60406401
" />
<path d="M12425000 48746401
L7225000 48746401
" />
<path d="M7225000 48746401
L7225000 51946401
" />
<path d="M7225000 51946401
L12425000 51946401
" />
<path d="M12425000 48746401
L12425000 51946401
" />
<path d="M16725000 38746401
L2925000 38746401
" />
<path d="M2925000 52546401
L16725000 52546401
" />
<path d="M2925000 52546401
L2925000 38746401
" />
<path d="M16725000 38746401
L16725000 52546401
" />
<path d="M7275000 24776401
L12475000 24776401
" />
<path d="M12475000 24776401
L12475000 21576401
" />
<path d="M12475000 21576401
L7275000 21576401
" />
<path d="M7275000 24776401
L7275000 21576401
" />
<path d="M2975000 34776401
L16775000 34776401
" />
<path d="M16775000 20976401
L2975000 20976401
" />
<path d="M16775000 20976401
L16775000 34776401
" />
<path d="M2975000 34776401
L2975000 20976401
" />
<path d="M23593080 34804321
L23593080 21004321
" />
<path d="M23593080 34804321
L37393080 34804321
" />
<path d="M27893080 34204321
L33093080 34204321
" />
<path d="M33093080 31004321
L27893080 31004321
" />
<path d="M37393080 21004321
L37393080 34804321
" />
<path d="M37393080 21004321
L23593080 21004321
" />
<path d="M33093080 31004321
L33093080 34204321
" />
<path d="M27893080 31004321
L27893080 34204321
" />
<path d="M55393080 9004321
L55393080 22804321
" />
<path d="M55393080 9004321
L41593080 9004321
" />
<path d="M45893080 19004321
L45893080 22204321
" />
<path d="M51093080 19004321
L51093080 22204321
" />
<path d="M41593080 22804321
L41593080 9004321
" />
<path d="M51093080 19004321
L45893080 19004321
" />
<path d="M45893080 22204321
L51093080 22204321
" />
<path d="M41593080 22804321
L55393080 22804321
" />
<path d="M59593080 15804321
L59593080 2004321
" />
<path d="M73393080 2004321
L73393080 15804321
" />
<path d="M69093080 12004321
L63893080 12004321
" />
<path d="M69093080 12004321
L69093080 15204321
" />
<path d="M73393080 2004321
L59593080 2004321
" />
<path d="M59593080 15804321
L73393080 15804321
" />
<path d="M63893080 12004321
L63893080 15204321
" />
<path d="M63893080 15204321
L69093080 15204321
" />
<path d="M77593080 21304321
L77593080 7504321
" />
<path d="M87093080 17504321
L81893080 17504321
" />
<path d="M91393080 7504321
L77593080 7504321
" />
<path d="M81893080 20704321
L87093080 20704321
" />
<path d="M77593080 21304321
L91393080 21304321
" />
<path d="M81893080 17504321
L81893080 20704321
" />
<path d="M91393080 7504321
L91393080 21304321
" />
<path d="M87093080 17504321
L87093080 20704321
" />
<path d="M95593080 23804321
L95593080 10004321
" />
<path d="M99893080 23204321
L105093080 23204321
" />
<path d="M109393080 10004321
L109393080 23804321
" />
<path d="M109393080 10004321
L95593080 10004321
" />
<path d="M95593080 23804321
L109393080 23804321
" />
<path d="M105093080 20004321
L99893080 20004321
" />
<path d="M105093080 20004321
L105093080 23204321
" />
<path d="M99893080 20004321
L99893080 23204321
" />
<path d="M27893080 51204321
L33093080 51204321
" />
<path d="M33093080 48004321
L27893080 48004321
" />
<path d="M37393080 38004321
L37393080 51804321
" />
<path d="M33093080 48004321
L33093080 51204321
" />
<path d="M23593080 51804321
L37393080 51804321
" />
<path d="M27893080 48004321
L27893080 51204321
" />
<path d="M37393080 38004321
L23593080 38004321
" />
<path d="M23593080 51804321
L23593080 38004321
" />
<path d="M41593080 39778321
L41593080 25978321
" />
<path d="M55393080 25978321
L41593080 25978321
" />
<path d="M51093080 35978321
L45893080 35978321
" />
<path d="M51093080 35978321
L51093080 39178321
" />
<path d="M45893080 35978321
L45893080 39178321
" />
<path d="M41593080 39778321
L55393080 39778321
" />
<path d="M55393080 25978321
L55393080 39778321
" />
<path d="M45893080 39178321
L51093080 39178321
" />
<path d="M59593080 32920321
L59593080 19120321
" />
<path d="M69093080 29120321
L69093080 32320321
" />
<path d="M63893080 32320321
L69093080 32320321
" />
<path d="M59593080 32920321
L73393080 32920321
" />
<path d="M69093080 29120321
L63893080 29120321
" />
<path d="M73393080 19120321
L59593080 19120321
" />
<path d="M63893080 29120321
L63893080 32320321
" />
<path d="M73393080 19120321
L73393080 32920321
" />
<path d="M77593080 38254321
L91393080 38254321
" />
<path d="M81893080 37654321
L87093080 37654321
" />
<path d="M87093080 34454321
L87093080 37654321
" />
<path d="M91393080 24454321
L77593080 24454321
" />
<path d="M77593080 38254321
L77593080 24454321
" />
<path d="M81893080 34454321
L81893080 37654321
" />
<path d="M91393080 24454321
L91393080 38254321
" />
<path d="M87093080 34454321
L81893080 34454321
" />
<path d="M109373080 26994321
L95573080 26994321
" />
<path d="M95573080 40794321
L109373080 40794321
" />
<path d="M105073080 36994321
L105073080 40194321
" />
<path d="M99873080 36994321
L99873080 40194321
" />
<path d="M109373080 26994321
L109373080 40794321
" />
<path d="M95573080 40794321
L95573080 26994321
" />
<path d="M99873080 40194321
L105073080 40194321
" />
<path d="M105073080 36994321
L99873080 36994321
" />
<path d="M37393080 55004321
L23593080 55004321
" />
<path d="M23593080 68804321
L23593080 55004321
" />
<path d="M23593080 68804321
L37393080 68804321
" />
<path d="M27893080 68204321
L33093080 68204321
" />
<path d="M33093080 65004321
L27893080 65004321
" />
<path d="M33093080 65004321
L33093080 68204321
" />
<path d="M27893080 65004321
L27893080 68204321
" />
<path d="M37393080 55004321
L37393080 68804321
" />
<path d="M45893080 56196321
L51093080 56196321
" />
<path d="M55393080 42996321
L41593080 42996321
" />
<path d="M55393080 42996321
L55393080 56796321
" />
<path d="M41593080 56796321
L55393080 56796321
" />
<path d="M41593080 56796321
L41593080 42996321
" />
<path d="M51093080 52996321
L45893080 52996321
" />
<path d="M51093080 52996321
L51093080 56196321
" />
<path d="M45893080 52996321
L45893080 56196321
" />
<path d="M69093080 46138321
L63893080 46138321
" />
<path d="M69093080 46138321
L69093080 49338321
" />
<path d="M59593080 49938321
L73393080 49938321
" />
<path d="M63893080 46138321
L63893080 49338321
" />
<path d="M73393080 36138321
L59593080 36138321
" />
<path d="M73393080 36138321
L73393080 49938321
" />
<path d="M63893080 49338321
L69093080 49338321
" />
<path d="M59593080 49938321
L59593080 36138321
" />
<path d="M91393080 41472321
L77593080 41472321
" />
<path d="M81893080 54672321
L87093080 54672321
" />
<path d="M77593080 55272321
L91393080 55272321
" />
<path d="M91393080 41472321
L91393080 55272321
" />
<path d="M87093080 51472321
L87093080 54672321
" />
<path d="M81893080 51472321
L81893080 54672321
" />
<path d="M77593080 55272321
L77593080 41472321
" />
<path d="M87093080 51472321
L81893080 51472321
" />
<path d="M105073080 54012321
L99873080 54012321
" />
<path d="M109373080 44012321
L109373080 57812321
" />
<path d="M95573080 57812321
L95573080 44012321
" />
<path d="M109373080 44012321
L95573080 44012321
" />
<path d="M95573080 57812321
L109373080 57812321
" />
<path d="M105073080 54012321
L105073080 57212321
" />
<path d="M99873080 54012321
L99873080 57212321
" />
<path d="M99873080 57212321
L105073080 57212321
" />
<path d="M122194655 74078746
L115294655 86029896
" />
<path d="M116570746 75219642
L118170746 72448361
" />
<path d="M112067414 72619642
L113667414 69848361
" />
<path d="M103343505 79129896
L115294655 86029896
" />
<path d="M122194655 74078746
L110243505 67178746
" />
<path d="M112067414 72619642
L116570746 75219642
" />
<path d="M103343505 79129896
L110243505 67178746
" />
<path d="M118170746 72448361
L113667414 69848361
" />
<path d="M85758340 73733358
L99088117 77305061
" />
<path d="M102659820 63975284
L89330043 60403581
" />
<path d="M95918148 72521621
L95089927 75612583
" />
<path d="M85758340 73733358
L89330043 60403581
" />
<path d="M90067113 74266724
L95089927 75612583
" />
<path d="M90895334 71175762
L90067113 74266724
" />
<path d="M102659820 63975284
L99088117 77305061
" />
<path d="M95918148 72521621
L90895334 71175762
" />
<g >
</g>
<g >
</g>
<g >
</g>
<g >
</g>
<g >
</g>
<g >
</g>
<g >
</g>
<g >
</g>
<g >
</g>
<g >
</g>
<g >
</g>
<g >
</g>
<g >
</g>
<g >
</g>
<g >
</g>
<g >
</g>
<g >
</g>
<g >
</g>
<g >
</g>
<g >
</g>
<g >
</g>
<g >
</g>
<g >
</g>
<g >
</g>
<g >
</g>
<g >
</g>
<g >
</g>
<g >
</g>
<g >
</g>
<g >
</g>
<g >
</g>
<g >
</g>
</g>
<g style="fill:#000000; fill-opacity:0.0; 
stroke:#000000; stroke-width:150000.000000; stroke-opacity:1; 
stroke-linecap:round; stroke-linejoin:round;">
</g>
<g style="fill:#000000; fill-opacity:0.0; 
stroke:#000000; stroke-width:50000.000000; stroke-opacity:1; 
stroke-linecap:round; stroke-linejoin:round;">
<path d="M2025000.000000 19176401.000000 A2000000.000000 2000000.000000 0.0 0 0 25000.000000 21176401.000000" />
<path d="M45000.000000 69386401.000000 A2000000.000000 2000000.000000 0.0 0 0 2045000.000000 71386401.000000" />
<path d="M20425000 62376401
L20431080 68692321
" />
<path d="M20425000 52006401
L20435000 56146401
" />
<path d="M18425000 52006401
L18435000 56146401
" />
<path d="M18425000 62376401
L18485000 70386401
" />
<path d="M20425000.000000 62376401.000000 A1000000.000000 1000000.000000 0.0 0 0 18425000.000000 62376401.000000" />
<path d="M18435000.000000 56146401.000000 A1000000.000000 1000000.000000 0.0 0 0 20435000.000000 56146401.000000" />
<path d="M17485000.000000 71386401.000000 A1000000.000000 1000000.000000 0.0 0 0 18485000.000000 70386401.000000" />
<path d="M2045000 71386401
L17485000 71386401
" />
<path d="M20425000.000000 52006401.000000 A1000000.000000 1000000.000000 0.0 0 0 18425000.000000 52006401.000000" />
<path d="M18425000.000000 44576401.000000 A1000000.000000 1000000.000000 0.0 0 0 20425000.000000 44576401.000000" />
<path d="M20425000.000000 26776401.000000 A1000000.000000 1000000.000000 0.0 0 0 18425000.000000 26776401.000000" />
<path d="M18404386.934331 20179847.007069 A1013350.000000 1013350.000000 0.0 0 0 20431079.139158 20178321.000267" />
<path d="M18404389.630009 20179847.032512 A1031169.000000 1031169.000000 0.0 0 0 17625000.088086 19126400.648126" />
<path d="M2025000 19176401
L17625000 19126401
" />
<path d="M18425000 26776401
L18425000 44576401
" />
<path d="M25000 21176401
L45000 69386401
" />
<path d="M20425000 26776401
L20425000 44576401
" />
<path d="M114151372.601748 86976187.861532 A68675914.000000 68675914.000000 0.0 0 0 92634999.965562 78026401.151374" />
<path d="M110601079.929907 8494321.188098 A142343221.000000 142343221.000000 0.0 0 0 72704856.985411 25000.175265" />
<path d="M92636743.891826 78016715.417219 A548870758.000000 548870758.000000 0.0 0 0 21701079.984756 69962321.317470" />
<path d="M136001080 10526321
L136001080 56500321
" />
<path d="M68503468.996714 30460.329792 A65861565.000000 65861565.000000 0.0 0 0 20431080.121778 20178321.117397" />
<path d="M134585042 62265983
L120049079 85624321
" />
<path d="M72704857 25000
L68503469 30460
" />
<path d="M133969080 8494321
L110601080 8494321
" />
<path d="M20431080.000000 68692321.000000 A1269999.000000 1269999.000000 0.0 0 0 21701080.000000 69962321.000000" />
<path d="M136001080.000000 10526321.000000 A2032000.000000 2032000.000000 0.0 0 0 133969080.000000 8494321.000000" />
<path d="M134585042.036863 62265983.019269 A12446014.000000 12446014.000000 0.0 0 0 136001080.000000 56500321.000000" />
<path d="M114161809.071243 86959712.897093 A4095626.000000 4095626.000000 0.0 0 0 120049078.941053 85624320.966316" />
<g >
</g>
<g >
</g>
<g >
</g>
<g >
</g>
<g >
</g>
<g >
</g>
<g >
</g>
<g >
</g>
<g >
</g>
<g >
</g>
<g >
</g>
<g >
</g>
<g >
</g>
<g >
</g>
<g >
</g>
<g >
</g>
<g >
</g>
<g >
</g>
<g >
</g>
<g >
</g>
<g >
</g>
<g >
</g>
<g >
</g>
<g >
</g>
<g >
</g>
<g >
</g>
<g >
</g>
<g >
</g>
<g >
</g>
<g >
</g>
<g >
</g>
<g >
</g>
</g> 
</svg>
