G04 #@! TF.GenerationSoftware,KiCad,Pcbnew,(6.0.2-0)*
G04 #@! TF.CreationDate,2022-04-08T10:03:05+08:00*
G04 #@! TF.ProjectId,half-swept,68616c66-2d73-4776-9570-742e6b696361,rev?*
G04 #@! TF.SameCoordinates,Original*
G04 #@! TF.FileFunction,Profile,NP*
%FSLAX46Y46*%
G04 Gerber Fmt 4.6, Leading zero omitted, Abs format (unit mm)*
G04 Created by KiCad (PCBNEW (6.0.2-0)) date 2022-04-08 10:03:05*
%MOMM*%
%LPD*%
G01*
G04 APERTURE LIST*
G04 #@! TA.AperFunction,Profile*
%ADD10C,0.050000*%
G04 #@! TD*
G04 APERTURE END LIST*
D10*
X36330000Y-82380000D02*
G75*
G03*
X35330000Y-82380000I-500000J0D01*
G01*
X35330000Y-82380000D02*
X35330000Y-87580000D01*
X35330000Y-87580000D02*
G75*
G03*
X36330000Y-87580000I500000J0D01*
G01*
X36330000Y-82380000D02*
X36330000Y-87580000D01*
X36380000Y-46430000D02*
G75*
G03*
X35380000Y-46430000I-500000J0D01*
G01*
X35380000Y-46430000D02*
X35380000Y-53280000D01*
X35380000Y-53280000D02*
G75*
G03*
X36380000Y-53280000I500000J0D01*
G01*
X36380000Y-46430000D02*
X36380000Y-53280000D01*
X36330000Y-56330000D02*
G75*
G03*
X35330000Y-56330000I-500000J0D01*
G01*
X35330000Y-56330000D02*
X35330000Y-63580000D01*
X35330000Y-63580000D02*
G75*
G03*
X36330000Y-63580000I500000J0D01*
G01*
X36330000Y-56330000D02*
X36330000Y-63580000D01*
X36330000Y-71230000D02*
X36330000Y-76430000D01*
X35330000Y-71230000D02*
X35330000Y-76430000D01*
X35330000Y-76430000D02*
G75*
G03*
X36330000Y-76430000I500000J0D01*
G01*
X36330000Y-71230000D02*
G75*
G03*
X35330000Y-71230000I-500000J0D01*
G01*
X130536809Y-106583312D02*
G75*
G03*
X109010000Y-97650000I-36968676J-58680794D01*
G01*
X126976080Y-26924000D02*
G75*
G03*
X89079857Y-19648599I-52935079J-173394150D01*
G01*
X109010000Y-97650000D02*
G75*
G03*
X38076080Y-89585920I-97072381J-537866602D01*
G01*
X152376080Y-28956000D02*
X152376080Y-76123920D01*
X84878469Y-19654059D02*
G75*
G03*
X36806080Y-39801920I-656128J-65858297D01*
G01*
X151580000Y-81810000D02*
X136424079Y-105247920D01*
X89079857Y-19648599D02*
X84878469Y-19654059D01*
X34779389Y-39803446D02*
G75*
G03*
X36806079Y-39801920I1013343J3467D01*
G01*
X33860000Y-91010000D02*
G75*
G03*
X34860000Y-90010000I-710784J1710784D01*
G01*
X16400000Y-40800000D02*
X16420000Y-89010000D01*
X150344080Y-26924000D02*
X126976080Y-26924000D01*
X34779389Y-39803446D02*
G75*
G03*
X34000000Y-38750000I-1029797J53145D01*
G01*
X18420000Y-91010000D02*
X33860000Y-91010000D01*
X18400000Y-38800000D02*
X34000000Y-38750000D01*
X152376080Y-28956000D02*
G75*
G03*
X150344080Y-26924000I-2032000J0D01*
G01*
X16420000Y-89010000D02*
G75*
G03*
X18420000Y-91010000I1999999J-1D01*
G01*
X151580000Y-81810000D02*
G75*
G03*
X152376080Y-76123920I-19909289J5686169D01*
G01*
X38076080Y-89585920D02*
G75*
G03*
X34860000Y-90010000I-1378659J-1951588D01*
G01*
X130536809Y-106583312D02*
G75*
G03*
X136424079Y-105247920I2331271J3367392D01*
G01*
X18400000Y-38800000D02*
G75*
G03*
X16400000Y-40800000I-1J-1999999D01*
G01*
M02*
