M48
; DRILL file {KiCad (6.0.2-0)} date 2022 April 08, Friday 10:03:09
; FORMAT={-:-/ absolute / metric / decimal}
; #@! TF.CreationDate,2022-04-08T10:03:09+08:00
; #@! TF.GenerationSoftware,Kicad,Pcbnew,(6.0.2-0)
; #@! TF.FileFunction,MixedPlating,1,2
FMAT,2
METRIC
; #@! TA.AperFunction,Plated,PTH,ViaDrill
T1C0.400
; #@! TA.AperFunction,Plated,PTH,ComponentDrill
T2C0.400
; #@! TA.AperFunction,Plated,PTH,ComponentDrill
T3C0.900
; #@! TA.AperFunction,Plated,PTH,ComponentDrill
T4C1.000
; #@! TA.AperFunction,Plated,PTH,ComponentDrill
T5C1.020
; #@! TA.AperFunction,Plated,PTH,ComponentDrill
T6C1.270
; #@! TA.AperFunction,Plated,PTH,ComponentDrill
T7C1.500
; #@! TA.AperFunction,Plated,PTH,ComponentDrill
T8C2.200
; #@! TA.AperFunction,Plated,PTH,ComponentDrill
T9C3.200
; #@! TA.AperFunction,NonPlated,NPTH,ComponentDrill
T10C0.800
; #@! TA.AperFunction,NonPlated,NPTH,ComponentDrill
T11C1.702
; #@! TA.AperFunction,NonPlated,NPTH,ComponentDrill
T12C3.000
; #@! TA.AperFunction,NonPlated,NPTH,ComponentDrill
T13C3.429
%
G90
G05
T1
X25.03Y-68.18
X38.48Y-74.83
X39.17Y-82.47
X43.93Y-75.48
X47.58Y-84.63
X49.13Y-77.63
X56.49Y-30.51
X56.57Y-32.32
X56.64Y-34.21
X58.4Y-82.0
X59.0Y-81.0
X60.0Y-80.2
X63.93Y-83.78
X67.68Y-25.22
X67.81Y-78.1
X69.49Y-25.14
X71.76Y-25.14
X72.26Y-77.6
X74.42Y-52.86
X83.39Y-82.03
X87.83Y-72.88
X89.13Y-70.88
X92.6Y-45.09
X92.93Y-79.38
X94.44Y-74.89
X100.13Y-85.68
X106.13Y-23.88
X116.78Y-25.78
X123.88Y-81.08
X124.53Y-84.78
X126.93Y-81.18
X127.73Y-59.98
X127.78Y-64.23
X128.155Y-72.005
X128.638Y-65.149
X128.638Y-66.18
X128.778Y-44.704
X128.905Y-54.61
X129.536Y-80.006
X129.801Y-77.48
X132.842Y-83.82
X134.112Y-80.01
X136.144Y-75.692
X136.525Y-90.424
X138.43Y-74.892
X140.208Y-75.909
X140.53Y-84.18
X142.634Y-78.084
X144.43Y-90.23
X146.43Y-79.08
X149.03Y-78.48
X149.03Y-81.38
T2
X139.574Y-28.21
X139.574Y-30.75
X139.574Y-35.83
X139.574Y-38.37
X139.574Y-40.91
X139.574Y-43.45
X139.574Y-48.53
X139.574Y-51.07
X139.574Y-53.61
X139.574Y-56.15
X139.574Y-61.23
X139.574Y-63.77
X139.574Y-66.31
X139.574Y-68.85
X139.574Y-71.39
X139.574Y-73.93
X141.098Y-28.21
X141.098Y-30.75
X141.098Y-35.83
X141.098Y-38.37
X141.098Y-40.91
X141.098Y-43.45
X141.098Y-48.53
X141.098Y-51.07
X141.098Y-53.61
X141.098Y-56.15
X141.098Y-61.23
X141.098Y-63.77
X141.098Y-66.31
X141.098Y-68.85
X141.098Y-71.39
X141.098Y-73.93
T4
X18.42Y-53.78
X18.42Y-58.78
X32.92Y-53.78
X32.92Y-56.28
X32.92Y-58.78
X79.836Y-91.473
X81.603Y-77.081
X84.084Y-77.386
X84.799Y-92.083
X86.566Y-77.691
X136.906Y-79.756
X139.446Y-79.756
X141.986Y-79.756
X144.526Y-79.756
T5
X131.7Y-28.21
X131.7Y-30.75
X131.7Y-33.29
X131.7Y-35.83
X131.7Y-38.37
X131.7Y-40.91
X131.7Y-43.45
X131.7Y-45.99
X131.7Y-48.53
X131.7Y-51.07
X131.7Y-53.61
X131.7Y-56.15
X131.7Y-58.69
X131.7Y-61.23
X131.7Y-63.77
X131.7Y-66.31
X131.7Y-68.85
X131.7Y-71.39
X131.7Y-73.93
X131.7Y-76.47
X149.48Y-28.21
X149.48Y-30.75
X149.48Y-33.29
X149.48Y-35.83
X149.48Y-38.37
X149.48Y-40.91
X149.48Y-43.45
X149.48Y-45.99
X149.48Y-48.53
X149.48Y-51.07
X149.48Y-53.61
X149.48Y-56.15
X149.48Y-58.69
X149.48Y-61.23
X149.48Y-63.77
X149.48Y-66.31
X149.48Y-68.85
X149.48Y-71.39
X149.48Y-73.93
X149.48Y-76.47
T6
X21.185Y-86.93
X21.2Y-61.47
X21.25Y-51.3
X26.185Y-89.03
X26.2Y-59.37
X26.25Y-53.4
X31.185Y-86.93
X31.2Y-61.47
X31.25Y-51.3
X41.868Y-43.728
X41.868Y-60.728
X41.868Y-77.728
X46.868Y-41.628
X46.868Y-58.628
X46.868Y-75.628
X51.868Y-43.728
X51.868Y-60.728
X51.868Y-77.728
X59.868Y-31.728
X59.868Y-48.702
X59.868Y-65.72
X64.868Y-29.628
X64.868Y-46.602
X64.868Y-63.62
X69.868Y-31.728
X69.868Y-48.702
X69.868Y-65.72
X77.868Y-24.728
X77.868Y-41.844
X77.868Y-58.862
X82.868Y-22.628
X82.868Y-39.744
X82.868Y-56.762
X87.868Y-24.728
X87.868Y-41.844
X87.868Y-58.862
X95.868Y-30.228
X95.868Y-47.178
X95.868Y-64.196
X100.868Y-28.128
X100.868Y-45.078
X100.868Y-62.096
X105.868Y-30.228
X105.868Y-47.178
X105.868Y-64.196
X106.738Y-83.513
X112.111Y-82.779
X113.848Y-49.718
X113.848Y-66.736
X113.868Y-32.728
X116.397Y-86.101
X118.848Y-47.618
X118.848Y-64.636
X118.868Y-30.628
X122.914Y-97.019
X123.848Y-49.718
X123.848Y-66.736
X123.868Y-32.728
X126.194Y-101.337
X131.574Y-102.019
T8
X72.874Y-43.866
X91.924Y-24.816
X91.924Y-62.916
X110.974Y-43.866
T9
X45.98Y-36.38
X61.94Y-87.78
X111.37Y-26.77
X140.93Y-92.78
T10
X135.68Y-85.03
X144.88Y-85.03
T11
X20.685Y-83.13
X20.7Y-65.27
X20.75Y-47.5
X31.685Y-83.13
X31.7Y-65.27
X31.75Y-47.5
X41.368Y-47.528
X41.368Y-64.528
X41.368Y-81.528
X52.368Y-47.528
X52.368Y-64.528
X52.368Y-81.528
X59.368Y-35.528
X59.368Y-52.502
X59.368Y-69.52
X70.368Y-35.528
X70.368Y-52.502
X70.368Y-69.52
X77.368Y-28.528
X77.368Y-45.644
X77.368Y-62.662
X88.368Y-28.528
X88.368Y-45.644
X88.368Y-62.662
X95.368Y-34.028
X95.368Y-50.978
X95.368Y-67.996
X105.271Y-87.054
X106.368Y-34.028
X106.368Y-50.978
X106.368Y-67.996
X113.348Y-53.518
X113.348Y-70.536
X113.368Y-36.528
X115.897Y-89.901
X124.348Y-53.518
X124.348Y-70.536
X124.368Y-36.528
X124.381Y-93.478
X133.907Y-98.978
T12
X21.185Y-79.38
X21.2Y-69.02
X21.25Y-43.75
X26.185Y-77.18
X26.2Y-71.22
X26.25Y-41.55
X31.185Y-79.38
X31.2Y-69.02
X31.25Y-43.75
X41.868Y-51.278
X41.868Y-68.278
X41.868Y-85.278
X46.868Y-53.478
X46.868Y-70.478
X46.868Y-87.478
X51.868Y-51.278
X51.868Y-68.278
X51.868Y-85.278
X59.868Y-39.278
X59.868Y-56.252
X59.868Y-73.27
X64.868Y-41.478
X64.868Y-58.452
X64.868Y-75.47
X69.868Y-39.278
X69.868Y-56.252
X69.868Y-73.27
X77.868Y-32.278
X77.868Y-49.394
X77.868Y-66.412
X82.868Y-34.478
X82.868Y-51.594
X82.868Y-68.612
X87.868Y-32.278
X87.868Y-49.394
X87.868Y-66.412
X95.868Y-37.778
X95.868Y-54.728
X95.868Y-71.746
X100.868Y-39.978
X100.868Y-56.928
X100.868Y-73.946
X104.784Y-90.806
X105.868Y-37.778
X105.868Y-54.728
X105.868Y-71.746
X109.044Y-94.225
X113.848Y-57.268
X113.848Y-74.286
X113.868Y-40.278
X114.443Y-93.394
X118.848Y-59.468
X118.848Y-76.486
X118.868Y-42.478
X123.848Y-57.268
X123.848Y-74.286
X123.868Y-40.278
X126.689Y-90.48
X132.119Y-91.075
X135.349Y-95.48
T13
X26.185Y-83.13
X26.2Y-65.27
X26.25Y-47.5
X46.868Y-47.528
X46.868Y-64.528
X46.868Y-81.528
X64.868Y-35.528
X64.868Y-52.502
X64.868Y-69.52
X82.868Y-28.528
X82.868Y-45.644
X82.868Y-62.662
X100.868Y-34.028
X100.868Y-50.978
X100.868Y-67.996
X110.584Y-88.478
X118.848Y-53.518
X118.848Y-70.536
X118.868Y-36.528
X129.144Y-96.228
T3
G00X135.48Y-82.23
M15
G01X135.88Y-82.23
M16
G05
G00X135.88Y-87.83
M15
G01X135.48Y-87.83
M16
G05
G00X138.98Y-82.23
M15
G01X139.38Y-82.23
M16
G05
G00X139.38Y-87.83
M15
G01X138.98Y-87.83
M16
G05
G00X142.18Y-82.23
M15
G01X142.58Y-82.23
M16
G05
G00X142.58Y-87.83
M15
G01X142.18Y-87.83
M16
G05
G00X145.78Y-82.23
M15
G01X145.38Y-82.23
M16
G05
G00X145.78Y-87.83
M15
G01X145.38Y-87.83
M16
G05
T7
G00X26.07Y-50.68
M15
G01X24.77Y-50.68
M16
G05
G00X26.07Y-61.88
M15
G01X24.77Y-61.88
M16
G05
G00X77.691Y-83.503
M15
G01X77.533Y-84.793
M16
G05
G00X88.808Y-84.867
M15
G01X88.649Y-86.158
M16
G05
T0
M30
