G04 #@! TF.GenerationSoftware,KiCad,Pcbnew,(6.0.2-0)*
G04 #@! TF.CreationDate,2022-04-08T10:03:05+08:00*
G04 #@! TF.ProjectId,half-swept,68616c66-2d73-4776-9570-742e6b696361,rev?*
G04 #@! TF.SameCoordinates,Original*
G04 #@! TF.FileFunction,Legend,Bot*
G04 #@! TF.FilePolarity,Positive*
%FSLAX46Y46*%
G04 Gerber Fmt 4.6, Leading zero omitted, Abs format (unit mm)*
G04 Created by KiCad (PCBNEW (6.0.2-0)) date 2022-04-08 10:03:05*
%MOMM*%
%LPD*%
G01*
G04 APERTURE LIST*
G04 Aperture macros list*
%AMRotRect*
0 Rectangle, with rotation*
0 The origin of the aperture is its center*
0 $1 length*
0 $2 width*
0 $3 Rotation angle, in degrees counterclockwise*
0 Add horizontal line*
21,1,$1,$2,0,0,$3*%
%AMFreePoly0*
4,1,6,0.600000,0.200000,0.000000,-0.400000,-0.600000,0.200000,-0.600000,0.400000,0.600000,0.400000,0.600000,0.200000,0.600000,0.200000,$1*%
%AMFreePoly1*
4,1,6,0.600000,-0.250000,-0.600000,-0.250000,-0.600000,1.000000,0.000000,0.400000,0.600000,1.000000,0.600000,-0.250000,0.600000,-0.250000,$1*%
G04 Aperture macros list end*
%ADD10C,0.150000*%
%ADD11C,0.100000*%
%ADD12C,0.200000*%
%ADD13C,0.010000*%
%ADD14C,0.250000*%
%ADD15C,3.000000*%
%ADD16C,1.701800*%
%ADD17C,3.429000*%
%ADD18C,2.032000*%
%ADD19R,2.600000X2.600000*%
%ADD20RotRect,2.600000X2.600000X330.000000*%
%ADD21RotRect,2.600000X2.600000X165.000000*%
%ADD22C,4.400000*%
%ADD23R,1.700000X1.700000*%
%ADD24O,1.700000X1.700000*%
%ADD25R,2.000000X2.000000*%
%ADD26C,2.000000*%
%ADD27R,3.200000X2.000000*%
%ADD28FreePoly0,270.000000*%
%ADD29FreePoly0,90.000000*%
%ADD30FreePoly1,270.000000*%
%ADD31FreePoly1,90.000000*%
%ADD32C,0.800000*%
%ADD33O,2.000000X1.600000*%
%ADD34C,5.600000*%
%ADD35RotRect,2.000000X2.000000X263.000000*%
%ADD36RotRect,3.200000X2.000000X263.000000*%
%ADD37R,0.635000X1.143000*%
G04 APERTURE END LIST*
D10*
X48201413Y-56822681D02*
X48058556Y-56870300D01*
X47820460Y-56870300D01*
X47725222Y-56822681D01*
X47677603Y-56775062D01*
X47629984Y-56679824D01*
X47629984Y-56584586D01*
X47677603Y-56489348D01*
X47725222Y-56441729D01*
X47820460Y-56394110D01*
X48010937Y-56346491D01*
X48106175Y-56298872D01*
X48153794Y-56251253D01*
X48201413Y-56156015D01*
X48201413Y-56060777D01*
X48153794Y-55965539D01*
X48106175Y-55917920D01*
X48010937Y-55870300D01*
X47772841Y-55870300D01*
X47629984Y-55917920D01*
X47296651Y-55870300D02*
X47058556Y-56870300D01*
X46868080Y-56156015D01*
X46677603Y-56870300D01*
X46439508Y-55870300D01*
X46106175Y-55965539D02*
X46058556Y-55917920D01*
X45963318Y-55870300D01*
X45725222Y-55870300D01*
X45629984Y-55917920D01*
X45582365Y-55965539D01*
X45534746Y-56060777D01*
X45534746Y-56156015D01*
X45582365Y-56298872D01*
X46153794Y-56870300D01*
X45534746Y-56870300D01*
X66201413Y-44822681D02*
X66058556Y-44870300D01*
X65820460Y-44870300D01*
X65725222Y-44822681D01*
X65677603Y-44775062D01*
X65629984Y-44679824D01*
X65629984Y-44584586D01*
X65677603Y-44489348D01*
X65725222Y-44441729D01*
X65820460Y-44394110D01*
X66010937Y-44346491D01*
X66106175Y-44298872D01*
X66153794Y-44251253D01*
X66201413Y-44156015D01*
X66201413Y-44060777D01*
X66153794Y-43965539D01*
X66106175Y-43917920D01*
X66010937Y-43870300D01*
X65772841Y-43870300D01*
X65629984Y-43917920D01*
X65296651Y-43870300D02*
X65058556Y-44870300D01*
X64868080Y-44156015D01*
X64677603Y-44870300D01*
X64439508Y-43870300D01*
X64153794Y-43870300D02*
X63534746Y-43870300D01*
X63868080Y-44251253D01*
X63725222Y-44251253D01*
X63629984Y-44298872D01*
X63582365Y-44346491D01*
X63534746Y-44441729D01*
X63534746Y-44679824D01*
X63582365Y-44775062D01*
X63629984Y-44822681D01*
X63725222Y-44870300D01*
X64010937Y-44870300D01*
X64106175Y-44822681D01*
X64153794Y-44775062D01*
X84201413Y-37822681D02*
X84058556Y-37870300D01*
X83820460Y-37870300D01*
X83725222Y-37822681D01*
X83677603Y-37775062D01*
X83629984Y-37679824D01*
X83629984Y-37584586D01*
X83677603Y-37489348D01*
X83725222Y-37441729D01*
X83820460Y-37394110D01*
X84010937Y-37346491D01*
X84106175Y-37298872D01*
X84153794Y-37251253D01*
X84201413Y-37156015D01*
X84201413Y-37060777D01*
X84153794Y-36965539D01*
X84106175Y-36917920D01*
X84010937Y-36870300D01*
X83772841Y-36870300D01*
X83629984Y-36917920D01*
X83296651Y-36870300D02*
X83058556Y-37870300D01*
X82868080Y-37156015D01*
X82677603Y-37870300D01*
X82439508Y-36870300D01*
X81629984Y-37203634D02*
X81629984Y-37870300D01*
X81868080Y-36822681D02*
X82106175Y-37536967D01*
X81487127Y-37536967D01*
X102201413Y-43322681D02*
X102058556Y-43370300D01*
X101820460Y-43370300D01*
X101725222Y-43322681D01*
X101677603Y-43275062D01*
X101629984Y-43179824D01*
X101629984Y-43084586D01*
X101677603Y-42989348D01*
X101725222Y-42941729D01*
X101820460Y-42894110D01*
X102010937Y-42846491D01*
X102106175Y-42798872D01*
X102153794Y-42751253D01*
X102201413Y-42656015D01*
X102201413Y-42560777D01*
X102153794Y-42465539D01*
X102106175Y-42417920D01*
X102010937Y-42370300D01*
X101772841Y-42370300D01*
X101629984Y-42417920D01*
X101296651Y-42370300D02*
X101058556Y-43370300D01*
X100868080Y-42656015D01*
X100677603Y-43370300D01*
X100439508Y-42370300D01*
X99582365Y-42370300D02*
X100058556Y-42370300D01*
X100106175Y-42846491D01*
X100058556Y-42798872D01*
X99963318Y-42751253D01*
X99725222Y-42751253D01*
X99629984Y-42798872D01*
X99582365Y-42846491D01*
X99534746Y-42941729D01*
X99534746Y-43179824D01*
X99582365Y-43275062D01*
X99629984Y-43322681D01*
X99725222Y-43370300D01*
X99963318Y-43370300D01*
X100058556Y-43322681D01*
X100106175Y-43275062D01*
X120201413Y-45822681D02*
X120058556Y-45870300D01*
X119820460Y-45870300D01*
X119725222Y-45822681D01*
X119677603Y-45775062D01*
X119629984Y-45679824D01*
X119629984Y-45584586D01*
X119677603Y-45489348D01*
X119725222Y-45441729D01*
X119820460Y-45394110D01*
X120010937Y-45346491D01*
X120106175Y-45298872D01*
X120153794Y-45251253D01*
X120201413Y-45156015D01*
X120201413Y-45060777D01*
X120153794Y-44965539D01*
X120106175Y-44917920D01*
X120010937Y-44870300D01*
X119772841Y-44870300D01*
X119629984Y-44917920D01*
X119296651Y-44870300D02*
X119058556Y-45870300D01*
X118868080Y-45156015D01*
X118677603Y-45870300D01*
X118439508Y-44870300D01*
X117629984Y-44870300D02*
X117820460Y-44870300D01*
X117915699Y-44917920D01*
X117963318Y-44965539D01*
X118058556Y-45108396D01*
X118106175Y-45298872D01*
X118106175Y-45679824D01*
X118058556Y-45775062D01*
X118010937Y-45822681D01*
X117915699Y-45870300D01*
X117725222Y-45870300D01*
X117629984Y-45822681D01*
X117582365Y-45775062D01*
X117534746Y-45679824D01*
X117534746Y-45441729D01*
X117582365Y-45346491D01*
X117629984Y-45298872D01*
X117725222Y-45251253D01*
X117915699Y-45251253D01*
X118010937Y-45298872D01*
X118058556Y-45346491D01*
X118106175Y-45441729D01*
X48201413Y-73822681D02*
X48058556Y-73870300D01*
X47820460Y-73870300D01*
X47725222Y-73822681D01*
X47677603Y-73775062D01*
X47629984Y-73679824D01*
X47629984Y-73584586D01*
X47677603Y-73489348D01*
X47725222Y-73441729D01*
X47820460Y-73394110D01*
X48010937Y-73346491D01*
X48106175Y-73298872D01*
X48153794Y-73251253D01*
X48201413Y-73156015D01*
X48201413Y-73060777D01*
X48153794Y-72965539D01*
X48106175Y-72917920D01*
X48010937Y-72870300D01*
X47772841Y-72870300D01*
X47629984Y-72917920D01*
X47296651Y-72870300D02*
X47058556Y-73870300D01*
X46868080Y-73156015D01*
X46677603Y-73870300D01*
X46439508Y-72870300D01*
X45915699Y-73298872D02*
X46010937Y-73251253D01*
X46058556Y-73203634D01*
X46106175Y-73108396D01*
X46106175Y-73060777D01*
X46058556Y-72965539D01*
X46010937Y-72917920D01*
X45915699Y-72870300D01*
X45725222Y-72870300D01*
X45629984Y-72917920D01*
X45582365Y-72965539D01*
X45534746Y-73060777D01*
X45534746Y-73108396D01*
X45582365Y-73203634D01*
X45629984Y-73251253D01*
X45725222Y-73298872D01*
X45915699Y-73298872D01*
X46010937Y-73346491D01*
X46058556Y-73394110D01*
X46106175Y-73489348D01*
X46106175Y-73679824D01*
X46058556Y-73775062D01*
X46010937Y-73822681D01*
X45915699Y-73870300D01*
X45725222Y-73870300D01*
X45629984Y-73822681D01*
X45582365Y-73775062D01*
X45534746Y-73679824D01*
X45534746Y-73489348D01*
X45582365Y-73394110D01*
X45629984Y-73346491D01*
X45725222Y-73298872D01*
X66201413Y-61796681D02*
X66058556Y-61844300D01*
X65820460Y-61844300D01*
X65725222Y-61796681D01*
X65677603Y-61749062D01*
X65629984Y-61653824D01*
X65629984Y-61558586D01*
X65677603Y-61463348D01*
X65725222Y-61415729D01*
X65820460Y-61368110D01*
X66010937Y-61320491D01*
X66106175Y-61272872D01*
X66153794Y-61225253D01*
X66201413Y-61130015D01*
X66201413Y-61034777D01*
X66153794Y-60939539D01*
X66106175Y-60891920D01*
X66010937Y-60844300D01*
X65772841Y-60844300D01*
X65629984Y-60891920D01*
X65296651Y-60844300D02*
X65058556Y-61844300D01*
X64868080Y-61130015D01*
X64677603Y-61844300D01*
X64439508Y-60844300D01*
X64010937Y-61844300D02*
X63820460Y-61844300D01*
X63725222Y-61796681D01*
X63677603Y-61749062D01*
X63582365Y-61606205D01*
X63534746Y-61415729D01*
X63534746Y-61034777D01*
X63582365Y-60939539D01*
X63629984Y-60891920D01*
X63725222Y-60844300D01*
X63915699Y-60844300D01*
X64010937Y-60891920D01*
X64058556Y-60939539D01*
X64106175Y-61034777D01*
X64106175Y-61272872D01*
X64058556Y-61368110D01*
X64010937Y-61415729D01*
X63915699Y-61463348D01*
X63725222Y-61463348D01*
X63629984Y-61415729D01*
X63582365Y-61368110D01*
X63534746Y-61272872D01*
X84677603Y-54938681D02*
X84534746Y-54986300D01*
X84296651Y-54986300D01*
X84201413Y-54938681D01*
X84153794Y-54891062D01*
X84106175Y-54795824D01*
X84106175Y-54700586D01*
X84153794Y-54605348D01*
X84201413Y-54557729D01*
X84296651Y-54510110D01*
X84487127Y-54462491D01*
X84582365Y-54414872D01*
X84629984Y-54367253D01*
X84677603Y-54272015D01*
X84677603Y-54176777D01*
X84629984Y-54081539D01*
X84582365Y-54033920D01*
X84487127Y-53986300D01*
X84249032Y-53986300D01*
X84106175Y-54033920D01*
X83772841Y-53986300D02*
X83534746Y-54986300D01*
X83344270Y-54272015D01*
X83153794Y-54986300D01*
X82915699Y-53986300D01*
X82010937Y-54986300D02*
X82582365Y-54986300D01*
X82296651Y-54986300D02*
X82296651Y-53986300D01*
X82391889Y-54129158D01*
X82487127Y-54224396D01*
X82582365Y-54272015D01*
X81391889Y-53986300D02*
X81296651Y-53986300D01*
X81201413Y-54033920D01*
X81153794Y-54081539D01*
X81106175Y-54176777D01*
X81058556Y-54367253D01*
X81058556Y-54605348D01*
X81106175Y-54795824D01*
X81153794Y-54891062D01*
X81201413Y-54938681D01*
X81296651Y-54986300D01*
X81391889Y-54986300D01*
X81487127Y-54938681D01*
X81534746Y-54891062D01*
X81582365Y-54795824D01*
X81629984Y-54605348D01*
X81629984Y-54367253D01*
X81582365Y-54176777D01*
X81534746Y-54081539D01*
X81487127Y-54033920D01*
X81391889Y-53986300D01*
X102677603Y-60272681D02*
X102534746Y-60320300D01*
X102296651Y-60320300D01*
X102201413Y-60272681D01*
X102153794Y-60225062D01*
X102106175Y-60129824D01*
X102106175Y-60034586D01*
X102153794Y-59939348D01*
X102201413Y-59891729D01*
X102296651Y-59844110D01*
X102487127Y-59796491D01*
X102582365Y-59748872D01*
X102629984Y-59701253D01*
X102677603Y-59606015D01*
X102677603Y-59510777D01*
X102629984Y-59415539D01*
X102582365Y-59367920D01*
X102487127Y-59320300D01*
X102249032Y-59320300D01*
X102106175Y-59367920D01*
X101772841Y-59320300D02*
X101534746Y-60320300D01*
X101344270Y-59606015D01*
X101153794Y-60320300D01*
X100915699Y-59320300D01*
X100010937Y-60320300D02*
X100582365Y-60320300D01*
X100296651Y-60320300D02*
X100296651Y-59320300D01*
X100391889Y-59463158D01*
X100487127Y-59558396D01*
X100582365Y-59606015D01*
X99058556Y-60320300D02*
X99629984Y-60320300D01*
X99344270Y-60320300D02*
X99344270Y-59320300D01*
X99439508Y-59463158D01*
X99534746Y-59558396D01*
X99629984Y-59606015D01*
X120657603Y-62812681D02*
X120514746Y-62860300D01*
X120276651Y-62860300D01*
X120181413Y-62812681D01*
X120133794Y-62765062D01*
X120086175Y-62669824D01*
X120086175Y-62574586D01*
X120133794Y-62479348D01*
X120181413Y-62431729D01*
X120276651Y-62384110D01*
X120467127Y-62336491D01*
X120562365Y-62288872D01*
X120609984Y-62241253D01*
X120657603Y-62146015D01*
X120657603Y-62050777D01*
X120609984Y-61955539D01*
X120562365Y-61907920D01*
X120467127Y-61860300D01*
X120229032Y-61860300D01*
X120086175Y-61907920D01*
X119752841Y-61860300D02*
X119514746Y-62860300D01*
X119324270Y-62146015D01*
X119133794Y-62860300D01*
X118895699Y-61860300D01*
X117990937Y-62860300D02*
X118562365Y-62860300D01*
X118276651Y-62860300D02*
X118276651Y-61860300D01*
X118371889Y-62003158D01*
X118467127Y-62098396D01*
X118562365Y-62146015D01*
X117609984Y-61955539D02*
X117562365Y-61907920D01*
X117467127Y-61860300D01*
X117229032Y-61860300D01*
X117133794Y-61907920D01*
X117086175Y-61955539D01*
X117038556Y-62050777D01*
X117038556Y-62146015D01*
X117086175Y-62288872D01*
X117657603Y-62860300D01*
X117038556Y-62860300D01*
X48699523Y-84984761D02*
X48556666Y-85032380D01*
X48318571Y-85032380D01*
X48223333Y-84984761D01*
X48175714Y-84937142D01*
X48128095Y-84841904D01*
X48128095Y-84746666D01*
X48175714Y-84651428D01*
X48223333Y-84603809D01*
X48318571Y-84556190D01*
X48509047Y-84508571D01*
X48604285Y-84460952D01*
X48651904Y-84413333D01*
X48699523Y-84318095D01*
X48699523Y-84222857D01*
X48651904Y-84127619D01*
X48604285Y-84080000D01*
X48509047Y-84032380D01*
X48270952Y-84032380D01*
X48128095Y-84080000D01*
X47794761Y-84032380D02*
X47556666Y-85032380D01*
X47366190Y-84318095D01*
X47175714Y-85032380D01*
X46937619Y-84032380D01*
X46032857Y-85032380D02*
X46604285Y-85032380D01*
X46318571Y-85032380D02*
X46318571Y-84032380D01*
X46413809Y-84175238D01*
X46509047Y-84270476D01*
X46604285Y-84318095D01*
X45175714Y-84365714D02*
X45175714Y-85032380D01*
X45413809Y-83984761D02*
X45651904Y-84699047D01*
X45032857Y-84699047D01*
X66677603Y-78814681D02*
X66534746Y-78862300D01*
X66296651Y-78862300D01*
X66201413Y-78814681D01*
X66153794Y-78767062D01*
X66106175Y-78671824D01*
X66106175Y-78576586D01*
X66153794Y-78481348D01*
X66201413Y-78433729D01*
X66296651Y-78386110D01*
X66487127Y-78338491D01*
X66582365Y-78290872D01*
X66629984Y-78243253D01*
X66677603Y-78148015D01*
X66677603Y-78052777D01*
X66629984Y-77957539D01*
X66582365Y-77909920D01*
X66487127Y-77862300D01*
X66249032Y-77862300D01*
X66106175Y-77909920D01*
X65772841Y-77862300D02*
X65534746Y-78862300D01*
X65344270Y-78148015D01*
X65153794Y-78862300D01*
X64915699Y-77862300D01*
X64010937Y-78862300D02*
X64582365Y-78862300D01*
X64296651Y-78862300D02*
X64296651Y-77862300D01*
X64391889Y-78005158D01*
X64487127Y-78100396D01*
X64582365Y-78148015D01*
X63106175Y-77862300D02*
X63582365Y-77862300D01*
X63629984Y-78338491D01*
X63582365Y-78290872D01*
X63487127Y-78243253D01*
X63249032Y-78243253D01*
X63153794Y-78290872D01*
X63106175Y-78338491D01*
X63058556Y-78433729D01*
X63058556Y-78671824D01*
X63106175Y-78767062D01*
X63153794Y-78814681D01*
X63249032Y-78862300D01*
X63487127Y-78862300D01*
X63582365Y-78814681D01*
X63629984Y-78767062D01*
X84677603Y-71956681D02*
X84534746Y-72004300D01*
X84296651Y-72004300D01*
X84201413Y-71956681D01*
X84153794Y-71909062D01*
X84106175Y-71813824D01*
X84106175Y-71718586D01*
X84153794Y-71623348D01*
X84201413Y-71575729D01*
X84296651Y-71528110D01*
X84487127Y-71480491D01*
X84582365Y-71432872D01*
X84629984Y-71385253D01*
X84677603Y-71290015D01*
X84677603Y-71194777D01*
X84629984Y-71099539D01*
X84582365Y-71051920D01*
X84487127Y-71004300D01*
X84249032Y-71004300D01*
X84106175Y-71051920D01*
X83772841Y-71004300D02*
X83534746Y-72004300D01*
X83344270Y-71290015D01*
X83153794Y-72004300D01*
X82915699Y-71004300D01*
X82010937Y-72004300D02*
X82582365Y-72004300D01*
X82296651Y-72004300D02*
X82296651Y-71004300D01*
X82391889Y-71147158D01*
X82487127Y-71242396D01*
X82582365Y-71290015D01*
X81153794Y-71004300D02*
X81344270Y-71004300D01*
X81439508Y-71051920D01*
X81487127Y-71099539D01*
X81582365Y-71242396D01*
X81629984Y-71432872D01*
X81629984Y-71813824D01*
X81582365Y-71909062D01*
X81534746Y-71956681D01*
X81439508Y-72004300D01*
X81249032Y-72004300D01*
X81153794Y-71956681D01*
X81106175Y-71909062D01*
X81058556Y-71813824D01*
X81058556Y-71575729D01*
X81106175Y-71480491D01*
X81153794Y-71432872D01*
X81249032Y-71385253D01*
X81439508Y-71385253D01*
X81534746Y-71432872D01*
X81582365Y-71480491D01*
X81629984Y-71575729D01*
X102677603Y-77290681D02*
X102534746Y-77338300D01*
X102296651Y-77338300D01*
X102201413Y-77290681D01*
X102153794Y-77243062D01*
X102106175Y-77147824D01*
X102106175Y-77052586D01*
X102153794Y-76957348D01*
X102201413Y-76909729D01*
X102296651Y-76862110D01*
X102487127Y-76814491D01*
X102582365Y-76766872D01*
X102629984Y-76719253D01*
X102677603Y-76624015D01*
X102677603Y-76528777D01*
X102629984Y-76433539D01*
X102582365Y-76385920D01*
X102487127Y-76338300D01*
X102249032Y-76338300D01*
X102106175Y-76385920D01*
X101772841Y-76338300D02*
X101534746Y-77338300D01*
X101344270Y-76624015D01*
X101153794Y-77338300D01*
X100915699Y-76338300D01*
X100010937Y-77338300D02*
X100582365Y-77338300D01*
X100296651Y-77338300D02*
X100296651Y-76338300D01*
X100391889Y-76481158D01*
X100487127Y-76576396D01*
X100582365Y-76624015D01*
X99677603Y-76338300D02*
X99010937Y-76338300D01*
X99439508Y-77338300D01*
X120657603Y-79830681D02*
X120514746Y-79878300D01*
X120276651Y-79878300D01*
X120181413Y-79830681D01*
X120133794Y-79783062D01*
X120086175Y-79687824D01*
X120086175Y-79592586D01*
X120133794Y-79497348D01*
X120181413Y-79449729D01*
X120276651Y-79402110D01*
X120467127Y-79354491D01*
X120562365Y-79306872D01*
X120609984Y-79259253D01*
X120657603Y-79164015D01*
X120657603Y-79068777D01*
X120609984Y-78973539D01*
X120562365Y-78925920D01*
X120467127Y-78878300D01*
X120229032Y-78878300D01*
X120086175Y-78925920D01*
X119752841Y-78878300D02*
X119514746Y-79878300D01*
X119324270Y-79164015D01*
X119133794Y-79878300D01*
X118895699Y-78878300D01*
X117990937Y-79878300D02*
X118562365Y-79878300D01*
X118276651Y-79878300D02*
X118276651Y-78878300D01*
X118371889Y-79021158D01*
X118467127Y-79116396D01*
X118562365Y-79164015D01*
X117419508Y-79306872D02*
X117514746Y-79259253D01*
X117562365Y-79211634D01*
X117609984Y-79116396D01*
X117609984Y-79068777D01*
X117562365Y-78973539D01*
X117514746Y-78925920D01*
X117419508Y-78878300D01*
X117229032Y-78878300D01*
X117133794Y-78925920D01*
X117086175Y-78973539D01*
X117038556Y-79068777D01*
X117038556Y-79116396D01*
X117086175Y-79211634D01*
X117133794Y-79259253D01*
X117229032Y-79306872D01*
X117419508Y-79306872D01*
X117514746Y-79354491D01*
X117562365Y-79402110D01*
X117609984Y-79497348D01*
X117609984Y-79687824D01*
X117562365Y-79783062D01*
X117514746Y-79830681D01*
X117419508Y-79878300D01*
X117229032Y-79878300D01*
X117133794Y-79830681D01*
X117086175Y-79783062D01*
X117038556Y-79687824D01*
X117038556Y-79497348D01*
X117086175Y-79402110D01*
X117133794Y-79354491D01*
X117229032Y-79306872D01*
X127505295Y-93665287D02*
X127475106Y-93812814D01*
X127356059Y-94019011D01*
X127267200Y-94077680D01*
X127202151Y-94095110D01*
X127095863Y-94088730D01*
X127013385Y-94041111D01*
X126954716Y-93952253D01*
X126937286Y-93887204D01*
X126943666Y-93780916D01*
X126997664Y-93592149D01*
X127004044Y-93485861D01*
X126986614Y-93420812D01*
X126927945Y-93331954D01*
X126845467Y-93284334D01*
X126739178Y-93277955D01*
X126674130Y-93295385D01*
X126585271Y-93354054D01*
X126466224Y-93560250D01*
X126436034Y-93707778D01*
X126228128Y-93972643D02*
X126975106Y-94678840D01*
X126261279Y-94486654D01*
X126784630Y-95008754D01*
X125799557Y-94714951D01*
X125715369Y-95051245D02*
X125650320Y-95068675D01*
X125561462Y-95127344D01*
X125442414Y-95333540D01*
X125436034Y-95439828D01*
X125453464Y-95504877D01*
X125512133Y-95593736D01*
X125594612Y-95641355D01*
X125742139Y-95671544D01*
X126522725Y-95462387D01*
X126213201Y-95998497D01*
X125037652Y-96034608D02*
X124990033Y-96117087D01*
X124983653Y-96223375D01*
X125001083Y-96288424D01*
X125059752Y-96377282D01*
X125200900Y-96513760D01*
X125407097Y-96632807D01*
X125595863Y-96686806D01*
X125702151Y-96693186D01*
X125767200Y-96675756D01*
X125856059Y-96617087D01*
X125903678Y-96534608D01*
X125910057Y-96428320D01*
X125892628Y-96363271D01*
X125833959Y-96274413D01*
X125692811Y-96137936D01*
X125486614Y-96018888D01*
X125297848Y-95964889D01*
X125191559Y-95958510D01*
X125126511Y-95975939D01*
X125037652Y-96034608D01*
X108839309Y-85056894D02*
X108848331Y-85207208D01*
X108786707Y-85437190D01*
X108716062Y-85516858D01*
X108657740Y-85550530D01*
X108553423Y-85571877D01*
X108461430Y-85547228D01*
X108381762Y-85476582D01*
X108348090Y-85418261D01*
X108326743Y-85313943D01*
X108330045Y-85117633D01*
X108308698Y-85013315D01*
X108275026Y-84954994D01*
X108195358Y-84884348D01*
X108103365Y-84859698D01*
X107999048Y-84881045D01*
X107940726Y-84914717D01*
X107870080Y-84994385D01*
X107808457Y-85224368D01*
X107817479Y-85374682D01*
X107685210Y-85684332D02*
X108589512Y-86173134D01*
X107850266Y-86172249D01*
X108490914Y-86541105D01*
X107463365Y-86512269D01*
X107469085Y-86858894D02*
X107410764Y-86892565D01*
X107340118Y-86972233D01*
X107278494Y-87202216D01*
X107299841Y-87306533D01*
X107333513Y-87364855D01*
X107413181Y-87435501D01*
X107505174Y-87460150D01*
X107655488Y-87451128D01*
X108355342Y-87047067D01*
X108195121Y-87645021D01*
X107948627Y-88564950D02*
X108096523Y-88012992D01*
X108022575Y-88288971D02*
X107056649Y-88030152D01*
X107219288Y-87975133D01*
X107335930Y-87907790D01*
X107406576Y-87828122D01*
D11*
X91585714Y-47260000D02*
X92585714Y-47260000D01*
X91633333Y-47260000D02*
X91585714Y-47355238D01*
X91585714Y-47545714D01*
X91633333Y-47640952D01*
X91680952Y-47688571D01*
X91776190Y-47736190D01*
X92061904Y-47736190D01*
X92157142Y-47688571D01*
X92204761Y-47640952D01*
X92252380Y-47545714D01*
X92252380Y-47355238D01*
X92204761Y-47260000D01*
X91585714Y-48593333D02*
X92252380Y-48593333D01*
X91585714Y-48164761D02*
X92109523Y-48164761D01*
X92204761Y-48212380D01*
X92252380Y-48307619D01*
X92252380Y-48450476D01*
X92204761Y-48545714D01*
X92157142Y-48593333D01*
X92204761Y-49498095D02*
X92252380Y-49402857D01*
X92252380Y-49212380D01*
X92204761Y-49117142D01*
X92157142Y-49069523D01*
X92061904Y-49021904D01*
X91776190Y-49021904D01*
X91680952Y-49069523D01*
X91633333Y-49117142D01*
X91585714Y-49212380D01*
X91585714Y-49402857D01*
X91633333Y-49498095D01*
X92252380Y-49926666D02*
X91252380Y-49926666D01*
X91871428Y-50021904D02*
X92252380Y-50307619D01*
X91585714Y-50307619D02*
X91966666Y-49926666D01*
X91585714Y-41030000D02*
X91585714Y-41410952D01*
X91252380Y-41172857D02*
X92109523Y-41172857D01*
X92204761Y-41220476D01*
X92252380Y-41315714D01*
X92252380Y-41410952D01*
X92204761Y-42125238D02*
X92252380Y-42030000D01*
X92252380Y-41839523D01*
X92204761Y-41744285D01*
X92109523Y-41696666D01*
X91728571Y-41696666D01*
X91633333Y-41744285D01*
X91585714Y-41839523D01*
X91585714Y-42030000D01*
X91633333Y-42125238D01*
X91728571Y-42172857D01*
X91823809Y-42172857D01*
X91919047Y-41696666D01*
X91585714Y-42601428D02*
X92252380Y-42601428D01*
X91680952Y-42601428D02*
X91633333Y-42649047D01*
X91585714Y-42744285D01*
X91585714Y-42887142D01*
X91633333Y-42982380D01*
X91728571Y-43030000D01*
X92252380Y-43030000D01*
X91585714Y-43363333D02*
X91585714Y-43744285D01*
X91252380Y-43506190D02*
X92109523Y-43506190D01*
X92204761Y-43553809D01*
X92252380Y-43649047D01*
X92252380Y-43744285D01*
X92252380Y-44077619D02*
X91585714Y-44077619D01*
X91252380Y-44077619D02*
X91300000Y-44030000D01*
X91347619Y-44077619D01*
X91300000Y-44125238D01*
X91252380Y-44077619D01*
X91347619Y-44077619D01*
X91585714Y-44553809D02*
X92252380Y-44553809D01*
X91680952Y-44553809D02*
X91633333Y-44601428D01*
X91585714Y-44696666D01*
X91585714Y-44839523D01*
X91633333Y-44934761D01*
X91728571Y-44982380D01*
X92252380Y-44982380D01*
X91585714Y-45887142D02*
X92395238Y-45887142D01*
X92490476Y-45839523D01*
X92538095Y-45791904D01*
X92585714Y-45696666D01*
X92585714Y-45553809D01*
X92538095Y-45458571D01*
X92204761Y-45887142D02*
X92252380Y-45791904D01*
X92252380Y-45601428D01*
X92204761Y-45506190D01*
X92157142Y-45458571D01*
X92061904Y-45410952D01*
X91776190Y-45410952D01*
X91680952Y-45458571D01*
X91633333Y-45506190D01*
X91585714Y-45601428D01*
X91585714Y-45791904D01*
X91633333Y-45887142D01*
D10*
X27979523Y-86154761D02*
X27836666Y-86202380D01*
X27598571Y-86202380D01*
X27503333Y-86154761D01*
X27455714Y-86107142D01*
X27408095Y-86011904D01*
X27408095Y-85916666D01*
X27455714Y-85821428D01*
X27503333Y-85773809D01*
X27598571Y-85726190D01*
X27789047Y-85678571D01*
X27884285Y-85630952D01*
X27931904Y-85583333D01*
X27979523Y-85488095D01*
X27979523Y-85392857D01*
X27931904Y-85297619D01*
X27884285Y-85250000D01*
X27789047Y-85202380D01*
X27550952Y-85202380D01*
X27408095Y-85250000D01*
X27074761Y-85202380D02*
X26836666Y-86202380D01*
X26646190Y-85488095D01*
X26455714Y-86202380D01*
X26217619Y-85202380D01*
X25312857Y-86202380D02*
X25884285Y-86202380D01*
X25598571Y-86202380D02*
X25598571Y-85202380D01*
X25693809Y-85345238D01*
X25789047Y-85440476D01*
X25884285Y-85488095D01*
X24979523Y-85202380D02*
X24360476Y-85202380D01*
X24693809Y-85583333D01*
X24550952Y-85583333D01*
X24455714Y-85630952D01*
X24408095Y-85678571D01*
X24360476Y-85773809D01*
X24360476Y-86011904D01*
X24408095Y-86107142D01*
X24455714Y-86154761D01*
X24550952Y-86202380D01*
X24836666Y-86202380D01*
X24931904Y-86154761D01*
X24979523Y-86107142D01*
X30003333Y-63504761D02*
X29860476Y-63552380D01*
X29622380Y-63552380D01*
X29527142Y-63504761D01*
X29479523Y-63457142D01*
X29431904Y-63361904D01*
X29431904Y-63266666D01*
X29479523Y-63171428D01*
X29527142Y-63123809D01*
X29622380Y-63076190D01*
X29812857Y-63028571D01*
X29908095Y-62980952D01*
X29955714Y-62933333D01*
X30003333Y-62838095D01*
X30003333Y-62742857D01*
X29955714Y-62647619D01*
X29908095Y-62600000D01*
X29812857Y-62552380D01*
X29574761Y-62552380D01*
X29431904Y-62600000D01*
X29098571Y-62552380D02*
X28860476Y-63552380D01*
X28670000Y-62838095D01*
X28479523Y-63552380D01*
X28241428Y-62552380D01*
X27955714Y-62552380D02*
X27289047Y-62552380D01*
X27717619Y-63552380D01*
X144315904Y-84409380D02*
X143744476Y-84409380D01*
X144030190Y-85409380D02*
X144030190Y-84409380D01*
X142839714Y-85409380D02*
X143173047Y-84933190D01*
X143411142Y-85409380D02*
X143411142Y-84409380D01*
X143030190Y-84409380D01*
X142934952Y-84457000D01*
X142887333Y-84504619D01*
X142839714Y-84599857D01*
X142839714Y-84742714D01*
X142887333Y-84837952D01*
X142934952Y-84885571D01*
X143030190Y-84933190D01*
X143411142Y-84933190D01*
X141839714Y-85409380D02*
X142173047Y-84933190D01*
X142411142Y-85409380D02*
X142411142Y-84409380D01*
X142030190Y-84409380D01*
X141934952Y-84457000D01*
X141887333Y-84504619D01*
X141839714Y-84599857D01*
X141839714Y-84742714D01*
X141887333Y-84837952D01*
X141934952Y-84885571D01*
X142030190Y-84933190D01*
X142411142Y-84933190D01*
X141458761Y-85361761D02*
X141315904Y-85409380D01*
X141077809Y-85409380D01*
X140982571Y-85361761D01*
X140934952Y-85314142D01*
X140887333Y-85218904D01*
X140887333Y-85123666D01*
X140934952Y-85028428D01*
X140982571Y-84980809D01*
X141077809Y-84933190D01*
X141268285Y-84885571D01*
X141363523Y-84837952D01*
X141411142Y-84790333D01*
X141458761Y-84695095D01*
X141458761Y-84599857D01*
X141411142Y-84504619D01*
X141363523Y-84457000D01*
X141268285Y-84409380D01*
X141030190Y-84409380D01*
X140887333Y-84457000D01*
X27163333Y-45474761D02*
X27020476Y-45522380D01*
X26782380Y-45522380D01*
X26687142Y-45474761D01*
X26639523Y-45427142D01*
X26591904Y-45331904D01*
X26591904Y-45236666D01*
X26639523Y-45141428D01*
X26687142Y-45093809D01*
X26782380Y-45046190D01*
X26972857Y-44998571D01*
X27068095Y-44950952D01*
X27115714Y-44903333D01*
X27163333Y-44808095D01*
X27163333Y-44712857D01*
X27115714Y-44617619D01*
X27068095Y-44570000D01*
X26972857Y-44522380D01*
X26734761Y-44522380D01*
X26591904Y-44570000D01*
X26258571Y-44522380D02*
X26020476Y-45522380D01*
X25830000Y-44808095D01*
X25639523Y-45522380D01*
X25401428Y-44522380D01*
X24496666Y-45522380D02*
X25068095Y-45522380D01*
X24782380Y-45522380D02*
X24782380Y-44522380D01*
X24877619Y-44665238D01*
X24972857Y-44760476D01*
X25068095Y-44808095D01*
X48368080Y-51227920D02*
X45868080Y-51227920D01*
X39868080Y-53727920D02*
X44368080Y-53727920D01*
X39868080Y-41527920D02*
X39868080Y-40527920D01*
X39868080Y-53127920D02*
X39868080Y-53727920D01*
X52868080Y-40527920D02*
X53868080Y-40527920D01*
X48868080Y-55227920D02*
X48368080Y-55727920D01*
X39868080Y-54527920D02*
X39868080Y-53527920D01*
X48868080Y-51727920D02*
X48368080Y-51227920D01*
X44868080Y-54227920D02*
X44868080Y-55227920D01*
X39868080Y-49027920D02*
X39868080Y-49527920D01*
X40868080Y-54527920D02*
X39868080Y-54527920D01*
X39868080Y-40527920D02*
X40868080Y-40527920D01*
X45368080Y-55727920D02*
X44868080Y-55227920D01*
X53868080Y-40527920D02*
X53868080Y-41527920D01*
X44368080Y-49027920D02*
X39868080Y-49027920D01*
X53868080Y-53527920D02*
X53868080Y-54527920D01*
X53868080Y-54527920D02*
X52868080Y-54527920D01*
X48368080Y-55727920D02*
X45368080Y-55727920D01*
X44368080Y-49727920D02*
X44368080Y-49027920D01*
X44868080Y-54227920D02*
G75*
G03*
X44368080Y-53727920I-500001J-1D01*
G01*
X44368080Y-49727920D02*
G75*
G03*
X45868080Y-51227920I1500001J1D01*
G01*
X58868080Y-42527920D02*
X57868080Y-42527920D01*
X62868080Y-42227920D02*
X62868080Y-43227920D01*
X66368080Y-39227920D02*
X63868080Y-39227920D01*
X66368080Y-43727920D02*
X63368080Y-43727920D01*
X57868080Y-41727920D02*
X62368080Y-41727920D01*
X71868080Y-28527920D02*
X71868080Y-29527920D01*
X57868080Y-41127920D02*
X57868080Y-41727920D01*
X57868080Y-29527920D02*
X57868080Y-28527920D01*
X62368080Y-37727920D02*
X62368080Y-37027920D01*
X70868080Y-28527920D02*
X71868080Y-28527920D01*
X57868080Y-28527920D02*
X58868080Y-28527920D01*
X62368080Y-37027920D02*
X57868080Y-37027920D01*
X57868080Y-37027920D02*
X57868080Y-37527920D01*
X66868080Y-43227920D02*
X66368080Y-43727920D01*
X71868080Y-41527920D02*
X71868080Y-42527920D01*
X63368080Y-43727920D02*
X62868080Y-43227920D01*
X71868080Y-42527920D02*
X70868080Y-42527920D01*
X66868080Y-39727920D02*
X66368080Y-39227920D01*
X57868080Y-42527920D02*
X57868080Y-41527920D01*
X62868080Y-42227920D02*
G75*
G03*
X62368080Y-41727920I-500001J-1D01*
G01*
X62368080Y-37727920D02*
G75*
G03*
X63868080Y-39227920I1500001J1D01*
G01*
X76868080Y-35527920D02*
X75868080Y-35527920D01*
X75868080Y-30027920D02*
X75868080Y-30527920D01*
X75868080Y-34127920D02*
X75868080Y-34727920D01*
X84368080Y-32227920D02*
X81868080Y-32227920D01*
X89868080Y-34527920D02*
X89868080Y-35527920D01*
X80368080Y-30727920D02*
X80368080Y-30027920D01*
X80868080Y-35227920D02*
X80868080Y-36227920D01*
X80368080Y-30027920D02*
X75868080Y-30027920D01*
X89868080Y-21527920D02*
X89868080Y-22527920D01*
X81368080Y-36727920D02*
X80868080Y-36227920D01*
X89868080Y-35527920D02*
X88868080Y-35527920D01*
X75868080Y-35527920D02*
X75868080Y-34527920D01*
X84868080Y-32727920D02*
X84368080Y-32227920D01*
X88868080Y-21527920D02*
X89868080Y-21527920D01*
X75868080Y-22527920D02*
X75868080Y-21527920D01*
X75868080Y-34727920D02*
X80368080Y-34727920D01*
X75868080Y-21527920D02*
X76868080Y-21527920D01*
X84368080Y-36727920D02*
X81368080Y-36727920D01*
X84868080Y-36227920D02*
X84368080Y-36727920D01*
X80368080Y-30727920D02*
G75*
G03*
X81868080Y-32227920I1500001J1D01*
G01*
X80868080Y-35227920D02*
G75*
G03*
X80368080Y-34727920I-500001J-1D01*
G01*
X102368080Y-42227920D02*
X99368080Y-42227920D01*
X102868080Y-38227920D02*
X102368080Y-37727920D01*
X107868080Y-41027920D02*
X106868080Y-41027920D01*
X106868080Y-27027920D02*
X107868080Y-27027920D01*
X93868080Y-41027920D02*
X93868080Y-40027920D01*
X98368080Y-35527920D02*
X93868080Y-35527920D01*
X98368080Y-36227920D02*
X98368080Y-35527920D01*
X107868080Y-27027920D02*
X107868080Y-28027920D01*
X98868080Y-40727920D02*
X98868080Y-41727920D01*
X93868080Y-28027920D02*
X93868080Y-27027920D01*
X107868080Y-40027920D02*
X107868080Y-41027920D01*
X93868080Y-35527920D02*
X93868080Y-36027920D01*
X102868080Y-41727920D02*
X102368080Y-42227920D01*
X93868080Y-27027920D02*
X94868080Y-27027920D01*
X93868080Y-40227920D02*
X98368080Y-40227920D01*
X93868080Y-39627920D02*
X93868080Y-40227920D01*
X102368080Y-37727920D02*
X99868080Y-37727920D01*
X94868080Y-41027920D02*
X93868080Y-41027920D01*
X99368080Y-42227920D02*
X98868080Y-41727920D01*
X98368080Y-36227920D02*
G75*
G03*
X99868080Y-37727920I1500001J1D01*
G01*
X98868080Y-40727920D02*
G75*
G03*
X98368080Y-40227920I-500001J-1D01*
G01*
X124868080Y-29527920D02*
X125868080Y-29527920D01*
X125868080Y-43527920D02*
X124868080Y-43527920D01*
X111868080Y-42127920D02*
X111868080Y-42727920D01*
X111868080Y-29527920D02*
X112868080Y-29527920D01*
X117368080Y-44727920D02*
X116868080Y-44227920D01*
X120368080Y-40227920D02*
X117868080Y-40227920D01*
X125868080Y-42527920D02*
X125868080Y-43527920D01*
X112868080Y-43527920D02*
X111868080Y-43527920D01*
X111868080Y-38027920D02*
X111868080Y-38527920D01*
X111868080Y-43527920D02*
X111868080Y-42527920D01*
X116368080Y-38727920D02*
X116368080Y-38027920D01*
X111868080Y-30527920D02*
X111868080Y-29527920D01*
X111868080Y-42727920D02*
X116368080Y-42727920D01*
X116868080Y-43227920D02*
X116868080Y-44227920D01*
X125868080Y-29527920D02*
X125868080Y-30527920D01*
X116368080Y-38027920D02*
X111868080Y-38027920D01*
X120368080Y-44727920D02*
X117368080Y-44727920D01*
X120868080Y-40727920D02*
X120368080Y-40227920D01*
X120868080Y-44227920D02*
X120368080Y-44727920D01*
X116368080Y-38727920D02*
G75*
G03*
X117868080Y-40227920I1500001J1D01*
G01*
X116868080Y-43227920D02*
G75*
G03*
X116368080Y-42727920I-500001J-1D01*
G01*
X40868080Y-71527920D02*
X39868080Y-71527920D01*
X39868080Y-71527920D02*
X39868080Y-70527920D01*
X39868080Y-57527920D02*
X40868080Y-57527920D01*
X39868080Y-66027920D02*
X39868080Y-66527920D01*
X39868080Y-58527920D02*
X39868080Y-57527920D01*
X44368080Y-66727920D02*
X44368080Y-66027920D01*
X53868080Y-57527920D02*
X53868080Y-58527920D01*
X53868080Y-70527920D02*
X53868080Y-71527920D01*
X48368080Y-72727920D02*
X45368080Y-72727920D01*
X45368080Y-72727920D02*
X44868080Y-72227920D01*
X53868080Y-71527920D02*
X52868080Y-71527920D01*
X44368080Y-66027920D02*
X39868080Y-66027920D01*
X39868080Y-70727920D02*
X44368080Y-70727920D01*
X48868080Y-72227920D02*
X48368080Y-72727920D01*
X52868080Y-57527920D02*
X53868080Y-57527920D01*
X48868080Y-68727920D02*
X48368080Y-68227920D01*
X44868080Y-71227920D02*
X44868080Y-72227920D01*
X48368080Y-68227920D02*
X45868080Y-68227920D01*
X39868080Y-70127920D02*
X39868080Y-70727920D01*
X44368080Y-66727920D02*
G75*
G03*
X45868080Y-68227920I1500001J1D01*
G01*
X44868080Y-71227920D02*
G75*
G03*
X44368080Y-70727920I-500001J-1D01*
G01*
X71868080Y-45501920D02*
X71868080Y-46501920D01*
X71868080Y-58501920D02*
X71868080Y-59501920D01*
X66868080Y-56701920D02*
X66368080Y-56201920D01*
X57868080Y-58701920D02*
X62368080Y-58701920D01*
X66868080Y-60201920D02*
X66368080Y-60701920D01*
X66368080Y-60701920D02*
X63368080Y-60701920D01*
X57868080Y-46501920D02*
X57868080Y-45501920D01*
X58868080Y-59501920D02*
X57868080Y-59501920D01*
X57868080Y-59501920D02*
X57868080Y-58501920D01*
X57868080Y-45501920D02*
X58868080Y-45501920D01*
X62368080Y-54701920D02*
X62368080Y-54001920D01*
X62868080Y-59201920D02*
X62868080Y-60201920D01*
X57868080Y-54001920D02*
X57868080Y-54501920D01*
X71868080Y-59501920D02*
X70868080Y-59501920D01*
X62368080Y-54001920D02*
X57868080Y-54001920D01*
X57868080Y-58101920D02*
X57868080Y-58701920D01*
X70868080Y-45501920D02*
X71868080Y-45501920D01*
X63368080Y-60701920D02*
X62868080Y-60201920D01*
X66368080Y-56201920D02*
X63868080Y-56201920D01*
X62368080Y-54701920D02*
G75*
G03*
X63868080Y-56201920I1500001J1D01*
G01*
X62868080Y-59201920D02*
G75*
G03*
X62368080Y-58701920I-500001J-1D01*
G01*
X84868080Y-49843920D02*
X84368080Y-49343920D01*
X84868080Y-53343920D02*
X84368080Y-53843920D01*
X89868080Y-52643920D02*
X88868080Y-52643920D01*
X89868080Y-38643920D02*
X89868080Y-39643920D01*
X75868080Y-39643920D02*
X75868080Y-38643920D01*
X80368080Y-47843920D02*
X80368080Y-47143920D01*
X81368080Y-53843920D02*
X80868080Y-53343920D01*
X75868080Y-51243920D02*
X75868080Y-51843920D01*
X80368080Y-47143920D02*
X75868080Y-47143920D01*
X75868080Y-51843920D02*
X80368080Y-51843920D01*
X84368080Y-53843920D02*
X81368080Y-53843920D01*
X75868080Y-52643920D02*
X75868080Y-51643920D01*
X80868080Y-52343920D02*
X80868080Y-53343920D01*
X75868080Y-47143920D02*
X75868080Y-47643920D01*
X89868080Y-51643920D02*
X89868080Y-52643920D01*
X76868080Y-52643920D02*
X75868080Y-52643920D01*
X75868080Y-38643920D02*
X76868080Y-38643920D01*
X84368080Y-49343920D02*
X81868080Y-49343920D01*
X88868080Y-38643920D02*
X89868080Y-38643920D01*
X80368080Y-47843920D02*
G75*
G03*
X81868080Y-49343920I1500001J1D01*
G01*
X80868080Y-52343920D02*
G75*
G03*
X80368080Y-51843920I-500001J-1D01*
G01*
X93868080Y-43977920D02*
X94868080Y-43977920D01*
X102368080Y-54677920D02*
X99868080Y-54677920D01*
X94868080Y-57977920D02*
X93868080Y-57977920D01*
X107868080Y-56977920D02*
X107868080Y-57977920D01*
X93868080Y-57177920D02*
X98368080Y-57177920D01*
X93868080Y-57977920D02*
X93868080Y-56977920D01*
X93868080Y-52477920D02*
X93868080Y-52977920D01*
X102868080Y-55177920D02*
X102368080Y-54677920D01*
X98368080Y-52477920D02*
X93868080Y-52477920D01*
X106868080Y-43977920D02*
X107868080Y-43977920D01*
X107868080Y-57977920D02*
X106868080Y-57977920D01*
X107868080Y-43977920D02*
X107868080Y-44977920D01*
X102368080Y-59177920D02*
X99368080Y-59177920D01*
X93868080Y-56577920D02*
X93868080Y-57177920D01*
X102868080Y-58677920D02*
X102368080Y-59177920D01*
X99368080Y-59177920D02*
X98868080Y-58677920D01*
X93868080Y-44977920D02*
X93868080Y-43977920D01*
X98868080Y-57677920D02*
X98868080Y-58677920D01*
X98368080Y-53177920D02*
X98368080Y-52477920D01*
X98368080Y-53177920D02*
G75*
G03*
X99868080Y-54677920I1500001J1D01*
G01*
X98868080Y-57677920D02*
G75*
G03*
X98368080Y-57177920I-500001J-1D01*
G01*
X120348080Y-61717920D02*
X117348080Y-61717920D01*
X111848080Y-60517920D02*
X111848080Y-59517920D01*
X116848080Y-60217920D02*
X116848080Y-61217920D01*
X117348080Y-61717920D02*
X116848080Y-61217920D01*
X125848080Y-60517920D02*
X124848080Y-60517920D01*
X116348080Y-55717920D02*
X116348080Y-55017920D01*
X120348080Y-57217920D02*
X117848080Y-57217920D01*
X125848080Y-46517920D02*
X125848080Y-47517920D01*
X111848080Y-46517920D02*
X112848080Y-46517920D01*
X120848080Y-57717920D02*
X120348080Y-57217920D01*
X111848080Y-59717920D02*
X116348080Y-59717920D01*
X120848080Y-61217920D02*
X120348080Y-61717920D01*
X125848080Y-59517920D02*
X125848080Y-60517920D01*
X111848080Y-55017920D02*
X111848080Y-55517920D01*
X124848080Y-46517920D02*
X125848080Y-46517920D01*
X112848080Y-60517920D02*
X111848080Y-60517920D01*
X116348080Y-55017920D02*
X111848080Y-55017920D01*
X111848080Y-47517920D02*
X111848080Y-46517920D01*
X111848080Y-59117920D02*
X111848080Y-59717920D01*
X116848080Y-60217920D02*
G75*
G03*
X116348080Y-59717920I-500001J-1D01*
G01*
X116348080Y-55717920D02*
G75*
G03*
X117848080Y-57217920I1500001J1D01*
G01*
X52868080Y-74527920D02*
X53868080Y-74527920D01*
X39868080Y-88527920D02*
X39868080Y-87527920D01*
X48368080Y-89727920D02*
X45368080Y-89727920D01*
X53868080Y-88527920D02*
X52868080Y-88527920D01*
X39868080Y-83027920D02*
X39868080Y-83527920D01*
X39868080Y-87727920D02*
X44368080Y-87727920D01*
X53868080Y-87527920D02*
X53868080Y-88527920D01*
X48368080Y-85227920D02*
X45868080Y-85227920D01*
X44368080Y-83727920D02*
X44368080Y-83027920D01*
X44368080Y-83027920D02*
X39868080Y-83027920D01*
X39868080Y-87127920D02*
X39868080Y-87727920D01*
X48868080Y-89227920D02*
X48368080Y-89727920D01*
X39868080Y-74527920D02*
X40868080Y-74527920D01*
X53868080Y-74527920D02*
X53868080Y-75527920D01*
X48868080Y-85727920D02*
X48368080Y-85227920D01*
X44868080Y-88227920D02*
X44868080Y-89227920D01*
X39868080Y-75527920D02*
X39868080Y-74527920D01*
X40868080Y-88527920D02*
X39868080Y-88527920D01*
X45368080Y-89727920D02*
X44868080Y-89227920D01*
X44368080Y-83727920D02*
G75*
G03*
X45868080Y-85227920I1500001J1D01*
G01*
X44868080Y-88227920D02*
G75*
G03*
X44368080Y-87727920I-500001J-1D01*
G01*
X71868080Y-76519920D02*
X70868080Y-76519920D01*
X66368080Y-77719920D02*
X63368080Y-77719920D01*
X70868080Y-62519920D02*
X71868080Y-62519920D01*
X66368080Y-73219920D02*
X63868080Y-73219920D01*
X57868080Y-71019920D02*
X57868080Y-71519920D01*
X66868080Y-73719920D02*
X66368080Y-73219920D01*
X71868080Y-75519920D02*
X71868080Y-76519920D01*
X62368080Y-71019920D02*
X57868080Y-71019920D01*
X66868080Y-77219920D02*
X66368080Y-77719920D01*
X71868080Y-62519920D02*
X71868080Y-63519920D01*
X57868080Y-63519920D02*
X57868080Y-62519920D01*
X57868080Y-75119920D02*
X57868080Y-75719920D01*
X63368080Y-77719920D02*
X62868080Y-77219920D01*
X57868080Y-62519920D02*
X58868080Y-62519920D01*
X62868080Y-76219920D02*
X62868080Y-77219920D01*
X58868080Y-76519920D02*
X57868080Y-76519920D01*
X57868080Y-75719920D02*
X62368080Y-75719920D01*
X62368080Y-71719920D02*
X62368080Y-71019920D01*
X57868080Y-76519920D02*
X57868080Y-75519920D01*
X62868080Y-76219920D02*
G75*
G03*
X62368080Y-75719920I-500001J-1D01*
G01*
X62368080Y-71719920D02*
G75*
G03*
X63868080Y-73219920I1500001J1D01*
G01*
X75868080Y-64161920D02*
X75868080Y-64661920D01*
X89868080Y-55661920D02*
X89868080Y-56661920D01*
X76868080Y-69661920D02*
X75868080Y-69661920D01*
X84368080Y-70861920D02*
X81368080Y-70861920D01*
X75868080Y-68261920D02*
X75868080Y-68861920D01*
X75868080Y-69661920D02*
X75868080Y-68661920D01*
X80868080Y-69361920D02*
X80868080Y-70361920D01*
X84868080Y-66861920D02*
X84368080Y-66361920D01*
X89868080Y-68661920D02*
X89868080Y-69661920D01*
X75868080Y-68861920D02*
X80368080Y-68861920D01*
X89868080Y-69661920D02*
X88868080Y-69661920D01*
X80368080Y-64861920D02*
X80368080Y-64161920D01*
X75868080Y-56661920D02*
X75868080Y-55661920D01*
X81368080Y-70861920D02*
X80868080Y-70361920D01*
X88868080Y-55661920D02*
X89868080Y-55661920D01*
X75868080Y-55661920D02*
X76868080Y-55661920D01*
X80368080Y-64161920D02*
X75868080Y-64161920D01*
X84868080Y-70361920D02*
X84368080Y-70861920D01*
X84368080Y-66361920D02*
X81868080Y-66361920D01*
X80368080Y-64861920D02*
G75*
G03*
X81868080Y-66361920I1500001J1D01*
G01*
X80868080Y-69361920D02*
G75*
G03*
X80368080Y-68861920I-500001J-1D01*
G01*
X102868080Y-72195920D02*
X102368080Y-71695920D01*
X99368080Y-76195920D02*
X98868080Y-75695920D01*
X93868080Y-74195920D02*
X98368080Y-74195920D01*
X102368080Y-71695920D02*
X99868080Y-71695920D01*
X106868080Y-60995920D02*
X107868080Y-60995920D01*
X98368080Y-69495920D02*
X93868080Y-69495920D01*
X102868080Y-75695920D02*
X102368080Y-76195920D01*
X107868080Y-74995920D02*
X106868080Y-74995920D01*
X102368080Y-76195920D02*
X99368080Y-76195920D01*
X98868080Y-74695920D02*
X98868080Y-75695920D01*
X94868080Y-74995920D02*
X93868080Y-74995920D01*
X107868080Y-73995920D02*
X107868080Y-74995920D01*
X93868080Y-73595920D02*
X93868080Y-74195920D01*
X93868080Y-74995920D02*
X93868080Y-73995920D01*
X93868080Y-60995920D02*
X94868080Y-60995920D01*
X98368080Y-70195920D02*
X98368080Y-69495920D01*
X107868080Y-60995920D02*
X107868080Y-61995920D01*
X93868080Y-69495920D02*
X93868080Y-69995920D01*
X93868080Y-61995920D02*
X93868080Y-60995920D01*
X98368080Y-70195920D02*
G75*
G03*
X99868080Y-71695920I1500001J1D01*
G01*
X98868080Y-74695920D02*
G75*
G03*
X98368080Y-74195920I-500001J-1D01*
G01*
X125848080Y-76535920D02*
X125848080Y-77535920D01*
X111848080Y-63535920D02*
X112848080Y-63535920D01*
X124848080Y-63535920D02*
X125848080Y-63535920D01*
X111848080Y-76135920D02*
X111848080Y-76735920D01*
X120348080Y-74235920D02*
X117848080Y-74235920D01*
X111848080Y-64535920D02*
X111848080Y-63535920D01*
X111848080Y-77535920D02*
X111848080Y-76535920D01*
X111848080Y-76735920D02*
X116348080Y-76735920D01*
X116348080Y-72035920D02*
X111848080Y-72035920D01*
X120848080Y-74735920D02*
X120348080Y-74235920D01*
X116848080Y-77235920D02*
X116848080Y-78235920D01*
X117348080Y-78735920D02*
X116848080Y-78235920D01*
X116348080Y-72735920D02*
X116348080Y-72035920D01*
X120848080Y-78235920D02*
X120348080Y-78735920D01*
X111848080Y-72035920D02*
X111848080Y-72535920D01*
X125848080Y-77535920D02*
X124848080Y-77535920D01*
X120348080Y-78735920D02*
X117348080Y-78735920D01*
X125848080Y-63535920D02*
X125848080Y-64535920D01*
X112848080Y-77535920D02*
X111848080Y-77535920D01*
X116348080Y-72735920D02*
G75*
G03*
X117848080Y-74235920I1500001J1D01*
G01*
X116848080Y-77235920D02*
G75*
G03*
X116348080Y-76735920I-500001J-1D01*
G01*
X120447928Y-99290098D02*
X119581902Y-98790098D01*
X135956258Y-98428882D02*
X136206258Y-97995869D01*
X119581902Y-98790098D02*
X120081902Y-97924072D01*
X138306258Y-94358562D02*
X134409144Y-92108562D01*
X137840232Y-93165742D02*
X138706258Y-93665742D01*
X131945042Y-88376512D02*
X134543118Y-89876512D01*
X126081902Y-87531768D02*
X126581902Y-86665742D01*
X126581902Y-86665742D02*
X127447928Y-87165742D01*
X129512029Y-91590613D02*
X129695042Y-92273626D01*
X132206258Y-104924072D02*
X131706258Y-105790098D01*
X131706258Y-105790098D02*
X130840232Y-105290098D01*
X134226131Y-91425550D02*
X134726131Y-90559524D01*
X138706258Y-93665742D02*
X138206258Y-94531768D01*
X134543118Y-89876512D02*
X134726131Y-90559524D01*
X129695042Y-92273626D02*
X131860105Y-93523626D01*
X132059144Y-96178882D02*
X135956258Y-98428882D01*
X131262029Y-88559524D02*
X131945042Y-88376512D01*
X132409144Y-95572664D02*
X132059144Y-96178882D01*
X138006258Y-94878178D02*
X138306258Y-94358562D01*
X132409143Y-95572663D02*
G75*
G03*
X131860105Y-93523626I-1299039J749999D01*
G01*
X134226132Y-91425551D02*
G75*
G03*
X134409144Y-92108562I433012J-249999D01*
G01*
X107012875Y-96010283D02*
X106659322Y-95397911D01*
X110523025Y-96433187D02*
X109910653Y-96786740D01*
X105375513Y-80870632D02*
X105634333Y-79904706D01*
X107781037Y-89279761D02*
X103434371Y-88115075D01*
X102217921Y-92654927D02*
X106564587Y-93819613D01*
X111075338Y-92440074D02*
X108660524Y-91793027D01*
X118191368Y-83269353D02*
X119157294Y-83528173D01*
X109910653Y-96786740D02*
X107012875Y-96010283D01*
X111428892Y-93052447D02*
X111075338Y-92440074D01*
X102373213Y-92075371D02*
X102217921Y-92654927D01*
X119157294Y-83528173D02*
X118898475Y-84494098D01*
X102976792Y-93686487D02*
X102010866Y-93427667D01*
X106918141Y-94431985D02*
X106659322Y-95397911D01*
X105634333Y-79904706D02*
X106600258Y-80163525D01*
X115792647Y-96085208D02*
X115533827Y-97051134D01*
X103434371Y-88115075D02*
X103304961Y-88598038D01*
X107599864Y-89955909D02*
X107781037Y-89279761D01*
X115533827Y-97051134D02*
X114567902Y-96792315D01*
X102010866Y-93427667D02*
X102269685Y-92461742D01*
X107599862Y-89955909D02*
G75*
G03*
X108660524Y-91793027I1448889J-388229D01*
G01*
X106918140Y-94431985D02*
G75*
G03*
X106564587Y-93819613I-482962J129410D01*
G01*
D12*
X98932129Y-24579786D02*
G75*
G03*
X94781580Y-23545920I-7008041J-19286105D01*
G01*
X93052465Y-33130056D02*
G75*
G03*
X91924080Y-33070920I-1128379J-10735785D01*
G01*
X72637944Y-36857876D02*
G75*
G03*
X71604080Y-41008420I19286252J-7008071D01*
G01*
X91924080Y-33070920D02*
G75*
G03*
X90795695Y-33130056I-6J-10794921D01*
G01*
X84916035Y-63152055D02*
G75*
G03*
X89066580Y-64185920I7008051J19286154D01*
G01*
X91924080Y-54660920D02*
G75*
G03*
X93052465Y-54601784I6J10794921D01*
G01*
X112244080Y-41008420D02*
G75*
G03*
X111210214Y-36857872I-20319983J-2857496D01*
G01*
X94781580Y-64185920D02*
G75*
G03*
X98932125Y-63152055I-2857506J20320019D01*
G01*
X71604080Y-46723420D02*
G75*
G03*
X72637945Y-50873966I20320050J2857512D01*
G01*
X89066580Y-23545920D02*
G75*
G03*
X84916034Y-24579785I2857512J-20320050D01*
G01*
X111210214Y-50873968D02*
G75*
G03*
X112244080Y-46723420I-19286117J7008044D01*
G01*
X90795695Y-54601784D02*
G75*
G03*
X91924080Y-54660920I1128379J10735785D01*
G01*
D13*
X92701798Y-58390495D02*
X92679095Y-58413358D01*
X92679095Y-58413358D02*
X92644616Y-58448889D01*
X92644616Y-58448889D02*
X92600347Y-58494981D01*
X92600347Y-58494981D02*
X92548280Y-58549527D01*
X92548280Y-58549527D02*
X92490401Y-58610421D01*
X92490401Y-58610421D02*
X92428702Y-58675556D01*
X92428702Y-58675556D02*
X92365169Y-58742826D01*
X92365169Y-58742826D02*
X92301794Y-58810124D01*
X92301794Y-58810124D02*
X92240564Y-58875343D01*
X92240564Y-58875343D02*
X92183468Y-58936378D01*
X92183468Y-58936378D02*
X92132496Y-58991121D01*
X92132496Y-58991121D02*
X92089636Y-59037466D01*
X92089636Y-59037466D02*
X92056878Y-59073306D01*
X92056878Y-59073306D02*
X92036210Y-59096535D01*
X92036210Y-59096535D02*
X92033917Y-59099226D01*
X92033917Y-59099226D02*
X92005616Y-59132861D01*
X92005616Y-59132861D02*
X92625630Y-59132861D01*
X92625630Y-59132861D02*
X92798980Y-58956792D01*
X92798980Y-58956792D02*
X92852722Y-58902049D01*
X92852722Y-58902049D02*
X92903005Y-58850536D01*
X92903005Y-58850536D02*
X92946821Y-58805356D01*
X92946821Y-58805356D02*
X92981167Y-58769610D01*
X92981167Y-58769610D02*
X93003035Y-58746401D01*
X93003035Y-58746401D02*
X93006212Y-58742909D01*
X93006212Y-58742909D02*
X93040094Y-58705094D01*
X93040094Y-58705094D02*
X92879059Y-58543750D01*
X92879059Y-58543750D02*
X92829346Y-58494295D01*
X92829346Y-58494295D02*
X92785122Y-58450970D01*
X92785122Y-58450970D02*
X92748975Y-58416257D01*
X92748975Y-58416257D02*
X92723493Y-58392637D01*
X92723493Y-58392637D02*
X92711264Y-58382589D01*
X92711264Y-58382589D02*
X92710733Y-58382406D01*
X92710733Y-58382406D02*
X92701798Y-58390495D01*
X92701798Y-58390495D02*
X92701798Y-58390495D01*
G36*
X92711264Y-58382589D02*
G01*
X92723493Y-58392637D01*
X92748975Y-58416257D01*
X92785122Y-58450970D01*
X92829346Y-58494295D01*
X92879059Y-58543750D01*
X93040094Y-58705094D01*
X93006212Y-58742909D01*
X93003035Y-58746401D01*
X92981167Y-58769610D01*
X92946821Y-58805356D01*
X92903005Y-58850536D01*
X92852722Y-58902049D01*
X92798980Y-58956792D01*
X92625630Y-59132861D01*
X92005616Y-59132861D01*
X92033917Y-59099226D01*
X92036210Y-59096535D01*
X92056878Y-59073306D01*
X92089636Y-59037466D01*
X92132496Y-58991121D01*
X92183468Y-58936378D01*
X92240564Y-58875343D01*
X92301794Y-58810124D01*
X92365169Y-58742826D01*
X92428702Y-58675556D01*
X92490401Y-58610421D01*
X92548280Y-58549527D01*
X92600347Y-58494981D01*
X92644616Y-58448889D01*
X92679095Y-58413358D01*
X92701798Y-58390495D01*
X92710733Y-58382406D01*
X92711264Y-58382589D01*
G37*
X92711264Y-58382589D02*
X92723493Y-58392637D01*
X92748975Y-58416257D01*
X92785122Y-58450970D01*
X92829346Y-58494295D01*
X92879059Y-58543750D01*
X93040094Y-58705094D01*
X93006212Y-58742909D01*
X93003035Y-58746401D01*
X92981167Y-58769610D01*
X92946821Y-58805356D01*
X92903005Y-58850536D01*
X92852722Y-58902049D01*
X92798980Y-58956792D01*
X92625630Y-59132861D01*
X92005616Y-59132861D01*
X92033917Y-59099226D01*
X92036210Y-59096535D01*
X92056878Y-59073306D01*
X92089636Y-59037466D01*
X92132496Y-58991121D01*
X92183468Y-58936378D01*
X92240564Y-58875343D01*
X92301794Y-58810124D01*
X92365169Y-58742826D01*
X92428702Y-58675556D01*
X92490401Y-58610421D01*
X92548280Y-58549527D01*
X92600347Y-58494981D01*
X92644616Y-58448889D01*
X92679095Y-58413358D01*
X92701798Y-58390495D01*
X92710733Y-58382406D01*
X92711264Y-58382589D01*
X91303544Y-56849747D02*
X91303352Y-56953987D01*
X91303352Y-56953987D02*
X91302863Y-57050732D01*
X91302863Y-57050732D02*
X91302113Y-57137618D01*
X91302113Y-57137618D02*
X91301137Y-57212280D01*
X91301137Y-57212280D02*
X91299968Y-57272355D01*
X91299968Y-57272355D02*
X91298641Y-57315478D01*
X91298641Y-57315478D02*
X91297192Y-57339285D01*
X91297192Y-57339285D02*
X91296284Y-57343315D01*
X91296284Y-57343315D02*
X91283853Y-57337001D01*
X91283853Y-57337001D02*
X91259007Y-57320658D01*
X91259007Y-57320658D02*
X91234873Y-57303456D01*
X91234873Y-57303456D02*
X91120176Y-57232734D01*
X91120176Y-57232734D02*
X90997960Y-57183630D01*
X90997960Y-57183630D02*
X90867577Y-57155954D01*
X90867577Y-57155954D02*
X90728376Y-57149516D01*
X90728376Y-57149516D02*
X90710564Y-57150184D01*
X90710564Y-57150184D02*
X90620929Y-57156736D01*
X90620929Y-57156736D02*
X90544446Y-57168673D01*
X90544446Y-57168673D02*
X90472794Y-57188165D01*
X90472794Y-57188165D02*
X90397656Y-57217382D01*
X90397656Y-57217382D02*
X90327805Y-57250021D01*
X90327805Y-57250021D02*
X90199872Y-57325314D01*
X90199872Y-57325314D02*
X90086952Y-57417294D01*
X90086952Y-57417294D02*
X89990058Y-57524283D01*
X89990058Y-57524283D02*
X89910200Y-57644608D01*
X89910200Y-57644608D02*
X89848390Y-57776593D01*
X89848390Y-57776593D02*
X89805638Y-57918562D01*
X89805638Y-57918562D02*
X89782957Y-58068841D01*
X89782957Y-58068841D02*
X89779396Y-58158511D01*
X89779396Y-58158511D02*
X89789687Y-58310989D01*
X89789687Y-58310989D02*
X89821043Y-58455553D01*
X89821043Y-58455553D02*
X89874188Y-58594789D01*
X89874188Y-58594789D02*
X89931443Y-58701708D01*
X89931443Y-58701708D02*
X90017155Y-58822001D01*
X90017155Y-58822001D02*
X90118768Y-58926850D01*
X90118768Y-58926850D02*
X90234101Y-59015172D01*
X90234101Y-59015172D02*
X90360976Y-59085886D01*
X90360976Y-59085886D02*
X90497212Y-59137909D01*
X90497212Y-59137909D02*
X90640631Y-59170162D01*
X90640631Y-59170162D02*
X90789052Y-59181561D01*
X90789052Y-59181561D02*
X90889298Y-59177078D01*
X90889298Y-59177078D02*
X91033906Y-59152197D01*
X91033906Y-59152197D02*
X91174474Y-59105922D01*
X91174474Y-59105922D02*
X91307647Y-59039943D01*
X91307647Y-59039943D02*
X91430067Y-58955946D01*
X91430067Y-58955946D02*
X91538379Y-58855620D01*
X91538379Y-58855620D02*
X91546773Y-58846454D01*
X91546773Y-58846454D02*
X91627904Y-58742334D01*
X91627904Y-58742334D02*
X91697596Y-58624152D01*
X91697596Y-58624152D02*
X91752762Y-58498289D01*
X91752762Y-58498289D02*
X91790315Y-58371129D01*
X91790315Y-58371129D02*
X91799184Y-58324679D01*
X91799184Y-58324679D02*
X91801797Y-58296284D01*
X91801797Y-58296284D02*
X91804142Y-58246212D01*
X91804142Y-58246212D02*
X91805611Y-58195878D01*
X91805611Y-58195878D02*
X91309273Y-58195878D01*
X91309273Y-58195878D02*
X91298701Y-58293427D01*
X91298701Y-58293427D02*
X91268269Y-58387446D01*
X91268269Y-58387446D02*
X91239615Y-58441591D01*
X91239615Y-58441591D02*
X91172681Y-58529874D01*
X91172681Y-58529874D02*
X91093200Y-58600751D01*
X91093200Y-58600751D02*
X91003768Y-58653244D01*
X91003768Y-58653244D02*
X90906982Y-58686376D01*
X90906982Y-58686376D02*
X90805441Y-58699170D01*
X90805441Y-58699170D02*
X90701740Y-58690649D01*
X90701740Y-58690649D02*
X90628913Y-58671361D01*
X90628913Y-58671361D02*
X90585916Y-58655275D01*
X90585916Y-58655275D02*
X90545011Y-58637915D01*
X90545011Y-58637915D02*
X90528844Y-58630139D01*
X90528844Y-58630139D02*
X90483558Y-58599135D01*
X90483558Y-58599135D02*
X90434235Y-58552941D01*
X90434235Y-58552941D02*
X90386178Y-58497485D01*
X90386178Y-58497485D02*
X90344693Y-58438691D01*
X90344693Y-58438691D02*
X90323205Y-58400364D01*
X90323205Y-58400364D02*
X90303024Y-58356118D01*
X90303024Y-58356118D02*
X90290379Y-58317510D01*
X90290379Y-58317510D02*
X90283022Y-58275218D01*
X90283022Y-58275218D02*
X90278704Y-58219915D01*
X90278704Y-58219915D02*
X90278422Y-58214625D01*
X90278422Y-58214625D02*
X90281790Y-58107380D01*
X90281790Y-58107380D02*
X90304646Y-58009488D01*
X90304646Y-58009488D02*
X90348298Y-57916065D01*
X90348298Y-57916065D02*
X90366068Y-57887536D01*
X90366068Y-57887536D02*
X90430610Y-57809632D01*
X90430610Y-57809632D02*
X90509427Y-57747462D01*
X90509427Y-57747462D02*
X90599063Y-57701966D01*
X90599063Y-57701966D02*
X90696062Y-57674088D01*
X90696062Y-57674088D02*
X90796966Y-57664768D01*
X90796966Y-57664768D02*
X90898318Y-57674950D01*
X90898318Y-57674950D02*
X90996664Y-57705575D01*
X90996664Y-57705575D02*
X91010667Y-57711861D01*
X91010667Y-57711861D02*
X91098619Y-57764810D01*
X91098619Y-57764810D02*
X91172609Y-57833024D01*
X91172609Y-57833024D02*
X91231652Y-57913370D01*
X91231652Y-57913370D02*
X91274765Y-58002717D01*
X91274765Y-58002717D02*
X91300967Y-58097930D01*
X91300967Y-58097930D02*
X91309273Y-58195878D01*
X91309273Y-58195878D02*
X91805611Y-58195878D01*
X91805611Y-58195878D02*
X91806195Y-58175875D01*
X91806195Y-58175875D02*
X91807934Y-58086686D01*
X91807934Y-58086686D02*
X91809337Y-57980057D01*
X91809337Y-57980057D02*
X91810381Y-57857401D01*
X91810381Y-57857401D02*
X91811045Y-57720129D01*
X91811045Y-57720129D02*
X91811306Y-57569655D01*
X91811306Y-57569655D02*
X91811309Y-57557919D01*
X91811309Y-57557919D02*
X91811396Y-56866205D01*
X91811396Y-56866205D02*
X91303692Y-56356179D01*
X91303692Y-56356179D02*
X91303544Y-56849747D01*
X91303544Y-56849747D02*
X91303544Y-56849747D01*
G36*
X91801797Y-58296284D02*
G01*
X91799184Y-58324679D01*
X91790315Y-58371129D01*
X91752762Y-58498289D01*
X91697596Y-58624152D01*
X91627904Y-58742334D01*
X91546773Y-58846454D01*
X91538379Y-58855620D01*
X91430067Y-58955946D01*
X91307647Y-59039943D01*
X91174474Y-59105922D01*
X91033906Y-59152197D01*
X90889298Y-59177078D01*
X90789052Y-59181561D01*
X90640631Y-59170162D01*
X90497212Y-59137909D01*
X90360976Y-59085886D01*
X90234101Y-59015172D01*
X90118768Y-58926850D01*
X90017155Y-58822001D01*
X89931443Y-58701708D01*
X89874188Y-58594789D01*
X89821043Y-58455553D01*
X89789687Y-58310989D01*
X89783183Y-58214625D01*
X90278422Y-58214625D01*
X90278704Y-58219915D01*
X90283022Y-58275218D01*
X90290379Y-58317510D01*
X90303024Y-58356118D01*
X90323205Y-58400364D01*
X90344693Y-58438691D01*
X90386178Y-58497485D01*
X90434235Y-58552941D01*
X90483558Y-58599135D01*
X90528844Y-58630139D01*
X90545011Y-58637915D01*
X90585916Y-58655275D01*
X90628913Y-58671361D01*
X90701740Y-58690649D01*
X90805441Y-58699170D01*
X90906982Y-58686376D01*
X91003768Y-58653244D01*
X91093200Y-58600751D01*
X91172681Y-58529874D01*
X91239615Y-58441591D01*
X91268269Y-58387446D01*
X91298701Y-58293427D01*
X91309273Y-58195878D01*
X91300967Y-58097930D01*
X91274765Y-58002717D01*
X91231652Y-57913370D01*
X91172609Y-57833024D01*
X91098619Y-57764810D01*
X91010667Y-57711861D01*
X90996664Y-57705575D01*
X90898318Y-57674950D01*
X90796966Y-57664768D01*
X90696062Y-57674088D01*
X90599063Y-57701966D01*
X90509427Y-57747462D01*
X90430610Y-57809632D01*
X90366068Y-57887536D01*
X90348298Y-57916065D01*
X90304646Y-58009488D01*
X90281790Y-58107380D01*
X90278422Y-58214625D01*
X89783183Y-58214625D01*
X89779396Y-58158511D01*
X89782957Y-58068841D01*
X89805638Y-57918562D01*
X89848390Y-57776593D01*
X89910200Y-57644608D01*
X89990058Y-57524283D01*
X90086952Y-57417294D01*
X90199872Y-57325314D01*
X90327805Y-57250021D01*
X90397656Y-57217382D01*
X90472794Y-57188165D01*
X90544446Y-57168673D01*
X90620929Y-57156736D01*
X90710564Y-57150184D01*
X90728376Y-57149516D01*
X90867577Y-57155954D01*
X90997960Y-57183630D01*
X91120176Y-57232734D01*
X91234873Y-57303456D01*
X91259007Y-57320658D01*
X91283853Y-57337001D01*
X91296284Y-57343315D01*
X91297192Y-57339285D01*
X91298641Y-57315478D01*
X91299968Y-57272355D01*
X91301137Y-57212280D01*
X91302113Y-57137618D01*
X91302863Y-57050732D01*
X91303352Y-56953987D01*
X91303544Y-56849747D01*
X91303692Y-56356179D01*
X91811396Y-56866205D01*
X91811309Y-57557919D01*
X91811306Y-57569655D01*
X91811045Y-57720129D01*
X91810381Y-57857401D01*
X91809337Y-57980057D01*
X91807934Y-58086686D01*
X91806195Y-58175875D01*
X91805611Y-58195878D01*
X91804142Y-58246212D01*
X91801797Y-58296284D01*
G37*
X91801797Y-58296284D02*
X91799184Y-58324679D01*
X91790315Y-58371129D01*
X91752762Y-58498289D01*
X91697596Y-58624152D01*
X91627904Y-58742334D01*
X91546773Y-58846454D01*
X91538379Y-58855620D01*
X91430067Y-58955946D01*
X91307647Y-59039943D01*
X91174474Y-59105922D01*
X91033906Y-59152197D01*
X90889298Y-59177078D01*
X90789052Y-59181561D01*
X90640631Y-59170162D01*
X90497212Y-59137909D01*
X90360976Y-59085886D01*
X90234101Y-59015172D01*
X90118768Y-58926850D01*
X90017155Y-58822001D01*
X89931443Y-58701708D01*
X89874188Y-58594789D01*
X89821043Y-58455553D01*
X89789687Y-58310989D01*
X89783183Y-58214625D01*
X90278422Y-58214625D01*
X90278704Y-58219915D01*
X90283022Y-58275218D01*
X90290379Y-58317510D01*
X90303024Y-58356118D01*
X90323205Y-58400364D01*
X90344693Y-58438691D01*
X90386178Y-58497485D01*
X90434235Y-58552941D01*
X90483558Y-58599135D01*
X90528844Y-58630139D01*
X90545011Y-58637915D01*
X90585916Y-58655275D01*
X90628913Y-58671361D01*
X90701740Y-58690649D01*
X90805441Y-58699170D01*
X90906982Y-58686376D01*
X91003768Y-58653244D01*
X91093200Y-58600751D01*
X91172681Y-58529874D01*
X91239615Y-58441591D01*
X91268269Y-58387446D01*
X91298701Y-58293427D01*
X91309273Y-58195878D01*
X91300967Y-58097930D01*
X91274765Y-58002717D01*
X91231652Y-57913370D01*
X91172609Y-57833024D01*
X91098619Y-57764810D01*
X91010667Y-57711861D01*
X90996664Y-57705575D01*
X90898318Y-57674950D01*
X90796966Y-57664768D01*
X90696062Y-57674088D01*
X90599063Y-57701966D01*
X90509427Y-57747462D01*
X90430610Y-57809632D01*
X90366068Y-57887536D01*
X90348298Y-57916065D01*
X90304646Y-58009488D01*
X90281790Y-58107380D01*
X90278422Y-58214625D01*
X89783183Y-58214625D01*
X89779396Y-58158511D01*
X89782957Y-58068841D01*
X89805638Y-57918562D01*
X89848390Y-57776593D01*
X89910200Y-57644608D01*
X89990058Y-57524283D01*
X90086952Y-57417294D01*
X90199872Y-57325314D01*
X90327805Y-57250021D01*
X90397656Y-57217382D01*
X90472794Y-57188165D01*
X90544446Y-57168673D01*
X90620929Y-57156736D01*
X90710564Y-57150184D01*
X90728376Y-57149516D01*
X90867577Y-57155954D01*
X90997960Y-57183630D01*
X91120176Y-57232734D01*
X91234873Y-57303456D01*
X91259007Y-57320658D01*
X91283853Y-57337001D01*
X91296284Y-57343315D01*
X91297192Y-57339285D01*
X91298641Y-57315478D01*
X91299968Y-57272355D01*
X91301137Y-57212280D01*
X91302113Y-57137618D01*
X91302863Y-57050732D01*
X91303352Y-56953987D01*
X91303544Y-56849747D01*
X91303692Y-56356179D01*
X91811396Y-56866205D01*
X91811309Y-57557919D01*
X91811306Y-57569655D01*
X91811045Y-57720129D01*
X91810381Y-57857401D01*
X91809337Y-57980057D01*
X91807934Y-58086686D01*
X91806195Y-58175875D01*
X91805611Y-58195878D01*
X91804142Y-58246212D01*
X91801797Y-58296284D01*
X93508578Y-57983964D02*
X92705632Y-57181264D01*
X92705632Y-57181264D02*
X92417264Y-57184358D01*
X92417264Y-57184358D02*
X92128896Y-57187451D01*
X92128896Y-57187451D02*
X92976120Y-58047588D01*
X92976120Y-58047588D02*
X93094045Y-58167311D01*
X93094045Y-58167311D02*
X93208844Y-58283860D01*
X93208844Y-58283860D02*
X93319298Y-58396000D01*
X93319298Y-58396000D02*
X93424190Y-58502493D01*
X93424190Y-58502493D02*
X93522302Y-58602104D01*
X93522302Y-58602104D02*
X93612417Y-58693597D01*
X93612417Y-58693597D02*
X93693316Y-58775734D01*
X93693316Y-58775734D02*
X93763783Y-58847279D01*
X93763783Y-58847279D02*
X93822599Y-58906997D01*
X93822599Y-58906997D02*
X93868546Y-58953651D01*
X93868546Y-58953651D02*
X93900407Y-58986004D01*
X93900407Y-58986004D02*
X93914188Y-59000000D01*
X93914188Y-59000000D02*
X94005032Y-59092276D01*
X94005032Y-59092276D02*
X94005032Y-56350406D01*
X94005032Y-56350406D02*
X93508578Y-56350406D01*
X93508578Y-56350406D02*
X93508578Y-57983964D01*
X93508578Y-57983964D02*
X93508578Y-57983964D01*
G36*
X94005032Y-59092276D02*
G01*
X93914188Y-59000000D01*
X93900407Y-58986004D01*
X93868546Y-58953651D01*
X93822599Y-58906997D01*
X93763783Y-58847279D01*
X93693316Y-58775734D01*
X93612417Y-58693597D01*
X93522302Y-58602104D01*
X93424190Y-58502493D01*
X93319298Y-58396000D01*
X93208844Y-58283860D01*
X93094045Y-58167311D01*
X92976120Y-58047588D01*
X92128896Y-57187451D01*
X92417264Y-57184358D01*
X92705632Y-57181264D01*
X93508578Y-57983964D01*
X93508578Y-56350406D01*
X94005032Y-56350406D01*
X94005032Y-59092276D01*
G37*
X94005032Y-59092276D02*
X93914188Y-59000000D01*
X93900407Y-58986004D01*
X93868546Y-58953651D01*
X93822599Y-58906997D01*
X93763783Y-58847279D01*
X93693316Y-58775734D01*
X93612417Y-58693597D01*
X93522302Y-58602104D01*
X93424190Y-58502493D01*
X93319298Y-58396000D01*
X93208844Y-58283860D01*
X93094045Y-58167311D01*
X92976120Y-58047588D01*
X92128896Y-57187451D01*
X92417264Y-57184358D01*
X92705632Y-57181264D01*
X93508578Y-57983964D01*
X93508578Y-56350406D01*
X94005032Y-56350406D01*
X94005032Y-59092276D01*
D10*
X19185000Y-76130000D02*
X20185000Y-76130000D01*
X19185000Y-90130000D02*
X19185000Y-89130000D01*
X33185000Y-81630000D02*
X33185000Y-81130000D01*
X24185000Y-78930000D02*
X24685000Y-79430000D01*
X28685000Y-81630000D02*
X33185000Y-81630000D01*
X28185000Y-76430000D02*
X28185000Y-75430000D01*
X33185000Y-90130000D02*
X32185000Y-90130000D01*
X19185000Y-77130000D02*
X19185000Y-76130000D01*
X33185000Y-89130000D02*
X33185000Y-90130000D01*
X27685000Y-74930000D02*
X28185000Y-75430000D01*
X24685000Y-79430000D02*
X27185000Y-79430000D01*
X24185000Y-75430000D02*
X24685000Y-74930000D01*
X33185000Y-76130000D02*
X33185000Y-77130000D01*
X32185000Y-76130000D02*
X33185000Y-76130000D01*
X33185000Y-77530000D02*
X33185000Y-76930000D01*
X28685000Y-80930000D02*
X28685000Y-81630000D01*
X33185000Y-76930000D02*
X28685000Y-76930000D01*
X20185000Y-90130000D02*
X19185000Y-90130000D01*
X24685000Y-74930000D02*
X27685000Y-74930000D01*
X28185000Y-76430000D02*
G75*
G03*
X28685000Y-76930000I500001J1D01*
G01*
X28685000Y-80930000D02*
G75*
G03*
X27185000Y-79430000I-1500001J-1D01*
G01*
X33200000Y-71270000D02*
X33200000Y-72270000D01*
X23700000Y-66770000D02*
X19200000Y-66770000D01*
X27700000Y-68970000D02*
X25200000Y-68970000D01*
X20200000Y-72270000D02*
X19200000Y-72270000D01*
X33200000Y-58270000D02*
X33200000Y-59270000D01*
X33200000Y-72270000D02*
X32200000Y-72270000D01*
X24200000Y-71970000D02*
X24200000Y-72970000D01*
X24700000Y-73470000D02*
X24200000Y-72970000D01*
X19200000Y-70870000D02*
X19200000Y-71470000D01*
X19200000Y-58270000D02*
X20200000Y-58270000D01*
X23700000Y-67470000D02*
X23700000Y-66770000D01*
X32200000Y-58270000D02*
X33200000Y-58270000D01*
X19200000Y-66770000D02*
X19200000Y-67270000D01*
X27700000Y-73470000D02*
X24700000Y-73470000D01*
X28200000Y-69470000D02*
X27700000Y-68970000D01*
X19200000Y-72270000D02*
X19200000Y-71270000D01*
X19200000Y-59270000D02*
X19200000Y-58270000D01*
X28200000Y-72970000D02*
X27700000Y-73470000D01*
X19200000Y-71470000D02*
X23700000Y-71470000D01*
X23700000Y-67470000D02*
G75*
G03*
X25200000Y-68970000I1500001J1D01*
G01*
X24200000Y-71970000D02*
G75*
G03*
X23700000Y-71470000I-500001J-1D01*
G01*
X24750000Y-39300000D02*
X27750000Y-39300000D01*
X28750000Y-46000000D02*
X33250000Y-46000000D01*
X24750000Y-43800000D02*
X27250000Y-43800000D01*
X20250000Y-54500000D02*
X19250000Y-54500000D01*
X24250000Y-39800000D02*
X24750000Y-39300000D01*
X33250000Y-40500000D02*
X33250000Y-41500000D01*
X33250000Y-41900000D02*
X33250000Y-41300000D01*
X24250000Y-43300000D02*
X24750000Y-43800000D01*
X33250000Y-53500000D02*
X33250000Y-54500000D01*
X19250000Y-40500000D02*
X20250000Y-40500000D01*
X33250000Y-54500000D02*
X32250000Y-54500000D01*
X28750000Y-45300000D02*
X28750000Y-46000000D01*
X32250000Y-40500000D02*
X33250000Y-40500000D01*
X33250000Y-46000000D02*
X33250000Y-45500000D01*
X19250000Y-54500000D02*
X19250000Y-53500000D01*
X33250000Y-41300000D02*
X28750000Y-41300000D01*
X19250000Y-41500000D02*
X19250000Y-40500000D01*
X28250000Y-40800000D02*
X28250000Y-39800000D01*
X27750000Y-39300000D02*
X28250000Y-39800000D01*
X28750000Y-45300000D02*
G75*
G03*
X27250000Y-43800000I-1500001J-1D01*
G01*
X28250000Y-40800000D02*
G75*
G03*
X28750000Y-41300000I500001J1D01*
G01*
X145168620Y-75819000D02*
X142882620Y-75819000D01*
X145168620Y-77597000D02*
X145168620Y-75819000D01*
X142882620Y-75819000D02*
X142882620Y-77597000D01*
X142882620Y-77597000D02*
X145168620Y-77597000D01*
X140081000Y-76327000D02*
X137795000Y-76327000D01*
X137795000Y-76327000D02*
X137795000Y-78105000D01*
X137795000Y-78105000D02*
X140081000Y-78105000D01*
X140081000Y-78105000D02*
X140081000Y-76327000D01*
X145415000Y-77343000D02*
X147701000Y-77343000D01*
X147701000Y-77343000D02*
X147701000Y-75565000D01*
X145415000Y-75565000D02*
X145415000Y-77343000D01*
X147701000Y-75565000D02*
X145415000Y-75565000D01*
X142628620Y-78105000D02*
X142628620Y-76327000D01*
X140342620Y-76327000D02*
X140342620Y-78105000D01*
X140342620Y-78105000D02*
X142628620Y-78105000D01*
X142628620Y-76327000D02*
X140342620Y-76327000D01*
%LPC*%
D14*
X141223480Y-63770000D02*
G75*
G03*
X141223480Y-63770000I-125000J0D01*
G01*
X141223480Y-43450000D02*
G75*
G03*
X141223480Y-43450000I-125000J0D01*
G01*
X139699480Y-56150000D02*
G75*
G03*
X139699480Y-56150000I-125000J0D01*
G01*
X141223480Y-40910000D02*
G75*
G03*
X141223480Y-40910000I-125000J0D01*
G01*
X139699480Y-30750000D02*
G75*
G03*
X139699480Y-30750000I-125000J0D01*
G01*
X139699480Y-40910000D02*
G75*
G03*
X139699480Y-40910000I-125000J0D01*
G01*
X139699480Y-63770000D02*
G75*
G03*
X139699480Y-63770000I-125000J0D01*
G01*
X139699480Y-28210000D02*
G75*
G03*
X139699480Y-28210000I-125000J0D01*
G01*
X139699480Y-48530000D02*
G75*
G03*
X139699480Y-48530000I-125000J0D01*
G01*
X141223480Y-51070000D02*
G75*
G03*
X141223480Y-51070000I-125000J0D01*
G01*
X139699480Y-51070000D02*
G75*
G03*
X139699480Y-51070000I-125000J0D01*
G01*
X141223480Y-61230000D02*
G75*
G03*
X141223480Y-61230000I-125000J0D01*
G01*
X139699480Y-73930000D02*
G75*
G03*
X139699480Y-73930000I-125000J0D01*
G01*
X139699480Y-35830000D02*
G75*
G03*
X139699480Y-35830000I-125000J0D01*
G01*
X141223480Y-56150000D02*
G75*
G03*
X141223480Y-56150000I-125000J0D01*
G01*
X139699480Y-43450000D02*
G75*
G03*
X139699480Y-43450000I-125000J0D01*
G01*
X141223480Y-68850000D02*
G75*
G03*
X141223480Y-68850000I-125000J0D01*
G01*
X139699480Y-71390000D02*
G75*
G03*
X139699480Y-71390000I-125000J0D01*
G01*
X141223480Y-30750000D02*
G75*
G03*
X141223480Y-30750000I-125000J0D01*
G01*
X139699480Y-61230000D02*
G75*
G03*
X139699480Y-61230000I-125000J0D01*
G01*
X141223480Y-35830000D02*
G75*
G03*
X141223480Y-35830000I-125000J0D01*
G01*
X139699480Y-66310000D02*
G75*
G03*
X139699480Y-66310000I-125000J0D01*
G01*
X141223480Y-28210000D02*
G75*
G03*
X141223480Y-28210000I-125000J0D01*
G01*
X141223480Y-48530000D02*
G75*
G03*
X141223480Y-48530000I-125000J0D01*
G01*
X141223480Y-53610000D02*
G75*
G03*
X141223480Y-53610000I-125000J0D01*
G01*
X141223480Y-66310000D02*
G75*
G03*
X141223480Y-66310000I-125000J0D01*
G01*
X141223480Y-71390000D02*
G75*
G03*
X141223480Y-71390000I-125000J0D01*
G01*
X139699480Y-68850000D02*
G75*
G03*
X139699480Y-68850000I-125000J0D01*
G01*
X141223480Y-38370000D02*
G75*
G03*
X141223480Y-38370000I-125000J0D01*
G01*
X139699480Y-53610000D02*
G75*
G03*
X139699480Y-53610000I-125000J0D01*
G01*
X141223480Y-73930000D02*
G75*
G03*
X141223480Y-73930000I-125000J0D01*
G01*
X139699480Y-38370000D02*
G75*
G03*
X139699480Y-38370000I-125000J0D01*
G01*
D13*
X94361880Y-84199344D02*
X94184150Y-84206647D01*
X94184150Y-84206647D02*
X94032351Y-84218682D01*
X94032351Y-84218682D02*
X93988623Y-84223847D01*
X93988623Y-84223847D02*
X93533178Y-84304065D01*
X93533178Y-84304065D02*
X93092408Y-84422516D01*
X93092408Y-84422516D02*
X92668242Y-84577522D01*
X92668242Y-84577522D02*
X92262606Y-84767405D01*
X92262606Y-84767405D02*
X91877431Y-84990487D01*
X91877431Y-84990487D02*
X91514643Y-85245090D01*
X91514643Y-85245090D02*
X91176171Y-85529536D01*
X91176171Y-85529536D02*
X90863944Y-85842148D01*
X90863944Y-85842148D02*
X90579889Y-86181246D01*
X90579889Y-86181246D02*
X90325935Y-86545153D01*
X90325935Y-86545153D02*
X90104010Y-86932192D01*
X90104010Y-86932192D02*
X89916042Y-87340683D01*
X89916042Y-87340683D02*
X89763960Y-87768950D01*
X89763960Y-87768950D02*
X89714066Y-87943694D01*
X89714066Y-87943694D02*
X89659694Y-88161536D01*
X89659694Y-88161536D02*
X89618306Y-88361963D01*
X89618306Y-88361963D02*
X89588145Y-88557809D01*
X89588145Y-88557809D02*
X89567456Y-88761908D01*
X89567456Y-88761908D02*
X89554481Y-88987097D01*
X89554481Y-88987097D02*
X89549454Y-89146523D01*
X89549454Y-89146523D02*
X89548896Y-89485415D01*
X89548896Y-89485415D02*
X89565337Y-89796549D01*
X89565337Y-89796549D02*
X89600497Y-90091648D01*
X89600497Y-90091648D02*
X89656099Y-90382434D01*
X89656099Y-90382434D02*
X89733863Y-90680631D01*
X89733863Y-90680631D02*
X89810547Y-90924523D01*
X89810547Y-90924523D02*
X89974390Y-91348632D01*
X89974390Y-91348632D02*
X90175653Y-91753240D01*
X90175653Y-91753240D02*
X90414522Y-92138642D01*
X90414522Y-92138642D02*
X90691181Y-92505136D01*
X90691181Y-92505136D02*
X91005818Y-92853019D01*
X91005818Y-92853019D02*
X91035446Y-92882867D01*
X91035446Y-92882867D02*
X91307584Y-93139574D01*
X91307584Y-93139574D02*
X91578859Y-93362657D01*
X91578859Y-93362657D02*
X91859380Y-93559374D01*
X91859380Y-93559374D02*
X92159257Y-93736986D01*
X92159257Y-93736986D02*
X92390540Y-93855999D01*
X92390540Y-93855999D02*
X92816960Y-94041431D01*
X92816960Y-94041431D02*
X93251288Y-94185846D01*
X93251288Y-94185846D02*
X93696997Y-94290328D01*
X93696997Y-94290328D02*
X93882790Y-94321717D01*
X93882790Y-94321717D02*
X94005604Y-94336165D01*
X94005604Y-94336165D02*
X94159081Y-94348024D01*
X94159081Y-94348024D02*
X94332472Y-94357027D01*
X94332472Y-94357027D02*
X94515031Y-94362902D01*
X94515031Y-94362902D02*
X94696009Y-94365380D01*
X94696009Y-94365380D02*
X94864658Y-94364192D01*
X94864658Y-94364192D02*
X95010233Y-94359067D01*
X95010233Y-94359067D02*
X95099873Y-94352266D01*
X95099873Y-94352266D02*
X95559452Y-94283921D01*
X95559452Y-94283921D02*
X96005921Y-94176443D01*
X96005921Y-94176443D02*
X96437185Y-94031259D01*
X96437185Y-94031259D02*
X96851147Y-93849802D01*
X96851147Y-93849802D02*
X97245713Y-93633500D01*
X97245713Y-93633500D02*
X97618785Y-93383785D01*
X97618785Y-93383785D02*
X97968268Y-93102086D01*
X97968268Y-93102086D02*
X98292066Y-92789834D01*
X98292066Y-92789834D02*
X98588083Y-92448458D01*
X98588083Y-92448458D02*
X98854223Y-92079390D01*
X98854223Y-92079390D02*
X99088390Y-91684059D01*
X99088390Y-91684059D02*
X99131676Y-91601040D01*
X99131676Y-91601040D02*
X99314825Y-91201799D01*
X99314825Y-91201799D02*
X99461659Y-90791996D01*
X99461659Y-90791996D02*
X99574747Y-90363909D01*
X99574747Y-90363909D02*
X99621202Y-90130773D01*
X99621202Y-90130773D02*
X99640998Y-89991076D01*
X99640998Y-89991076D02*
X99657193Y-89819646D01*
X99657193Y-89819646D02*
X99669480Y-89626951D01*
X99669480Y-89626951D02*
X99677553Y-89423464D01*
X99677553Y-89423464D02*
X99679999Y-89283060D01*
X99679999Y-89283060D02*
X99043687Y-89283060D01*
X99043687Y-89283060D02*
X99039911Y-89488733D01*
X99039911Y-89488733D02*
X99030190Y-89685999D01*
X99030190Y-89685999D02*
X99014725Y-89863483D01*
X99014725Y-89863483D02*
X98994828Y-90003773D01*
X98994828Y-90003773D02*
X98894791Y-90444654D01*
X98894791Y-90444654D02*
X98759243Y-90862530D01*
X98759243Y-90862530D02*
X98588073Y-91257617D01*
X98588073Y-91257617D02*
X98381163Y-91630134D01*
X98381163Y-91630134D02*
X98138400Y-91980298D01*
X98138400Y-91980298D02*
X97859669Y-92308328D01*
X97859669Y-92308328D02*
X97690075Y-92480273D01*
X97690075Y-92480273D02*
X97362681Y-92767224D01*
X97362681Y-92767224D02*
X97014434Y-93018584D01*
X97014434Y-93018584D02*
X96647641Y-93233457D01*
X96647641Y-93233457D02*
X96264608Y-93410945D01*
X96264608Y-93410945D02*
X95867642Y-93550151D01*
X95867642Y-93550151D02*
X95459049Y-93650178D01*
X95459049Y-93650178D02*
X95041136Y-93710128D01*
X95041136Y-93710128D02*
X94616208Y-93729106D01*
X94616208Y-93729106D02*
X94486040Y-93726618D01*
X94486040Y-93726618D02*
X94353848Y-93720234D01*
X94353848Y-93720234D02*
X94213721Y-93710321D01*
X94213721Y-93710321D02*
X94082484Y-93698240D01*
X94082484Y-93698240D02*
X93978040Y-93685511D01*
X93978040Y-93685511D02*
X93557866Y-93602716D01*
X93557866Y-93602716D02*
X93149003Y-93479955D01*
X93149003Y-93479955D02*
X92754404Y-93318762D01*
X92754404Y-93318762D02*
X92377025Y-93120673D01*
X92377025Y-93120673D02*
X92019818Y-92887222D01*
X92019818Y-92887222D02*
X91685737Y-92619943D01*
X91685737Y-92619943D02*
X91404170Y-92348463D01*
X91404170Y-92348463D02*
X91140507Y-92045345D01*
X91140507Y-92045345D02*
X90909307Y-91724289D01*
X90909307Y-91724289D02*
X90705187Y-91377414D01*
X90705187Y-91377414D02*
X90605151Y-91178323D01*
X90605151Y-91178323D02*
X90440571Y-90783858D01*
X90440571Y-90783858D02*
X90315873Y-90378259D01*
X90315873Y-90378259D02*
X90231035Y-89964525D01*
X90231035Y-89964525D02*
X90186035Y-89545655D01*
X90186035Y-89545655D02*
X90180849Y-89124647D01*
X90180849Y-89124647D02*
X90215457Y-88704500D01*
X90215457Y-88704500D02*
X90289835Y-88288213D01*
X90289835Y-88288213D02*
X90403961Y-87878784D01*
X90403961Y-87878784D02*
X90557812Y-87479212D01*
X90557812Y-87479212D02*
X90633999Y-87315606D01*
X90633999Y-87315606D02*
X90842904Y-86936769D01*
X90842904Y-86936769D02*
X91084416Y-86583732D01*
X91084416Y-86583732D02*
X91356445Y-86258047D01*
X91356445Y-86258047D02*
X91656897Y-85961265D01*
X91656897Y-85961265D02*
X91983680Y-85694938D01*
X91983680Y-85694938D02*
X92334702Y-85460618D01*
X92334702Y-85460618D02*
X92707870Y-85259856D01*
X92707870Y-85259856D02*
X93101093Y-85094205D01*
X93101093Y-85094205D02*
X93512277Y-84965216D01*
X93512277Y-84965216D02*
X93921827Y-84877341D01*
X93921827Y-84877341D02*
X94062043Y-84859630D01*
X94062043Y-84859630D02*
X94233578Y-84847086D01*
X94233578Y-84847086D02*
X94425733Y-84839710D01*
X94425733Y-84839710D02*
X94627810Y-84837502D01*
X94627810Y-84837502D02*
X94829110Y-84840460D01*
X94829110Y-84840460D02*
X95018935Y-84848587D01*
X95018935Y-84848587D02*
X95186587Y-84861881D01*
X95186587Y-84861881D02*
X95304253Y-84877341D01*
X95304253Y-84877341D02*
X95729841Y-84969402D01*
X95729841Y-84969402D02*
X96138151Y-85098867D01*
X96138151Y-85098867D02*
X96527384Y-85263868D01*
X96527384Y-85263868D02*
X96895738Y-85462537D01*
X96895738Y-85462537D02*
X97241415Y-85693009D01*
X97241415Y-85693009D02*
X97562613Y-85953414D01*
X97562613Y-85953414D02*
X97857533Y-86241887D01*
X97857533Y-86241887D02*
X98124376Y-86556559D01*
X98124376Y-86556559D02*
X98361340Y-86895563D01*
X98361340Y-86895563D02*
X98566626Y-87257031D01*
X98566626Y-87257031D02*
X98738435Y-87639098D01*
X98738435Y-87639098D02*
X98874965Y-88039894D01*
X98874965Y-88039894D02*
X98974417Y-88457553D01*
X98974417Y-88457553D02*
X99017331Y-88729340D01*
X99017331Y-88729340D02*
X99032598Y-88891989D01*
X99032598Y-88891989D02*
X99041316Y-89080354D01*
X99041316Y-89080354D02*
X99043687Y-89283060D01*
X99043687Y-89283060D02*
X99679999Y-89283060D01*
X99679999Y-89283060D02*
X99681104Y-89219654D01*
X99681104Y-89219654D02*
X99679825Y-89025992D01*
X99679825Y-89025992D02*
X99673410Y-88852949D01*
X99673410Y-88852949D02*
X99662607Y-88720076D01*
X99662607Y-88720076D02*
X99590061Y-88262199D01*
X99590061Y-88262199D02*
X99478498Y-87817688D01*
X99478498Y-87817688D02*
X99329391Y-87388646D01*
X99329391Y-87388646D02*
X99144213Y-86977175D01*
X99144213Y-86977175D02*
X98924434Y-86585378D01*
X98924434Y-86585378D02*
X98671527Y-86215357D01*
X98671527Y-86215357D02*
X98386965Y-85869216D01*
X98386965Y-85869216D02*
X98072219Y-85549056D01*
X98072219Y-85549056D02*
X97728761Y-85256980D01*
X97728761Y-85256980D02*
X97358064Y-84995091D01*
X97358064Y-84995091D02*
X96961600Y-84765492D01*
X96961600Y-84765492D02*
X96856706Y-84712438D01*
X96856706Y-84712438D02*
X96521039Y-84560047D01*
X96521039Y-84560047D02*
X96189381Y-84436276D01*
X96189381Y-84436276D02*
X95847773Y-84336570D01*
X95847773Y-84336570D02*
X95482255Y-84256377D01*
X95482255Y-84256377D02*
X95427956Y-84246371D01*
X95427956Y-84246371D02*
X95298959Y-84228480D01*
X95298959Y-84228480D02*
X95137516Y-84214407D01*
X95137516Y-84214407D02*
X94953358Y-84204304D01*
X94953358Y-84204304D02*
X94756213Y-84198325D01*
X94756213Y-84198325D02*
X94555810Y-84196621D01*
X94555810Y-84196621D02*
X94361880Y-84199344D01*
X94361880Y-84199344D02*
X94361880Y-84199344D01*
G36*
X99669480Y-89626951D02*
G01*
X99657193Y-89819646D01*
X99640998Y-89991076D01*
X99621202Y-90130773D01*
X99574747Y-90363909D01*
X99461659Y-90791996D01*
X99314825Y-91201799D01*
X99131676Y-91601040D01*
X99088390Y-91684059D01*
X98854223Y-92079390D01*
X98588083Y-92448458D01*
X98292066Y-92789834D01*
X97968268Y-93102086D01*
X97618785Y-93383785D01*
X97245713Y-93633500D01*
X96851147Y-93849802D01*
X96437185Y-94031259D01*
X96005921Y-94176443D01*
X95559452Y-94283921D01*
X95099873Y-94352266D01*
X95010233Y-94359067D01*
X94864658Y-94364192D01*
X94696009Y-94365380D01*
X94515031Y-94362902D01*
X94332472Y-94357027D01*
X94159081Y-94348024D01*
X94005604Y-94336165D01*
X93882790Y-94321717D01*
X93696997Y-94290328D01*
X93251288Y-94185846D01*
X92816960Y-94041431D01*
X92390540Y-93855999D01*
X92159257Y-93736986D01*
X91859380Y-93559374D01*
X91578859Y-93362657D01*
X91307584Y-93139574D01*
X91035446Y-92882867D01*
X91005818Y-92853019D01*
X90691181Y-92505136D01*
X90414522Y-92138642D01*
X90175653Y-91753240D01*
X89974390Y-91348632D01*
X89810547Y-90924523D01*
X89733863Y-90680631D01*
X89656099Y-90382434D01*
X89600497Y-90091648D01*
X89565337Y-89796549D01*
X89548896Y-89485415D01*
X89549454Y-89146523D01*
X89550144Y-89124647D01*
X90180849Y-89124647D01*
X90186035Y-89545655D01*
X90231035Y-89964525D01*
X90315873Y-90378259D01*
X90440571Y-90783858D01*
X90605151Y-91178323D01*
X90705187Y-91377414D01*
X90909307Y-91724289D01*
X91140507Y-92045345D01*
X91404170Y-92348463D01*
X91685737Y-92619943D01*
X92019818Y-92887222D01*
X92377025Y-93120673D01*
X92754404Y-93318762D01*
X93149003Y-93479955D01*
X93557866Y-93602716D01*
X93978040Y-93685511D01*
X94082484Y-93698240D01*
X94213721Y-93710321D01*
X94353848Y-93720234D01*
X94486040Y-93726618D01*
X94616208Y-93729106D01*
X95041136Y-93710128D01*
X95459049Y-93650178D01*
X95867642Y-93550151D01*
X96264608Y-93410945D01*
X96647641Y-93233457D01*
X97014434Y-93018584D01*
X97362681Y-92767224D01*
X97690075Y-92480273D01*
X97859669Y-92308328D01*
X98138400Y-91980298D01*
X98381163Y-91630134D01*
X98588073Y-91257617D01*
X98759243Y-90862530D01*
X98894791Y-90444654D01*
X98994828Y-90003773D01*
X99014725Y-89863483D01*
X99030190Y-89685999D01*
X99039911Y-89488733D01*
X99043687Y-89283060D01*
X99041316Y-89080354D01*
X99032598Y-88891989D01*
X99017331Y-88729340D01*
X98974417Y-88457553D01*
X98874965Y-88039894D01*
X98738435Y-87639098D01*
X98566626Y-87257031D01*
X98361340Y-86895563D01*
X98124376Y-86556559D01*
X97857533Y-86241887D01*
X97562613Y-85953414D01*
X97241415Y-85693009D01*
X96895738Y-85462537D01*
X96527384Y-85263868D01*
X96138151Y-85098867D01*
X95729841Y-84969402D01*
X95304253Y-84877341D01*
X95186587Y-84861881D01*
X95018935Y-84848587D01*
X94829110Y-84840460D01*
X94627810Y-84837502D01*
X94425733Y-84839710D01*
X94233578Y-84847086D01*
X94062043Y-84859630D01*
X93921827Y-84877341D01*
X93512277Y-84965216D01*
X93101093Y-85094205D01*
X92707870Y-85259856D01*
X92334702Y-85460618D01*
X91983680Y-85694938D01*
X91656897Y-85961265D01*
X91356445Y-86258047D01*
X91084416Y-86583732D01*
X90842904Y-86936769D01*
X90633999Y-87315606D01*
X90557812Y-87479212D01*
X90403961Y-87878784D01*
X90289835Y-88288213D01*
X90215457Y-88704500D01*
X90180849Y-89124647D01*
X89550144Y-89124647D01*
X89554481Y-88987097D01*
X89567456Y-88761908D01*
X89588145Y-88557809D01*
X89618306Y-88361963D01*
X89659694Y-88161536D01*
X89714066Y-87943694D01*
X89763960Y-87768950D01*
X89916042Y-87340683D01*
X90104010Y-86932192D01*
X90325935Y-86545153D01*
X90579889Y-86181246D01*
X90863944Y-85842148D01*
X91176171Y-85529536D01*
X91514643Y-85245090D01*
X91877431Y-84990487D01*
X92262606Y-84767405D01*
X92668242Y-84577522D01*
X93092408Y-84422516D01*
X93533178Y-84304065D01*
X93988623Y-84223847D01*
X94032351Y-84218682D01*
X94184150Y-84206647D01*
X94361880Y-84199344D01*
X94555810Y-84196621D01*
X94756213Y-84198325D01*
X94953358Y-84204304D01*
X95137516Y-84214407D01*
X95298959Y-84228480D01*
X95427956Y-84246371D01*
X95482255Y-84256377D01*
X95847773Y-84336570D01*
X96189381Y-84436276D01*
X96521039Y-84560047D01*
X96856706Y-84712438D01*
X96961600Y-84765492D01*
X97358064Y-84995091D01*
X97728761Y-85256980D01*
X98072219Y-85549056D01*
X98386965Y-85869216D01*
X98671527Y-86215357D01*
X98924434Y-86585378D01*
X99144213Y-86977175D01*
X99329391Y-87388646D01*
X99478498Y-87817688D01*
X99590061Y-88262199D01*
X99662607Y-88720076D01*
X99673410Y-88852949D01*
X99679825Y-89025992D01*
X99681104Y-89219654D01*
X99679999Y-89283060D01*
X99677553Y-89423464D01*
X99669480Y-89626951D01*
G37*
X99669480Y-89626951D02*
X99657193Y-89819646D01*
X99640998Y-89991076D01*
X99621202Y-90130773D01*
X99574747Y-90363909D01*
X99461659Y-90791996D01*
X99314825Y-91201799D01*
X99131676Y-91601040D01*
X99088390Y-91684059D01*
X98854223Y-92079390D01*
X98588083Y-92448458D01*
X98292066Y-92789834D01*
X97968268Y-93102086D01*
X97618785Y-93383785D01*
X97245713Y-93633500D01*
X96851147Y-93849802D01*
X96437185Y-94031259D01*
X96005921Y-94176443D01*
X95559452Y-94283921D01*
X95099873Y-94352266D01*
X95010233Y-94359067D01*
X94864658Y-94364192D01*
X94696009Y-94365380D01*
X94515031Y-94362902D01*
X94332472Y-94357027D01*
X94159081Y-94348024D01*
X94005604Y-94336165D01*
X93882790Y-94321717D01*
X93696997Y-94290328D01*
X93251288Y-94185846D01*
X92816960Y-94041431D01*
X92390540Y-93855999D01*
X92159257Y-93736986D01*
X91859380Y-93559374D01*
X91578859Y-93362657D01*
X91307584Y-93139574D01*
X91035446Y-92882867D01*
X91005818Y-92853019D01*
X90691181Y-92505136D01*
X90414522Y-92138642D01*
X90175653Y-91753240D01*
X89974390Y-91348632D01*
X89810547Y-90924523D01*
X89733863Y-90680631D01*
X89656099Y-90382434D01*
X89600497Y-90091648D01*
X89565337Y-89796549D01*
X89548896Y-89485415D01*
X89549454Y-89146523D01*
X89550144Y-89124647D01*
X90180849Y-89124647D01*
X90186035Y-89545655D01*
X90231035Y-89964525D01*
X90315873Y-90378259D01*
X90440571Y-90783858D01*
X90605151Y-91178323D01*
X90705187Y-91377414D01*
X90909307Y-91724289D01*
X91140507Y-92045345D01*
X91404170Y-92348463D01*
X91685737Y-92619943D01*
X92019818Y-92887222D01*
X92377025Y-93120673D01*
X92754404Y-93318762D01*
X93149003Y-93479955D01*
X93557866Y-93602716D01*
X93978040Y-93685511D01*
X94082484Y-93698240D01*
X94213721Y-93710321D01*
X94353848Y-93720234D01*
X94486040Y-93726618D01*
X94616208Y-93729106D01*
X95041136Y-93710128D01*
X95459049Y-93650178D01*
X95867642Y-93550151D01*
X96264608Y-93410945D01*
X96647641Y-93233457D01*
X97014434Y-93018584D01*
X97362681Y-92767224D01*
X97690075Y-92480273D01*
X97859669Y-92308328D01*
X98138400Y-91980298D01*
X98381163Y-91630134D01*
X98588073Y-91257617D01*
X98759243Y-90862530D01*
X98894791Y-90444654D01*
X98994828Y-90003773D01*
X99014725Y-89863483D01*
X99030190Y-89685999D01*
X99039911Y-89488733D01*
X99043687Y-89283060D01*
X99041316Y-89080354D01*
X99032598Y-88891989D01*
X99017331Y-88729340D01*
X98974417Y-88457553D01*
X98874965Y-88039894D01*
X98738435Y-87639098D01*
X98566626Y-87257031D01*
X98361340Y-86895563D01*
X98124376Y-86556559D01*
X97857533Y-86241887D01*
X97562613Y-85953414D01*
X97241415Y-85693009D01*
X96895738Y-85462537D01*
X96527384Y-85263868D01*
X96138151Y-85098867D01*
X95729841Y-84969402D01*
X95304253Y-84877341D01*
X95186587Y-84861881D01*
X95018935Y-84848587D01*
X94829110Y-84840460D01*
X94627810Y-84837502D01*
X94425733Y-84839710D01*
X94233578Y-84847086D01*
X94062043Y-84859630D01*
X93921827Y-84877341D01*
X93512277Y-84965216D01*
X93101093Y-85094205D01*
X92707870Y-85259856D01*
X92334702Y-85460618D01*
X91983680Y-85694938D01*
X91656897Y-85961265D01*
X91356445Y-86258047D01*
X91084416Y-86583732D01*
X90842904Y-86936769D01*
X90633999Y-87315606D01*
X90557812Y-87479212D01*
X90403961Y-87878784D01*
X90289835Y-88288213D01*
X90215457Y-88704500D01*
X90180849Y-89124647D01*
X89550144Y-89124647D01*
X89554481Y-88987097D01*
X89567456Y-88761908D01*
X89588145Y-88557809D01*
X89618306Y-88361963D01*
X89659694Y-88161536D01*
X89714066Y-87943694D01*
X89763960Y-87768950D01*
X89916042Y-87340683D01*
X90104010Y-86932192D01*
X90325935Y-86545153D01*
X90579889Y-86181246D01*
X90863944Y-85842148D01*
X91176171Y-85529536D01*
X91514643Y-85245090D01*
X91877431Y-84990487D01*
X92262606Y-84767405D01*
X92668242Y-84577522D01*
X93092408Y-84422516D01*
X93533178Y-84304065D01*
X93988623Y-84223847D01*
X94032351Y-84218682D01*
X94184150Y-84206647D01*
X94361880Y-84199344D01*
X94555810Y-84196621D01*
X94756213Y-84198325D01*
X94953358Y-84204304D01*
X95137516Y-84214407D01*
X95298959Y-84228480D01*
X95427956Y-84246371D01*
X95482255Y-84256377D01*
X95847773Y-84336570D01*
X96189381Y-84436276D01*
X96521039Y-84560047D01*
X96856706Y-84712438D01*
X96961600Y-84765492D01*
X97358064Y-84995091D01*
X97728761Y-85256980D01*
X98072219Y-85549056D01*
X98386965Y-85869216D01*
X98671527Y-86215357D01*
X98924434Y-86585378D01*
X99144213Y-86977175D01*
X99329391Y-87388646D01*
X99478498Y-87817688D01*
X99590061Y-88262199D01*
X99662607Y-88720076D01*
X99673410Y-88852949D01*
X99679825Y-89025992D01*
X99681104Y-89219654D01*
X99679999Y-89283060D01*
X99677553Y-89423464D01*
X99669480Y-89626951D01*
X94589423Y-85241273D02*
X94588095Y-85264701D01*
X94588095Y-85264701D02*
X94585821Y-85327885D01*
X94585821Y-85327885D02*
X94582668Y-85428259D01*
X94582668Y-85428259D02*
X94578705Y-85563256D01*
X94578705Y-85563256D02*
X94574002Y-85730311D01*
X94574002Y-85730311D02*
X94568625Y-85926857D01*
X94568625Y-85926857D02*
X94562646Y-86150329D01*
X94562646Y-86150329D02*
X94556131Y-86398161D01*
X94556131Y-86398161D02*
X94549150Y-86667787D01*
X94549150Y-86667787D02*
X94541771Y-86956642D01*
X94541771Y-86956642D02*
X94534063Y-87262158D01*
X94534063Y-87262158D02*
X94526096Y-87581772D01*
X94526096Y-87581772D02*
X94518309Y-87897689D01*
X94518309Y-87897689D02*
X94510152Y-88229462D01*
X94510152Y-88229462D02*
X94502213Y-88550301D01*
X94502213Y-88550301D02*
X94494560Y-88857574D01*
X94494560Y-88857574D02*
X94487262Y-89148650D01*
X94487262Y-89148650D02*
X94480385Y-89420896D01*
X94480385Y-89420896D02*
X94473998Y-89671682D01*
X94473998Y-89671682D02*
X94468167Y-89898377D01*
X94468167Y-89898377D02*
X94462961Y-90098347D01*
X94462961Y-90098347D02*
X94458447Y-90268962D01*
X94458447Y-90268962D02*
X94454694Y-90407591D01*
X94454694Y-90407591D02*
X94451768Y-90511601D01*
X94451768Y-90511601D02*
X94449737Y-90578361D01*
X94449737Y-90578361D02*
X94448713Y-90604684D01*
X94448713Y-90604684D02*
X94445767Y-90626080D01*
X94445767Y-90626080D02*
X94438673Y-90635096D01*
X94438673Y-90635096D02*
X94424508Y-90628295D01*
X94424508Y-90628295D02*
X94400351Y-90602237D01*
X94400351Y-90602237D02*
X94363279Y-90553484D01*
X94363279Y-90553484D02*
X94310370Y-90478596D01*
X94310370Y-90478596D02*
X94238703Y-90374135D01*
X94238703Y-90374135D02*
X94182269Y-90291095D01*
X94182269Y-90291095D02*
X94105958Y-90179622D01*
X94105958Y-90179622D02*
X94037580Y-90081644D01*
X94037580Y-90081644D02*
X93980641Y-90002031D01*
X93980641Y-90002031D02*
X93938648Y-89945652D01*
X93938648Y-89945652D02*
X93915110Y-89917376D01*
X93915110Y-89917376D02*
X93911464Y-89915126D01*
X93911464Y-89915126D02*
X93915686Y-89936806D01*
X93915686Y-89936806D02*
X93932575Y-89992641D01*
X93932575Y-89992641D02*
X93960265Y-90077022D01*
X93960265Y-90077022D02*
X93996887Y-90184346D01*
X93996887Y-90184346D02*
X94040575Y-90309004D01*
X94040575Y-90309004D02*
X94071902Y-90396744D01*
X94071902Y-90396744D02*
X94119219Y-90529611D01*
X94119219Y-90529611D02*
X94160762Y-90648719D01*
X94160762Y-90648719D02*
X94194654Y-90748475D01*
X94194654Y-90748475D02*
X94219014Y-90823289D01*
X94219014Y-90823289D02*
X94231965Y-90867569D01*
X94231965Y-90867569D02*
X94233371Y-90877330D01*
X94233371Y-90877330D02*
X94211010Y-90882529D01*
X94211010Y-90882529D02*
X94152432Y-90892811D01*
X94152432Y-90892811D02*
X94063326Y-90907270D01*
X94063326Y-90907270D02*
X93949383Y-90925002D01*
X93949383Y-90925002D02*
X93816293Y-90945101D01*
X93816293Y-90945101D02*
X93694080Y-90963120D01*
X93694080Y-90963120D02*
X93549859Y-90984590D01*
X93549859Y-90984590D02*
X93420529Y-91004671D01*
X93420529Y-91004671D02*
X93311664Y-91022428D01*
X93311664Y-91022428D02*
X93228839Y-91036929D01*
X93228839Y-91036929D02*
X93177630Y-91047241D01*
X93177630Y-91047241D02*
X93163123Y-91052008D01*
X93163123Y-91052008D02*
X93183108Y-91058176D01*
X93183108Y-91058176D02*
X93239159Y-91069244D01*
X93239159Y-91069244D02*
X93325423Y-91084217D01*
X93325423Y-91084217D02*
X93436043Y-91102105D01*
X93436043Y-91102105D02*
X93565165Y-91121913D01*
X93565165Y-91121913D02*
X93644665Y-91133664D01*
X93644665Y-91133664D02*
X93785848Y-91154362D01*
X93785848Y-91154362D02*
X93915760Y-91173615D01*
X93915760Y-91173615D02*
X94027590Y-91190396D01*
X94027590Y-91190396D02*
X94114528Y-91203681D01*
X94114528Y-91203681D02*
X94169763Y-91212442D01*
X94169763Y-91212442D02*
X94183307Y-91214795D01*
X94183307Y-91214795D02*
X94240408Y-91225704D01*
X94240408Y-91225704D02*
X94040432Y-91625235D01*
X94040432Y-91625235D02*
X93980923Y-91745078D01*
X93980923Y-91745078D02*
X93928464Y-91852541D01*
X93928464Y-91852541D02*
X93885854Y-91941738D01*
X93885854Y-91941738D02*
X93855893Y-92006784D01*
X93855893Y-92006784D02*
X93841381Y-92041792D01*
X93841381Y-92041792D02*
X93840456Y-92045648D01*
X93840456Y-92045648D02*
X93853898Y-92039462D01*
X93853898Y-92039462D02*
X93890546Y-92007340D01*
X93890546Y-92007340D02*
X93944889Y-91954446D01*
X93944889Y-91954446D02*
X94011412Y-91885944D01*
X94011412Y-91885944D02*
X94015081Y-91882073D01*
X94015081Y-91882073D02*
X94099024Y-91793515D01*
X94099024Y-91793515D02*
X94187018Y-91700863D01*
X94187018Y-91700863D02*
X94266804Y-91617020D01*
X94266804Y-91617020D02*
X94311319Y-91570361D01*
X94311319Y-91570361D02*
X94432931Y-91443106D01*
X94432931Y-91443106D02*
X94421861Y-91813523D01*
X94421861Y-91813523D02*
X94416993Y-91973264D01*
X94416993Y-91973264D02*
X94411306Y-92154937D01*
X94411306Y-92154937D02*
X94405418Y-92339047D01*
X94405418Y-92339047D02*
X94399949Y-92506101D01*
X94399949Y-92506101D02*
X94398502Y-92549376D01*
X94398502Y-92549376D02*
X94386213Y-92914813D01*
X94386213Y-92914813D02*
X94309127Y-92868690D01*
X94309127Y-92868690D02*
X93984013Y-92654604D01*
X93984013Y-92654604D02*
X93696258Y-92424060D01*
X93696258Y-92424060D02*
X93446309Y-92177796D01*
X93446309Y-92177796D02*
X93234611Y-91916548D01*
X93234611Y-91916548D02*
X93061610Y-91641054D01*
X93061610Y-91641054D02*
X92927751Y-91352051D01*
X92927751Y-91352051D02*
X92833479Y-91050275D01*
X92833479Y-91050275D02*
X92779242Y-90736463D01*
X92779242Y-90736463D02*
X92765483Y-90411353D01*
X92765483Y-90411353D02*
X92768790Y-90321273D01*
X92768790Y-90321273D02*
X92804246Y-90003864D01*
X92804246Y-90003864D02*
X92875867Y-89678677D01*
X92875867Y-89678677D02*
X92981124Y-89355102D01*
X92981124Y-89355102D02*
X93108636Y-89060464D01*
X93108636Y-89060464D02*
X93148732Y-88977495D01*
X93148732Y-88977495D02*
X93180704Y-88909303D01*
X93180704Y-88909303D02*
X93200632Y-88864375D01*
X93200632Y-88864375D02*
X93205323Y-88851151D01*
X93205323Y-88851151D02*
X93193286Y-88830748D01*
X93193286Y-88830748D02*
X93160561Y-88783545D01*
X93160561Y-88783545D02*
X93112066Y-88716454D01*
X93112066Y-88716454D02*
X93052718Y-88636387D01*
X93052718Y-88636387D02*
X93049281Y-88631804D01*
X93049281Y-88631804D02*
X92900276Y-88417039D01*
X92900276Y-88417039D02*
X92755191Y-88177785D01*
X92755191Y-88177785D02*
X92624132Y-87931430D01*
X92624132Y-87931430D02*
X92549872Y-87772584D01*
X92549872Y-87772584D02*
X92435990Y-87472870D01*
X92435990Y-87472870D02*
X92362297Y-87184584D01*
X92362297Y-87184584D02*
X92328805Y-86908052D01*
X92328805Y-86908052D02*
X92335525Y-86643599D01*
X92335525Y-86643599D02*
X92382468Y-86391552D01*
X92382468Y-86391552D02*
X92469647Y-86152237D01*
X92469647Y-86152237D02*
X92490326Y-86109106D01*
X92490326Y-86109106D02*
X92566975Y-85976615D01*
X92566975Y-85976615D02*
X92666667Y-85835059D01*
X92666667Y-85835059D02*
X92777721Y-85699589D01*
X92777721Y-85699589D02*
X92888460Y-85585360D01*
X92888460Y-85585360D02*
X92906571Y-85569006D01*
X92906571Y-85569006D02*
X92960371Y-85519312D01*
X92960371Y-85519312D02*
X92995564Y-85482287D01*
X92995564Y-85482287D02*
X93005975Y-85464570D01*
X93005975Y-85464570D02*
X93004373Y-85463922D01*
X93004373Y-85463922D02*
X92973016Y-85477270D01*
X92973016Y-85477270D02*
X92916727Y-85514309D01*
X92916727Y-85514309D02*
X92841720Y-85570059D01*
X92841720Y-85570059D02*
X92754210Y-85639541D01*
X92754210Y-85639541D02*
X92660411Y-85717776D01*
X92660411Y-85717776D02*
X92566537Y-85799784D01*
X92566537Y-85799784D02*
X92478803Y-85880585D01*
X92478803Y-85880585D02*
X92451078Y-85907286D01*
X92451078Y-85907286D02*
X92174708Y-86200605D01*
X92174708Y-86200605D02*
X91939256Y-86501554D01*
X91939256Y-86501554D02*
X91743710Y-86811926D01*
X91743710Y-86811926D02*
X91587058Y-87133511D01*
X91587058Y-87133511D02*
X91468290Y-87468100D01*
X91468290Y-87468100D02*
X91393059Y-87781273D01*
X91393059Y-87781273D02*
X91373469Y-87922572D01*
X91373469Y-87922572D02*
X91361206Y-88092428D01*
X91361206Y-88092428D02*
X91356271Y-88277702D01*
X91356271Y-88277702D02*
X91358664Y-88465254D01*
X91358664Y-88465254D02*
X91368384Y-88641947D01*
X91368384Y-88641947D02*
X91385432Y-88794642D01*
X91385432Y-88794642D02*
X91393058Y-88839606D01*
X91393058Y-88839606D02*
X91456833Y-89117419D01*
X91456833Y-89117419D02*
X91542697Y-89402851D01*
X91542697Y-89402851D02*
X91645488Y-89680993D01*
X91645488Y-89680993D02*
X91760045Y-89936938D01*
X91760045Y-89936938D02*
X91799748Y-90014356D01*
X91799748Y-90014356D02*
X91872939Y-90151939D01*
X91872939Y-90151939D02*
X91797494Y-90067273D01*
X91797494Y-90067273D02*
X91755432Y-90015693D01*
X91755432Y-90015693D02*
X91697993Y-89939341D01*
X91697993Y-89939341D02*
X91632997Y-89848856D01*
X91632997Y-89848856D02*
X91573323Y-89762378D01*
X91573323Y-89762378D02*
X91383491Y-89452276D01*
X91383491Y-89452276D02*
X91233916Y-89144243D01*
X91233916Y-89144243D02*
X91124780Y-88839257D01*
X91124780Y-88839257D02*
X91056268Y-88538293D01*
X91056268Y-88538293D02*
X91028563Y-88242330D01*
X91028563Y-88242330D02*
X91041848Y-87952343D01*
X91041848Y-87952343D02*
X91096307Y-87669310D01*
X91096307Y-87669310D02*
X91148822Y-87503235D01*
X91148822Y-87503235D02*
X91178962Y-87420538D01*
X91178962Y-87420538D02*
X91205012Y-87349084D01*
X91205012Y-87349084D02*
X91222380Y-87301470D01*
X91222380Y-87301470D02*
X91224947Y-87294439D01*
X91224947Y-87294439D02*
X91233983Y-87262575D01*
X91233983Y-87262575D02*
X91226486Y-87263771D01*
X91226486Y-87263771D02*
X91205269Y-87293429D01*
X91205269Y-87293429D02*
X91173143Y-87346953D01*
X91173143Y-87346953D02*
X91132920Y-87419747D01*
X91132920Y-87419747D02*
X91087411Y-87507214D01*
X91087411Y-87507214D02*
X91055501Y-87571453D01*
X91055501Y-87571453D02*
X90926861Y-87869105D01*
X90926861Y-87869105D02*
X90824726Y-88176533D01*
X90824726Y-88176533D02*
X90757949Y-88458606D01*
X90757949Y-88458606D02*
X90739637Y-88588650D01*
X90739637Y-88588650D02*
X90726535Y-88748223D01*
X90726535Y-88748223D02*
X90718650Y-88927077D01*
X90718650Y-88927077D02*
X90715987Y-89114962D01*
X90715987Y-89114962D02*
X90718551Y-89301630D01*
X90718551Y-89301630D02*
X90726347Y-89476831D01*
X90726347Y-89476831D02*
X90739382Y-89630317D01*
X90739382Y-89630317D02*
X90757242Y-89749773D01*
X90757242Y-89749773D02*
X90828253Y-90029607D01*
X90828253Y-90029607D02*
X90929125Y-90322158D01*
X90929125Y-90322158D02*
X91054998Y-90615927D01*
X91054998Y-90615927D02*
X91201014Y-90899411D01*
X91201014Y-90899411D02*
X91338591Y-91125606D01*
X91338591Y-91125606D02*
X91450170Y-91294939D01*
X91450170Y-91294939D02*
X91350691Y-91189106D01*
X91350691Y-91189106D02*
X91244946Y-91062708D01*
X91244946Y-91062708D02*
X91133607Y-90904876D01*
X91133607Y-90904876D02*
X91022241Y-90725012D01*
X91022241Y-90725012D02*
X90916414Y-90532517D01*
X90916414Y-90532517D02*
X90821695Y-90336794D01*
X90821695Y-90336794D02*
X90761581Y-90194273D01*
X90761581Y-90194273D02*
X90721710Y-90098043D01*
X90721710Y-90098043D02*
X90693503Y-90042195D01*
X90693503Y-90042195D02*
X90676995Y-90026407D01*
X90676995Y-90026407D02*
X90672218Y-90050356D01*
X90672218Y-90050356D02*
X90679204Y-90113720D01*
X90679204Y-90113720D02*
X90697986Y-90216178D01*
X90697986Y-90216178D02*
X90728597Y-90357406D01*
X90728597Y-90357406D02*
X90739995Y-90406872D01*
X90739995Y-90406872D02*
X90804548Y-90635957D01*
X90804548Y-90635957D02*
X90894212Y-90884164D01*
X90894212Y-90884164D02*
X91003984Y-91140857D01*
X91003984Y-91140857D02*
X91128865Y-91395401D01*
X91128865Y-91395401D02*
X91263855Y-91637160D01*
X91263855Y-91637160D02*
X91403953Y-91855500D01*
X91403953Y-91855500D02*
X91453930Y-91925314D01*
X91453930Y-91925314D02*
X91674793Y-92188961D01*
X91674793Y-92188961D02*
X91928858Y-92428804D01*
X91928858Y-92428804D02*
X92213384Y-92643405D01*
X92213384Y-92643405D02*
X92525627Y-92831322D01*
X92525627Y-92831322D02*
X92862848Y-92991117D01*
X92862848Y-92991117D02*
X93222303Y-93121350D01*
X93222303Y-93121350D02*
X93601251Y-93220582D01*
X93601251Y-93220582D02*
X93996951Y-93287372D01*
X93996951Y-93287372D02*
X94062706Y-93295070D01*
X94062706Y-93295070D02*
X94170124Y-93303428D01*
X94170124Y-93303428D02*
X94308773Y-93309144D01*
X94308773Y-93309144D02*
X94467638Y-93312241D01*
X94467638Y-93312241D02*
X94635701Y-93312744D01*
X94635701Y-93312744D02*
X94801945Y-93310676D01*
X94801945Y-93310676D02*
X94955353Y-93306060D01*
X94955353Y-93306060D02*
X95084909Y-93298919D01*
X95084909Y-93298919D02*
X95152790Y-93292745D01*
X95152790Y-93292745D02*
X95479898Y-93242091D01*
X95479898Y-93242091D02*
X95810660Y-93165821D01*
X95810660Y-93165821D02*
X96132635Y-93067511D01*
X96132635Y-93067511D02*
X96433381Y-92950739D01*
X96433381Y-92950739D02*
X96580519Y-92882287D01*
X96580519Y-92882287D02*
X96890495Y-92705058D01*
X96890495Y-92705058D02*
X97180806Y-92492190D01*
X97180806Y-92492190D02*
X97449374Y-92246550D01*
X97449374Y-92246550D02*
X97694121Y-91971006D01*
X97694121Y-91971006D02*
X97912968Y-91668426D01*
X97912968Y-91668426D02*
X98103838Y-91341678D01*
X98103838Y-91341678D02*
X98264652Y-90993630D01*
X98264652Y-90993630D02*
X98393332Y-90627149D01*
X98393332Y-90627149D02*
X98486419Y-90252082D01*
X98486419Y-90252082D02*
X98505592Y-90144993D01*
X98505592Y-90144993D02*
X98513599Y-90074202D01*
X98513599Y-90074202D02*
X98510703Y-90040779D01*
X98510703Y-90040779D02*
X98497171Y-90045790D01*
X98497171Y-90045790D02*
X98473268Y-90090305D01*
X98473268Y-90090305D02*
X98456289Y-90130773D01*
X98456289Y-90130773D02*
X98375178Y-90319010D01*
X98375178Y-90319010D02*
X98280186Y-90513055D01*
X98280186Y-90513055D02*
X98176327Y-90704259D01*
X98176327Y-90704259D02*
X98068616Y-90883976D01*
X98068616Y-90883976D02*
X97962067Y-91043558D01*
X97962067Y-91043558D02*
X97861695Y-91174359D01*
X97861695Y-91174359D02*
X97830291Y-91210273D01*
X97830291Y-91210273D02*
X97790779Y-91253248D01*
X97790779Y-91253248D02*
X97768627Y-91275278D01*
X97768627Y-91275278D02*
X97764974Y-91273406D01*
X97764974Y-91273406D02*
X97780960Y-91244679D01*
X97780960Y-91244679D02*
X97817722Y-91186143D01*
X97817722Y-91186143D02*
X97872407Y-91101042D01*
X97872407Y-91101042D02*
X98056672Y-90783170D01*
X98056672Y-90783170D02*
X98214501Y-90445213D01*
X98214501Y-90445213D02*
X98321621Y-90151939D01*
X98321621Y-90151939D02*
X97332956Y-90151939D01*
X97332956Y-90151939D02*
X97322373Y-90162523D01*
X97322373Y-90162523D02*
X97311790Y-90151939D01*
X97311790Y-90151939D02*
X97322373Y-90141356D01*
X97322373Y-90141356D02*
X97332956Y-90151939D01*
X97332956Y-90151939D02*
X98321621Y-90151939D01*
X98321621Y-90151939D02*
X98341145Y-90098488D01*
X98341145Y-90098488D02*
X98426024Y-89781523D01*
X98426024Y-89781523D02*
X98439413Y-89712791D01*
X98439413Y-89712791D02*
X98449470Y-89640695D01*
X98449470Y-89640695D02*
X98456609Y-89557990D01*
X98456609Y-89557990D02*
X98461241Y-89457434D01*
X98461241Y-89457434D02*
X98463779Y-89331782D01*
X98463779Y-89331782D02*
X98464636Y-89173792D01*
X98464636Y-89173792D02*
X98464608Y-89104189D01*
X98464608Y-89104189D02*
X98463896Y-88937295D01*
X98463896Y-88937295D02*
X98461985Y-88804918D01*
X98461985Y-88804918D02*
X98458350Y-88699250D01*
X98458350Y-88699250D02*
X98452465Y-88612479D01*
X98452465Y-88612479D02*
X98443807Y-88536797D01*
X98443807Y-88536797D02*
X98431849Y-88464392D01*
X98431849Y-88464392D02*
X98416586Y-88389835D01*
X98416586Y-88389835D02*
X98327079Y-88050575D01*
X98327079Y-88050575D02*
X98209035Y-87730185D01*
X98209035Y-87730185D02*
X98124792Y-87545530D01*
X98124792Y-87545530D02*
X98069709Y-87436014D01*
X98069709Y-87436014D02*
X98026039Y-87355801D01*
X98026039Y-87355801D02*
X97995111Y-87306296D01*
X97995111Y-87306296D02*
X97978254Y-87288908D01*
X97978254Y-87288908D02*
X97976796Y-87305044D01*
X97976796Y-87305044D02*
X97992067Y-87356109D01*
X97992067Y-87356109D02*
X98023149Y-87437931D01*
X98023149Y-87437931D02*
X98089260Y-87626086D01*
X98089260Y-87626086D02*
X98131631Y-87808045D01*
X98131631Y-87808045D02*
X98153280Y-88000197D01*
X98153280Y-88000197D02*
X98157718Y-88168948D01*
X98157718Y-88168948D02*
X98147305Y-88412645D01*
X98147305Y-88412645D02*
X98115526Y-88638339D01*
X98115526Y-88638339D02*
X98059246Y-88866236D01*
X98059246Y-88866236D02*
X98039564Y-88930383D01*
X98039564Y-88930383D02*
X97975863Y-89101987D01*
X97975863Y-89101987D02*
X97890273Y-89290585D01*
X97890273Y-89290585D02*
X97788925Y-89485267D01*
X97788925Y-89485267D02*
X97677955Y-89675122D01*
X97677955Y-89675122D02*
X97563496Y-89849239D01*
X97563496Y-89849239D02*
X97451680Y-89996708D01*
X97451680Y-89996708D02*
X97418321Y-90035523D01*
X97418321Y-90035523D02*
X97333421Y-90130773D01*
X97333421Y-90130773D02*
X97459253Y-89866189D01*
X97459253Y-89866189D02*
X97613443Y-89500457D01*
X97613443Y-89500457D02*
X97728140Y-89135657D01*
X97728140Y-89135657D02*
X97803112Y-88773670D01*
X97803112Y-88773670D02*
X97838131Y-88416378D01*
X97838131Y-88416378D02*
X97832966Y-88065660D01*
X97832966Y-88065660D02*
X97787388Y-87723397D01*
X97787388Y-87723397D02*
X97744105Y-87536050D01*
X97744105Y-87536050D02*
X97635340Y-87208198D01*
X97635340Y-87208198D02*
X97486955Y-86885718D01*
X97486955Y-86885718D02*
X97301653Y-86573141D01*
X97301653Y-86573141D02*
X97082141Y-86275002D01*
X97082141Y-86275002D02*
X96831122Y-85995833D01*
X96831122Y-85995833D02*
X96816161Y-85980825D01*
X96816161Y-85980825D02*
X96738589Y-85906202D01*
X96738589Y-85906202D02*
X96649204Y-85824655D01*
X96649204Y-85824655D02*
X96553925Y-85741085D01*
X96553925Y-85741085D02*
X96458672Y-85660396D01*
X96458672Y-85660396D02*
X96369362Y-85587488D01*
X96369362Y-85587488D02*
X96291914Y-85527263D01*
X96291914Y-85527263D02*
X96232248Y-85484625D01*
X96232248Y-85484625D02*
X96196282Y-85464473D01*
X96196282Y-85464473D02*
X96191550Y-85463523D01*
X96191550Y-85463523D02*
X96199864Y-85477549D01*
X96199864Y-85477549D02*
X96233294Y-85516053D01*
X96233294Y-85516053D02*
X96286930Y-85573669D01*
X96286930Y-85573669D02*
X96355863Y-85645029D01*
X96355863Y-85645029D02*
X96380806Y-85670352D01*
X96380806Y-85670352D02*
X96472143Y-85765001D01*
X96472143Y-85765001D02*
X96540182Y-85842648D01*
X96540182Y-85842648D02*
X96593226Y-85914459D01*
X96593226Y-85914459D02*
X96639583Y-85991598D01*
X96639583Y-85991598D02*
X96683926Y-86077811D01*
X96683926Y-86077811D02*
X96781144Y-86308812D01*
X96781144Y-86308812D02*
X96840714Y-86532707D01*
X96840714Y-86532707D02*
X96864170Y-86758415D01*
X96864170Y-86758415D02*
X96853047Y-86994856D01*
X96853047Y-86994856D02*
X96848310Y-87033162D01*
X96848310Y-87033162D02*
X96785973Y-87347718D01*
X96785973Y-87347718D02*
X96682022Y-87667461D01*
X96682022Y-87667461D02*
X96536378Y-87992560D01*
X96536378Y-87992560D02*
X96348966Y-88323188D01*
X96348966Y-88323188D02*
X96119707Y-88659514D01*
X96119707Y-88659514D02*
X96114970Y-88665928D01*
X96114970Y-88665928D02*
X95977278Y-88852084D01*
X95977278Y-88852084D02*
X96049643Y-88983428D01*
X96049643Y-88983428D02*
X96145653Y-89181888D01*
X96145653Y-89181888D02*
X96233334Y-89409662D01*
X96233334Y-89409662D02*
X96308930Y-89653978D01*
X96308930Y-89653978D02*
X96368686Y-89902066D01*
X96368686Y-89902066D02*
X96408845Y-90141153D01*
X96408845Y-90141153D02*
X96419375Y-90240636D01*
X96419375Y-90240636D02*
X96427861Y-90561258D01*
X96427861Y-90561258D02*
X96397516Y-90868224D01*
X96397516Y-90868224D02*
X96327433Y-91165602D01*
X96327433Y-91165602D02*
X96216706Y-91457461D01*
X96216706Y-91457461D02*
X96095363Y-91694788D01*
X96095363Y-91694788D02*
X95932815Y-91943975D01*
X95932815Y-91943975D02*
X95734880Y-92186635D01*
X95734880Y-92186635D02*
X95508501Y-92415793D01*
X95508501Y-92415793D02*
X95260620Y-92624470D01*
X95260620Y-92624470D02*
X94998180Y-92805691D01*
X94998180Y-92805691D02*
X94976956Y-92818677D01*
X94976956Y-92818677D02*
X94903792Y-92861781D01*
X94903792Y-92861781D02*
X94845466Y-92893814D01*
X94845466Y-92893814D02*
X94810400Y-92910264D01*
X94810400Y-92910264D02*
X94804200Y-92911217D01*
X94804200Y-92911217D02*
X94802001Y-92889025D01*
X94802001Y-92889025D02*
X94799146Y-92829407D01*
X94799146Y-92829407D02*
X94795789Y-92737264D01*
X94795789Y-92737264D02*
X94792083Y-92617493D01*
X94792083Y-92617493D02*
X94788182Y-92474995D01*
X94788182Y-92474995D02*
X94784240Y-92314670D01*
X94784240Y-92314670D02*
X94781142Y-92175988D01*
X94781142Y-92175988D02*
X94765589Y-91448371D01*
X94765589Y-91448371D02*
X95057386Y-91758528D01*
X95057386Y-91758528D02*
X95146237Y-91852103D01*
X95146237Y-91852103D02*
X95225065Y-91933476D01*
X95225065Y-91933476D02*
X95289414Y-91998180D01*
X95289414Y-91998180D02*
X95334822Y-92041746D01*
X95334822Y-92041746D02*
X95356830Y-92059706D01*
X95356830Y-92059706D02*
X95358067Y-92059801D01*
X95358067Y-92059801D02*
X95351645Y-92039138D01*
X95351645Y-92039138D02*
X95328678Y-91986332D01*
X95328678Y-91986332D02*
X95291791Y-91906986D01*
X95291791Y-91906986D02*
X95243609Y-91806702D01*
X95243609Y-91806702D02*
X95186756Y-91691082D01*
X95186756Y-91691082D02*
X95163373Y-91644189D01*
X95163373Y-91644189D02*
X95103956Y-91524132D01*
X95103956Y-91524132D02*
X95052311Y-91417181D01*
X95052311Y-91417181D02*
X95011049Y-91328960D01*
X95011049Y-91328960D02*
X94982777Y-91265089D01*
X94982777Y-91265089D02*
X94970105Y-91231189D01*
X94970105Y-91231189D02*
X94969922Y-91227334D01*
X94969922Y-91227334D02*
X94992805Y-91221601D01*
X94992805Y-91221601D02*
X95051818Y-91210815D01*
X95051818Y-91210815D02*
X95141185Y-91195918D01*
X95141185Y-91195918D02*
X95255128Y-91177851D01*
X95255128Y-91177851D02*
X95387872Y-91157557D01*
X95387872Y-91157557D02*
X95500336Y-91140848D01*
X95500336Y-91140848D02*
X95643031Y-91119430D01*
X95643031Y-91119430D02*
X95770779Y-91099346D01*
X95770779Y-91099346D02*
X95877950Y-91081554D01*
X95877950Y-91081554D02*
X95958912Y-91067016D01*
X95958912Y-91067016D02*
X96008033Y-91056690D01*
X96008033Y-91056690D02*
X96020623Y-91052146D01*
X96020623Y-91052146D02*
X96000625Y-91045766D01*
X96000625Y-91045766D02*
X95944495Y-91034520D01*
X95944495Y-91034520D02*
X95858028Y-91019396D01*
X95858028Y-91019396D02*
X95747016Y-91001380D01*
X95747016Y-91001380D02*
X95617257Y-90981458D01*
X95617257Y-90981458D02*
X95528831Y-90968423D01*
X95528831Y-90968423D02*
X95387116Y-90947593D01*
X95387116Y-90947593D02*
X95257565Y-90928057D01*
X95257565Y-90928057D02*
X95146685Y-90910836D01*
X95146685Y-90910836D02*
X95060980Y-90896951D01*
X95060980Y-90896951D02*
X95006958Y-90887423D01*
X95006958Y-90887423D02*
X94992808Y-90884324D01*
X94992808Y-90884324D02*
X94979335Y-90878623D01*
X94979335Y-90878623D02*
X94971531Y-90867403D01*
X94971531Y-90867403D02*
X94970647Y-90845778D01*
X94970647Y-90845778D02*
X94977933Y-90808866D01*
X94977933Y-90808866D02*
X94994639Y-90751781D01*
X94994639Y-90751781D02*
X95022017Y-90669640D01*
X95022017Y-90669640D02*
X95061317Y-90557558D01*
X95061317Y-90557558D02*
X95113788Y-90410650D01*
X95113788Y-90410650D02*
X95114807Y-90407808D01*
X95114807Y-90407808D02*
X95161718Y-90275429D01*
X95161718Y-90275429D02*
X95202964Y-90156159D01*
X95202964Y-90156159D02*
X95236619Y-90055813D01*
X95236619Y-90055813D02*
X95260755Y-89980204D01*
X95260755Y-89980204D02*
X95273444Y-89935145D01*
X95273444Y-89935145D02*
X95274788Y-89925266D01*
X95274788Y-89925266D02*
X95261714Y-89936338D01*
X95261714Y-89936338D02*
X95228653Y-89977854D01*
X95228653Y-89977854D02*
X95179097Y-90045034D01*
X95179097Y-90045034D02*
X95116541Y-90133100D01*
X95116541Y-90133100D02*
X95044480Y-90237272D01*
X95044480Y-90237272D02*
X95014932Y-90280675D01*
X95014932Y-90280675D02*
X94931227Y-90403750D01*
X94931227Y-90403750D02*
X94867945Y-90495225D01*
X94867945Y-90495225D02*
X94822002Y-90558706D01*
X94822002Y-90558706D02*
X94790310Y-90597799D01*
X94790310Y-90597799D02*
X94769785Y-90616109D01*
X94769785Y-90616109D02*
X94757340Y-90617244D01*
X94757340Y-90617244D02*
X94749890Y-90604808D01*
X94749890Y-90604808D02*
X94746897Y-90593884D01*
X94746897Y-90593884D02*
X94744512Y-90565001D01*
X94744512Y-90565001D02*
X94741284Y-90496557D01*
X94741284Y-90496557D02*
X94737292Y-90391315D01*
X94737292Y-90391315D02*
X94732614Y-90252038D01*
X94732614Y-90252038D02*
X94727327Y-90081488D01*
X94727327Y-90081488D02*
X94721510Y-89882429D01*
X94721510Y-89882429D02*
X94715242Y-89657622D01*
X94715242Y-89657622D02*
X94708600Y-89409830D01*
X94708600Y-89409830D02*
X94701663Y-89141817D01*
X94701663Y-89141817D02*
X94694510Y-88856345D01*
X94694510Y-88856345D02*
X94687217Y-88556176D01*
X94687217Y-88556176D02*
X94679864Y-88244074D01*
X94679864Y-88244074D02*
X94677731Y-88151689D01*
X94677731Y-88151689D02*
X94667638Y-87715795D01*
X94667638Y-87715795D02*
X94658330Y-87320774D01*
X94658330Y-87320774D02*
X94649763Y-86965173D01*
X94649763Y-86965173D02*
X94641893Y-86647541D01*
X94641893Y-86647541D02*
X94634676Y-86366424D01*
X94634676Y-86366424D02*
X94628068Y-86120370D01*
X94628068Y-86120370D02*
X94622025Y-85907927D01*
X94622025Y-85907927D02*
X94616502Y-85727643D01*
X94616502Y-85727643D02*
X94611457Y-85578065D01*
X94611457Y-85578065D02*
X94606844Y-85457741D01*
X94606844Y-85457741D02*
X94602619Y-85365218D01*
X94602619Y-85365218D02*
X94598739Y-85299044D01*
X94598739Y-85299044D02*
X94595160Y-85257767D01*
X94595160Y-85257767D02*
X94591837Y-85239933D01*
X94591837Y-85239933D02*
X94589423Y-85241273D01*
X94589423Y-85241273D02*
X94589423Y-85241273D01*
G36*
X98056672Y-90783170D02*
G01*
X97872407Y-91101042D01*
X97817722Y-91186143D01*
X97780960Y-91244679D01*
X97764974Y-91273406D01*
X97768627Y-91275278D01*
X97790779Y-91253248D01*
X97830291Y-91210273D01*
X97861695Y-91174359D01*
X97962067Y-91043558D01*
X98068616Y-90883976D01*
X98176327Y-90704259D01*
X98280186Y-90513055D01*
X98375178Y-90319010D01*
X98456289Y-90130773D01*
X98473268Y-90090305D01*
X98497171Y-90045790D01*
X98510703Y-90040779D01*
X98513599Y-90074202D01*
X98505592Y-90144993D01*
X98486419Y-90252082D01*
X98393332Y-90627149D01*
X98264652Y-90993630D01*
X98103838Y-91341678D01*
X97912968Y-91668426D01*
X97694121Y-91971006D01*
X97449374Y-92246550D01*
X97180806Y-92492190D01*
X96890495Y-92705058D01*
X96580519Y-92882287D01*
X96433381Y-92950739D01*
X96132635Y-93067511D01*
X95810660Y-93165821D01*
X95479898Y-93242091D01*
X95152790Y-93292745D01*
X95084909Y-93298919D01*
X94955353Y-93306060D01*
X94801945Y-93310676D01*
X94635701Y-93312744D01*
X94467638Y-93312241D01*
X94308773Y-93309144D01*
X94170124Y-93303428D01*
X94062706Y-93295070D01*
X93996951Y-93287372D01*
X93601251Y-93220582D01*
X93222303Y-93121350D01*
X92862848Y-92991117D01*
X92525627Y-92831322D01*
X92213384Y-92643405D01*
X91928858Y-92428804D01*
X91674793Y-92188961D01*
X91453930Y-91925314D01*
X91403953Y-91855500D01*
X91263855Y-91637160D01*
X91128865Y-91395401D01*
X91003984Y-91140857D01*
X90894212Y-90884164D01*
X90804548Y-90635957D01*
X90739995Y-90406872D01*
X90728597Y-90357406D01*
X90697986Y-90216178D01*
X90679204Y-90113720D01*
X90672218Y-90050356D01*
X90676995Y-90026407D01*
X90693503Y-90042195D01*
X90721710Y-90098043D01*
X90761581Y-90194273D01*
X90821695Y-90336794D01*
X90916414Y-90532517D01*
X91022241Y-90725012D01*
X91133607Y-90904876D01*
X91244946Y-91062708D01*
X91350691Y-91189106D01*
X91450170Y-91294939D01*
X91338591Y-91125606D01*
X91201014Y-90899411D01*
X91054998Y-90615927D01*
X90929125Y-90322158D01*
X90828253Y-90029607D01*
X90757242Y-89749773D01*
X90739382Y-89630317D01*
X90726347Y-89476831D01*
X90718551Y-89301630D01*
X90715987Y-89114962D01*
X90718650Y-88927077D01*
X90726535Y-88748223D01*
X90739637Y-88588650D01*
X90757949Y-88458606D01*
X90824726Y-88176533D01*
X90926861Y-87869105D01*
X91055501Y-87571453D01*
X91087411Y-87507214D01*
X91132920Y-87419747D01*
X91173143Y-87346953D01*
X91205269Y-87293429D01*
X91226486Y-87263771D01*
X91233983Y-87262575D01*
X91224947Y-87294439D01*
X91222380Y-87301470D01*
X91205012Y-87349084D01*
X91178962Y-87420538D01*
X91148822Y-87503235D01*
X91096307Y-87669310D01*
X91041848Y-87952343D01*
X91028563Y-88242330D01*
X91056268Y-88538293D01*
X91124780Y-88839257D01*
X91233916Y-89144243D01*
X91383491Y-89452276D01*
X91573323Y-89762378D01*
X91632997Y-89848856D01*
X91697993Y-89939341D01*
X91755432Y-90015693D01*
X91797494Y-90067273D01*
X91872939Y-90151939D01*
X91799748Y-90014356D01*
X91760045Y-89936938D01*
X91645488Y-89680993D01*
X91542697Y-89402851D01*
X91456833Y-89117419D01*
X91393058Y-88839606D01*
X91385432Y-88794642D01*
X91368384Y-88641947D01*
X91358664Y-88465254D01*
X91356271Y-88277702D01*
X91361206Y-88092428D01*
X91373469Y-87922572D01*
X91393059Y-87781273D01*
X91468290Y-87468100D01*
X91587058Y-87133511D01*
X91743710Y-86811926D01*
X91939256Y-86501554D01*
X92174708Y-86200605D01*
X92451078Y-85907286D01*
X92478803Y-85880585D01*
X92566537Y-85799784D01*
X92660411Y-85717776D01*
X92754210Y-85639541D01*
X92841720Y-85570059D01*
X92916727Y-85514309D01*
X92973016Y-85477270D01*
X93004373Y-85463922D01*
X93005975Y-85464570D01*
X92995564Y-85482287D01*
X92960371Y-85519312D01*
X92906571Y-85569006D01*
X92888460Y-85585360D01*
X92777721Y-85699589D01*
X92666667Y-85835059D01*
X92566975Y-85976615D01*
X92490326Y-86109106D01*
X92469647Y-86152237D01*
X92382468Y-86391552D01*
X92335525Y-86643599D01*
X92328805Y-86908052D01*
X92362297Y-87184584D01*
X92435990Y-87472870D01*
X92549872Y-87772584D01*
X92624132Y-87931430D01*
X92755191Y-88177785D01*
X92900276Y-88417039D01*
X93049281Y-88631804D01*
X93052718Y-88636387D01*
X93112066Y-88716454D01*
X93160561Y-88783545D01*
X93193286Y-88830748D01*
X93205323Y-88851151D01*
X93200632Y-88864375D01*
X93180704Y-88909303D01*
X93148732Y-88977495D01*
X93108636Y-89060464D01*
X92981124Y-89355102D01*
X92875867Y-89678677D01*
X92804246Y-90003864D01*
X92768790Y-90321273D01*
X92765483Y-90411353D01*
X92779242Y-90736463D01*
X92833479Y-91050275D01*
X92927751Y-91352051D01*
X93061610Y-91641054D01*
X93234611Y-91916548D01*
X93446309Y-92177796D01*
X93696258Y-92424060D01*
X93984013Y-92654604D01*
X94309127Y-92868690D01*
X94386213Y-92914813D01*
X94398502Y-92549376D01*
X94399949Y-92506101D01*
X94405418Y-92339047D01*
X94411306Y-92154937D01*
X94416993Y-91973264D01*
X94421861Y-91813523D01*
X94432931Y-91443106D01*
X94311319Y-91570361D01*
X94266804Y-91617020D01*
X94187018Y-91700863D01*
X94099024Y-91793515D01*
X94015081Y-91882073D01*
X94011412Y-91885944D01*
X93944889Y-91954446D01*
X93890546Y-92007340D01*
X93853898Y-92039462D01*
X93840456Y-92045648D01*
X93841381Y-92041792D01*
X93855893Y-92006784D01*
X93885854Y-91941738D01*
X93928464Y-91852541D01*
X93980923Y-91745078D01*
X94040432Y-91625235D01*
X94240408Y-91225704D01*
X94183307Y-91214795D01*
X94169763Y-91212442D01*
X94114528Y-91203681D01*
X94027590Y-91190396D01*
X93915760Y-91173615D01*
X93785848Y-91154362D01*
X93644665Y-91133664D01*
X93565165Y-91121913D01*
X93436043Y-91102105D01*
X93325423Y-91084217D01*
X93239159Y-91069244D01*
X93183108Y-91058176D01*
X93163123Y-91052008D01*
X93177630Y-91047241D01*
X93228839Y-91036929D01*
X93311664Y-91022428D01*
X93420529Y-91004671D01*
X93549859Y-90984590D01*
X93694080Y-90963120D01*
X93816293Y-90945101D01*
X93949383Y-90925002D01*
X94063326Y-90907270D01*
X94152432Y-90892811D01*
X94211010Y-90882529D01*
X94233371Y-90877330D01*
X94231965Y-90867569D01*
X94219014Y-90823289D01*
X94194654Y-90748475D01*
X94160762Y-90648719D01*
X94119219Y-90529611D01*
X94071902Y-90396744D01*
X94040575Y-90309004D01*
X93996887Y-90184346D01*
X93960265Y-90077022D01*
X93932575Y-89992641D01*
X93915686Y-89936806D01*
X93911464Y-89915126D01*
X93915110Y-89917376D01*
X93938648Y-89945652D01*
X93980641Y-90002031D01*
X94037580Y-90081644D01*
X94105958Y-90179622D01*
X94182269Y-90291095D01*
X94238703Y-90374135D01*
X94310370Y-90478596D01*
X94363279Y-90553484D01*
X94400351Y-90602237D01*
X94424508Y-90628295D01*
X94438673Y-90635096D01*
X94445767Y-90626080D01*
X94448713Y-90604684D01*
X94449737Y-90578361D01*
X94451768Y-90511601D01*
X94454694Y-90407591D01*
X94458447Y-90268962D01*
X94462961Y-90098347D01*
X94468167Y-89898377D01*
X94473998Y-89671682D01*
X94480385Y-89420896D01*
X94487262Y-89148650D01*
X94494560Y-88857574D01*
X94502213Y-88550301D01*
X94510152Y-88229462D01*
X94518309Y-87897689D01*
X94526096Y-87581772D01*
X94534063Y-87262158D01*
X94541771Y-86956642D01*
X94549150Y-86667787D01*
X94556131Y-86398161D01*
X94562646Y-86150329D01*
X94568625Y-85926857D01*
X94574002Y-85730311D01*
X94578705Y-85563256D01*
X94582668Y-85428259D01*
X94585821Y-85327885D01*
X94588095Y-85264701D01*
X94589423Y-85241273D01*
X94591837Y-85239933D01*
X94595160Y-85257767D01*
X94598739Y-85299044D01*
X94602619Y-85365218D01*
X94606844Y-85457741D01*
X94611457Y-85578065D01*
X94616502Y-85727643D01*
X94622025Y-85907927D01*
X94628068Y-86120370D01*
X94634676Y-86366424D01*
X94641893Y-86647541D01*
X94649763Y-86965173D01*
X94658330Y-87320774D01*
X94667638Y-87715795D01*
X94677731Y-88151689D01*
X94679864Y-88244074D01*
X94687217Y-88556176D01*
X94694510Y-88856345D01*
X94701663Y-89141817D01*
X94708600Y-89409830D01*
X94715242Y-89657622D01*
X94721510Y-89882429D01*
X94727327Y-90081488D01*
X94732614Y-90252038D01*
X94737292Y-90391315D01*
X94741284Y-90496557D01*
X94744512Y-90565001D01*
X94746897Y-90593884D01*
X94749890Y-90604808D01*
X94757340Y-90617244D01*
X94769785Y-90616109D01*
X94790310Y-90597799D01*
X94822002Y-90558706D01*
X94867945Y-90495225D01*
X94931227Y-90403750D01*
X95014932Y-90280675D01*
X95044480Y-90237272D01*
X95116541Y-90133100D01*
X95179097Y-90045034D01*
X95228653Y-89977854D01*
X95261714Y-89936338D01*
X95274788Y-89925266D01*
X95273444Y-89935145D01*
X95260755Y-89980204D01*
X95236619Y-90055813D01*
X95202964Y-90156159D01*
X95161718Y-90275429D01*
X95114807Y-90407808D01*
X95113788Y-90410650D01*
X95061317Y-90557558D01*
X95022017Y-90669640D01*
X94994639Y-90751781D01*
X94977933Y-90808866D01*
X94970647Y-90845778D01*
X94971531Y-90867403D01*
X94979335Y-90878623D01*
X94992808Y-90884324D01*
X95006958Y-90887423D01*
X95060980Y-90896951D01*
X95146685Y-90910836D01*
X95257565Y-90928057D01*
X95387116Y-90947593D01*
X95528831Y-90968423D01*
X95617257Y-90981458D01*
X95747016Y-91001380D01*
X95858028Y-91019396D01*
X95944495Y-91034520D01*
X96000625Y-91045766D01*
X96020623Y-91052146D01*
X96008033Y-91056690D01*
X95958912Y-91067016D01*
X95877950Y-91081554D01*
X95770779Y-91099346D01*
X95643031Y-91119430D01*
X95500336Y-91140848D01*
X95387872Y-91157557D01*
X95255128Y-91177851D01*
X95141185Y-91195918D01*
X95051818Y-91210815D01*
X94992805Y-91221601D01*
X94969922Y-91227334D01*
X94970105Y-91231189D01*
X94982777Y-91265089D01*
X95011049Y-91328960D01*
X95052311Y-91417181D01*
X95103956Y-91524132D01*
X95163373Y-91644189D01*
X95186756Y-91691082D01*
X95243609Y-91806702D01*
X95291791Y-91906986D01*
X95328678Y-91986332D01*
X95351645Y-92039138D01*
X95358067Y-92059801D01*
X95356830Y-92059706D01*
X95334822Y-92041746D01*
X95289414Y-91998180D01*
X95225065Y-91933476D01*
X95146237Y-91852103D01*
X95057386Y-91758528D01*
X94765589Y-91448371D01*
X94781142Y-92175988D01*
X94784240Y-92314670D01*
X94788182Y-92474995D01*
X94792083Y-92617493D01*
X94795789Y-92737264D01*
X94799146Y-92829407D01*
X94802001Y-92889025D01*
X94804200Y-92911217D01*
X94810400Y-92910264D01*
X94845466Y-92893814D01*
X94903792Y-92861781D01*
X94976956Y-92818677D01*
X94998180Y-92805691D01*
X95260620Y-92624470D01*
X95508501Y-92415793D01*
X95734880Y-92186635D01*
X95932815Y-91943975D01*
X96095363Y-91694788D01*
X96216706Y-91457461D01*
X96327433Y-91165602D01*
X96397516Y-90868224D01*
X96427861Y-90561258D01*
X96419375Y-90240636D01*
X96409987Y-90151939D01*
X97311790Y-90151939D01*
X97322373Y-90162523D01*
X97332956Y-90151939D01*
X97322373Y-90141356D01*
X97311790Y-90151939D01*
X96409987Y-90151939D01*
X96408845Y-90141153D01*
X96368686Y-89902066D01*
X96308930Y-89653978D01*
X96233334Y-89409662D01*
X96145653Y-89181888D01*
X96049643Y-88983428D01*
X95977278Y-88852084D01*
X96114970Y-88665928D01*
X96119707Y-88659514D01*
X96348966Y-88323188D01*
X96536378Y-87992560D01*
X96682022Y-87667461D01*
X96785973Y-87347718D01*
X96848310Y-87033162D01*
X96853047Y-86994856D01*
X96864170Y-86758415D01*
X96840714Y-86532707D01*
X96781144Y-86308812D01*
X96683926Y-86077811D01*
X96639583Y-85991598D01*
X96593226Y-85914459D01*
X96540182Y-85842648D01*
X96472143Y-85765001D01*
X96380806Y-85670352D01*
X96355863Y-85645029D01*
X96286930Y-85573669D01*
X96233294Y-85516053D01*
X96199864Y-85477549D01*
X96191550Y-85463523D01*
X96196282Y-85464473D01*
X96232248Y-85484625D01*
X96291914Y-85527263D01*
X96369362Y-85587488D01*
X96458672Y-85660396D01*
X96553925Y-85741085D01*
X96649204Y-85824655D01*
X96738589Y-85906202D01*
X96816161Y-85980825D01*
X96831122Y-85995833D01*
X97082141Y-86275002D01*
X97301653Y-86573141D01*
X97486955Y-86885718D01*
X97635340Y-87208198D01*
X97744105Y-87536050D01*
X97787388Y-87723397D01*
X97832966Y-88065660D01*
X97838131Y-88416378D01*
X97803112Y-88773670D01*
X97728140Y-89135657D01*
X97613443Y-89500457D01*
X97459253Y-89866189D01*
X97333421Y-90130773D01*
X97418321Y-90035523D01*
X97451680Y-89996708D01*
X97563496Y-89849239D01*
X97677955Y-89675122D01*
X97788925Y-89485267D01*
X97890273Y-89290585D01*
X97975863Y-89101987D01*
X98039564Y-88930383D01*
X98059246Y-88866236D01*
X98115526Y-88638339D01*
X98147305Y-88412645D01*
X98157718Y-88168948D01*
X98153280Y-88000197D01*
X98131631Y-87808045D01*
X98089260Y-87626086D01*
X98023149Y-87437931D01*
X97992067Y-87356109D01*
X97976796Y-87305044D01*
X97978254Y-87288908D01*
X97995111Y-87306296D01*
X98026039Y-87355801D01*
X98069709Y-87436014D01*
X98124792Y-87545530D01*
X98209035Y-87730185D01*
X98327079Y-88050575D01*
X98416586Y-88389835D01*
X98431849Y-88464392D01*
X98443807Y-88536797D01*
X98452465Y-88612479D01*
X98458350Y-88699250D01*
X98461985Y-88804918D01*
X98463896Y-88937295D01*
X98464608Y-89104189D01*
X98464636Y-89173792D01*
X98463779Y-89331782D01*
X98461241Y-89457434D01*
X98456609Y-89557990D01*
X98449470Y-89640695D01*
X98439413Y-89712791D01*
X98426024Y-89781523D01*
X98341145Y-90098488D01*
X98321621Y-90151939D01*
X98214501Y-90445213D01*
X98056672Y-90783170D01*
G37*
X98056672Y-90783170D02*
X97872407Y-91101042D01*
X97817722Y-91186143D01*
X97780960Y-91244679D01*
X97764974Y-91273406D01*
X97768627Y-91275278D01*
X97790779Y-91253248D01*
X97830291Y-91210273D01*
X97861695Y-91174359D01*
X97962067Y-91043558D01*
X98068616Y-90883976D01*
X98176327Y-90704259D01*
X98280186Y-90513055D01*
X98375178Y-90319010D01*
X98456289Y-90130773D01*
X98473268Y-90090305D01*
X98497171Y-90045790D01*
X98510703Y-90040779D01*
X98513599Y-90074202D01*
X98505592Y-90144993D01*
X98486419Y-90252082D01*
X98393332Y-90627149D01*
X98264652Y-90993630D01*
X98103838Y-91341678D01*
X97912968Y-91668426D01*
X97694121Y-91971006D01*
X97449374Y-92246550D01*
X97180806Y-92492190D01*
X96890495Y-92705058D01*
X96580519Y-92882287D01*
X96433381Y-92950739D01*
X96132635Y-93067511D01*
X95810660Y-93165821D01*
X95479898Y-93242091D01*
X95152790Y-93292745D01*
X95084909Y-93298919D01*
X94955353Y-93306060D01*
X94801945Y-93310676D01*
X94635701Y-93312744D01*
X94467638Y-93312241D01*
X94308773Y-93309144D01*
X94170124Y-93303428D01*
X94062706Y-93295070D01*
X93996951Y-93287372D01*
X93601251Y-93220582D01*
X93222303Y-93121350D01*
X92862848Y-92991117D01*
X92525627Y-92831322D01*
X92213384Y-92643405D01*
X91928858Y-92428804D01*
X91674793Y-92188961D01*
X91453930Y-91925314D01*
X91403953Y-91855500D01*
X91263855Y-91637160D01*
X91128865Y-91395401D01*
X91003984Y-91140857D01*
X90894212Y-90884164D01*
X90804548Y-90635957D01*
X90739995Y-90406872D01*
X90728597Y-90357406D01*
X90697986Y-90216178D01*
X90679204Y-90113720D01*
X90672218Y-90050356D01*
X90676995Y-90026407D01*
X90693503Y-90042195D01*
X90721710Y-90098043D01*
X90761581Y-90194273D01*
X90821695Y-90336794D01*
X90916414Y-90532517D01*
X91022241Y-90725012D01*
X91133607Y-90904876D01*
X91244946Y-91062708D01*
X91350691Y-91189106D01*
X91450170Y-91294939D01*
X91338591Y-91125606D01*
X91201014Y-90899411D01*
X91054998Y-90615927D01*
X90929125Y-90322158D01*
X90828253Y-90029607D01*
X90757242Y-89749773D01*
X90739382Y-89630317D01*
X90726347Y-89476831D01*
X90718551Y-89301630D01*
X90715987Y-89114962D01*
X90718650Y-88927077D01*
X90726535Y-88748223D01*
X90739637Y-88588650D01*
X90757949Y-88458606D01*
X90824726Y-88176533D01*
X90926861Y-87869105D01*
X91055501Y-87571453D01*
X91087411Y-87507214D01*
X91132920Y-87419747D01*
X91173143Y-87346953D01*
X91205269Y-87293429D01*
X91226486Y-87263771D01*
X91233983Y-87262575D01*
X91224947Y-87294439D01*
X91222380Y-87301470D01*
X91205012Y-87349084D01*
X91178962Y-87420538D01*
X91148822Y-87503235D01*
X91096307Y-87669310D01*
X91041848Y-87952343D01*
X91028563Y-88242330D01*
X91056268Y-88538293D01*
X91124780Y-88839257D01*
X91233916Y-89144243D01*
X91383491Y-89452276D01*
X91573323Y-89762378D01*
X91632997Y-89848856D01*
X91697993Y-89939341D01*
X91755432Y-90015693D01*
X91797494Y-90067273D01*
X91872939Y-90151939D01*
X91799748Y-90014356D01*
X91760045Y-89936938D01*
X91645488Y-89680993D01*
X91542697Y-89402851D01*
X91456833Y-89117419D01*
X91393058Y-88839606D01*
X91385432Y-88794642D01*
X91368384Y-88641947D01*
X91358664Y-88465254D01*
X91356271Y-88277702D01*
X91361206Y-88092428D01*
X91373469Y-87922572D01*
X91393059Y-87781273D01*
X91468290Y-87468100D01*
X91587058Y-87133511D01*
X91743710Y-86811926D01*
X91939256Y-86501554D01*
X92174708Y-86200605D01*
X92451078Y-85907286D01*
X92478803Y-85880585D01*
X92566537Y-85799784D01*
X92660411Y-85717776D01*
X92754210Y-85639541D01*
X92841720Y-85570059D01*
X92916727Y-85514309D01*
X92973016Y-85477270D01*
X93004373Y-85463922D01*
X93005975Y-85464570D01*
X92995564Y-85482287D01*
X92960371Y-85519312D01*
X92906571Y-85569006D01*
X92888460Y-85585360D01*
X92777721Y-85699589D01*
X92666667Y-85835059D01*
X92566975Y-85976615D01*
X92490326Y-86109106D01*
X92469647Y-86152237D01*
X92382468Y-86391552D01*
X92335525Y-86643599D01*
X92328805Y-86908052D01*
X92362297Y-87184584D01*
X92435990Y-87472870D01*
X92549872Y-87772584D01*
X92624132Y-87931430D01*
X92755191Y-88177785D01*
X92900276Y-88417039D01*
X93049281Y-88631804D01*
X93052718Y-88636387D01*
X93112066Y-88716454D01*
X93160561Y-88783545D01*
X93193286Y-88830748D01*
X93205323Y-88851151D01*
X93200632Y-88864375D01*
X93180704Y-88909303D01*
X93148732Y-88977495D01*
X93108636Y-89060464D01*
X92981124Y-89355102D01*
X92875867Y-89678677D01*
X92804246Y-90003864D01*
X92768790Y-90321273D01*
X92765483Y-90411353D01*
X92779242Y-90736463D01*
X92833479Y-91050275D01*
X92927751Y-91352051D01*
X93061610Y-91641054D01*
X93234611Y-91916548D01*
X93446309Y-92177796D01*
X93696258Y-92424060D01*
X93984013Y-92654604D01*
X94309127Y-92868690D01*
X94386213Y-92914813D01*
X94398502Y-92549376D01*
X94399949Y-92506101D01*
X94405418Y-92339047D01*
X94411306Y-92154937D01*
X94416993Y-91973264D01*
X94421861Y-91813523D01*
X94432931Y-91443106D01*
X94311319Y-91570361D01*
X94266804Y-91617020D01*
X94187018Y-91700863D01*
X94099024Y-91793515D01*
X94015081Y-91882073D01*
X94011412Y-91885944D01*
X93944889Y-91954446D01*
X93890546Y-92007340D01*
X93853898Y-92039462D01*
X93840456Y-92045648D01*
X93841381Y-92041792D01*
X93855893Y-92006784D01*
X93885854Y-91941738D01*
X93928464Y-91852541D01*
X93980923Y-91745078D01*
X94040432Y-91625235D01*
X94240408Y-91225704D01*
X94183307Y-91214795D01*
X94169763Y-91212442D01*
X94114528Y-91203681D01*
X94027590Y-91190396D01*
X93915760Y-91173615D01*
X93785848Y-91154362D01*
X93644665Y-91133664D01*
X93565165Y-91121913D01*
X93436043Y-91102105D01*
X93325423Y-91084217D01*
X93239159Y-91069244D01*
X93183108Y-91058176D01*
X93163123Y-91052008D01*
X93177630Y-91047241D01*
X93228839Y-91036929D01*
X93311664Y-91022428D01*
X93420529Y-91004671D01*
X93549859Y-90984590D01*
X93694080Y-90963120D01*
X93816293Y-90945101D01*
X93949383Y-90925002D01*
X94063326Y-90907270D01*
X94152432Y-90892811D01*
X94211010Y-90882529D01*
X94233371Y-90877330D01*
X94231965Y-90867569D01*
X94219014Y-90823289D01*
X94194654Y-90748475D01*
X94160762Y-90648719D01*
X94119219Y-90529611D01*
X94071902Y-90396744D01*
X94040575Y-90309004D01*
X93996887Y-90184346D01*
X93960265Y-90077022D01*
X93932575Y-89992641D01*
X93915686Y-89936806D01*
X93911464Y-89915126D01*
X93915110Y-89917376D01*
X93938648Y-89945652D01*
X93980641Y-90002031D01*
X94037580Y-90081644D01*
X94105958Y-90179622D01*
X94182269Y-90291095D01*
X94238703Y-90374135D01*
X94310370Y-90478596D01*
X94363279Y-90553484D01*
X94400351Y-90602237D01*
X94424508Y-90628295D01*
X94438673Y-90635096D01*
X94445767Y-90626080D01*
X94448713Y-90604684D01*
X94449737Y-90578361D01*
X94451768Y-90511601D01*
X94454694Y-90407591D01*
X94458447Y-90268962D01*
X94462961Y-90098347D01*
X94468167Y-89898377D01*
X94473998Y-89671682D01*
X94480385Y-89420896D01*
X94487262Y-89148650D01*
X94494560Y-88857574D01*
X94502213Y-88550301D01*
X94510152Y-88229462D01*
X94518309Y-87897689D01*
X94526096Y-87581772D01*
X94534063Y-87262158D01*
X94541771Y-86956642D01*
X94549150Y-86667787D01*
X94556131Y-86398161D01*
X94562646Y-86150329D01*
X94568625Y-85926857D01*
X94574002Y-85730311D01*
X94578705Y-85563256D01*
X94582668Y-85428259D01*
X94585821Y-85327885D01*
X94588095Y-85264701D01*
X94589423Y-85241273D01*
X94591837Y-85239933D01*
X94595160Y-85257767D01*
X94598739Y-85299044D01*
X94602619Y-85365218D01*
X94606844Y-85457741D01*
X94611457Y-85578065D01*
X94616502Y-85727643D01*
X94622025Y-85907927D01*
X94628068Y-86120370D01*
X94634676Y-86366424D01*
X94641893Y-86647541D01*
X94649763Y-86965173D01*
X94658330Y-87320774D01*
X94667638Y-87715795D01*
X94677731Y-88151689D01*
X94679864Y-88244074D01*
X94687217Y-88556176D01*
X94694510Y-88856345D01*
X94701663Y-89141817D01*
X94708600Y-89409830D01*
X94715242Y-89657622D01*
X94721510Y-89882429D01*
X94727327Y-90081488D01*
X94732614Y-90252038D01*
X94737292Y-90391315D01*
X94741284Y-90496557D01*
X94744512Y-90565001D01*
X94746897Y-90593884D01*
X94749890Y-90604808D01*
X94757340Y-90617244D01*
X94769785Y-90616109D01*
X94790310Y-90597799D01*
X94822002Y-90558706D01*
X94867945Y-90495225D01*
X94931227Y-90403750D01*
X95014932Y-90280675D01*
X95044480Y-90237272D01*
X95116541Y-90133100D01*
X95179097Y-90045034D01*
X95228653Y-89977854D01*
X95261714Y-89936338D01*
X95274788Y-89925266D01*
X95273444Y-89935145D01*
X95260755Y-89980204D01*
X95236619Y-90055813D01*
X95202964Y-90156159D01*
X95161718Y-90275429D01*
X95114807Y-90407808D01*
X95113788Y-90410650D01*
X95061317Y-90557558D01*
X95022017Y-90669640D01*
X94994639Y-90751781D01*
X94977933Y-90808866D01*
X94970647Y-90845778D01*
X94971531Y-90867403D01*
X94979335Y-90878623D01*
X94992808Y-90884324D01*
X95006958Y-90887423D01*
X95060980Y-90896951D01*
X95146685Y-90910836D01*
X95257565Y-90928057D01*
X95387116Y-90947593D01*
X95528831Y-90968423D01*
X95617257Y-90981458D01*
X95747016Y-91001380D01*
X95858028Y-91019396D01*
X95944495Y-91034520D01*
X96000625Y-91045766D01*
X96020623Y-91052146D01*
X96008033Y-91056690D01*
X95958912Y-91067016D01*
X95877950Y-91081554D01*
X95770779Y-91099346D01*
X95643031Y-91119430D01*
X95500336Y-91140848D01*
X95387872Y-91157557D01*
X95255128Y-91177851D01*
X95141185Y-91195918D01*
X95051818Y-91210815D01*
X94992805Y-91221601D01*
X94969922Y-91227334D01*
X94970105Y-91231189D01*
X94982777Y-91265089D01*
X95011049Y-91328960D01*
X95052311Y-91417181D01*
X95103956Y-91524132D01*
X95163373Y-91644189D01*
X95186756Y-91691082D01*
X95243609Y-91806702D01*
X95291791Y-91906986D01*
X95328678Y-91986332D01*
X95351645Y-92039138D01*
X95358067Y-92059801D01*
X95356830Y-92059706D01*
X95334822Y-92041746D01*
X95289414Y-91998180D01*
X95225065Y-91933476D01*
X95146237Y-91852103D01*
X95057386Y-91758528D01*
X94765589Y-91448371D01*
X94781142Y-92175988D01*
X94784240Y-92314670D01*
X94788182Y-92474995D01*
X94792083Y-92617493D01*
X94795789Y-92737264D01*
X94799146Y-92829407D01*
X94802001Y-92889025D01*
X94804200Y-92911217D01*
X94810400Y-92910264D01*
X94845466Y-92893814D01*
X94903792Y-92861781D01*
X94976956Y-92818677D01*
X94998180Y-92805691D01*
X95260620Y-92624470D01*
X95508501Y-92415793D01*
X95734880Y-92186635D01*
X95932815Y-91943975D01*
X96095363Y-91694788D01*
X96216706Y-91457461D01*
X96327433Y-91165602D01*
X96397516Y-90868224D01*
X96427861Y-90561258D01*
X96419375Y-90240636D01*
X96409987Y-90151939D01*
X97311790Y-90151939D01*
X97322373Y-90162523D01*
X97332956Y-90151939D01*
X97322373Y-90141356D01*
X97311790Y-90151939D01*
X96409987Y-90151939D01*
X96408845Y-90141153D01*
X96368686Y-89902066D01*
X96308930Y-89653978D01*
X96233334Y-89409662D01*
X96145653Y-89181888D01*
X96049643Y-88983428D01*
X95977278Y-88852084D01*
X96114970Y-88665928D01*
X96119707Y-88659514D01*
X96348966Y-88323188D01*
X96536378Y-87992560D01*
X96682022Y-87667461D01*
X96785973Y-87347718D01*
X96848310Y-87033162D01*
X96853047Y-86994856D01*
X96864170Y-86758415D01*
X96840714Y-86532707D01*
X96781144Y-86308812D01*
X96683926Y-86077811D01*
X96639583Y-85991598D01*
X96593226Y-85914459D01*
X96540182Y-85842648D01*
X96472143Y-85765001D01*
X96380806Y-85670352D01*
X96355863Y-85645029D01*
X96286930Y-85573669D01*
X96233294Y-85516053D01*
X96199864Y-85477549D01*
X96191550Y-85463523D01*
X96196282Y-85464473D01*
X96232248Y-85484625D01*
X96291914Y-85527263D01*
X96369362Y-85587488D01*
X96458672Y-85660396D01*
X96553925Y-85741085D01*
X96649204Y-85824655D01*
X96738589Y-85906202D01*
X96816161Y-85980825D01*
X96831122Y-85995833D01*
X97082141Y-86275002D01*
X97301653Y-86573141D01*
X97486955Y-86885718D01*
X97635340Y-87208198D01*
X97744105Y-87536050D01*
X97787388Y-87723397D01*
X97832966Y-88065660D01*
X97838131Y-88416378D01*
X97803112Y-88773670D01*
X97728140Y-89135657D01*
X97613443Y-89500457D01*
X97459253Y-89866189D01*
X97333421Y-90130773D01*
X97418321Y-90035523D01*
X97451680Y-89996708D01*
X97563496Y-89849239D01*
X97677955Y-89675122D01*
X97788925Y-89485267D01*
X97890273Y-89290585D01*
X97975863Y-89101987D01*
X98039564Y-88930383D01*
X98059246Y-88866236D01*
X98115526Y-88638339D01*
X98147305Y-88412645D01*
X98157718Y-88168948D01*
X98153280Y-88000197D01*
X98131631Y-87808045D01*
X98089260Y-87626086D01*
X98023149Y-87437931D01*
X97992067Y-87356109D01*
X97976796Y-87305044D01*
X97978254Y-87288908D01*
X97995111Y-87306296D01*
X98026039Y-87355801D01*
X98069709Y-87436014D01*
X98124792Y-87545530D01*
X98209035Y-87730185D01*
X98327079Y-88050575D01*
X98416586Y-88389835D01*
X98431849Y-88464392D01*
X98443807Y-88536797D01*
X98452465Y-88612479D01*
X98458350Y-88699250D01*
X98461985Y-88804918D01*
X98463896Y-88937295D01*
X98464608Y-89104189D01*
X98464636Y-89173792D01*
X98463779Y-89331782D01*
X98461241Y-89457434D01*
X98456609Y-89557990D01*
X98449470Y-89640695D01*
X98439413Y-89712791D01*
X98426024Y-89781523D01*
X98341145Y-90098488D01*
X98321621Y-90151939D01*
X98214501Y-90445213D01*
X98056672Y-90783170D01*
D15*
X41868080Y-51277920D03*
D16*
X41368080Y-47527920D03*
D15*
X46868080Y-53477920D03*
X51868080Y-51277920D03*
D17*
X46868080Y-47527920D03*
D16*
X52368080Y-47527920D03*
D18*
X46868080Y-41627920D03*
D19*
X50143080Y-53477920D03*
D18*
X51868080Y-43727920D03*
D19*
X38593080Y-51277920D03*
D18*
X41868080Y-43727920D03*
D15*
X64868080Y-41477920D03*
D16*
X70368080Y-35527920D03*
D17*
X64868080Y-35527920D03*
D15*
X69868080Y-39277920D03*
X59868080Y-39277920D03*
D16*
X59368080Y-35527920D03*
D19*
X68143080Y-41477920D03*
D18*
X64868080Y-29627920D03*
X69868080Y-31727920D03*
D19*
X56593080Y-39277920D03*
D18*
X59868080Y-31727920D03*
D15*
X87868080Y-32277920D03*
X82868080Y-34477920D03*
D16*
X77368080Y-28527920D03*
D17*
X82868080Y-28527920D03*
D15*
X77868080Y-32277920D03*
D16*
X88368080Y-28527920D03*
D19*
X86143080Y-34477920D03*
D18*
X82868080Y-22627920D03*
X77868080Y-24727920D03*
X87868080Y-24727920D03*
D19*
X74593080Y-32277920D03*
D15*
X95868080Y-37777920D03*
D17*
X100868080Y-34027920D03*
D16*
X95368080Y-34027920D03*
D15*
X100868080Y-39977920D03*
D16*
X106368080Y-34027920D03*
D15*
X105868080Y-37777920D03*
D18*
X100868080Y-28127920D03*
D19*
X104143080Y-39977920D03*
X92593080Y-37777920D03*
D18*
X105868080Y-30227920D03*
X95868080Y-30227920D03*
D16*
X124368080Y-36527920D03*
D15*
X123868080Y-40277920D03*
X113868080Y-40277920D03*
D17*
X118868080Y-36527920D03*
D16*
X113368080Y-36527920D03*
D15*
X118868080Y-42477920D03*
D18*
X118868080Y-30627920D03*
D19*
X122143080Y-42477920D03*
X110593080Y-40277920D03*
D18*
X113868080Y-32727920D03*
X123868080Y-32727920D03*
D16*
X41368080Y-64527920D03*
D17*
X46868080Y-64527920D03*
D16*
X52368080Y-64527920D03*
D15*
X46868080Y-70477920D03*
X51868080Y-68277920D03*
X41868080Y-68277920D03*
D19*
X50143080Y-70477920D03*
D18*
X46868080Y-58627920D03*
X41868080Y-60727920D03*
D19*
X38593080Y-68277920D03*
D18*
X51868080Y-60727920D03*
D16*
X59368080Y-52501920D03*
D15*
X64868080Y-58451920D03*
X59868080Y-56251920D03*
D16*
X70368080Y-52501920D03*
D15*
X69868080Y-56251920D03*
D17*
X64868080Y-52501920D03*
D19*
X68143080Y-58451920D03*
D18*
X64868080Y-46601920D03*
D19*
X56593080Y-56251920D03*
D18*
X59868080Y-48701920D03*
X69868080Y-48701920D03*
D16*
X77368080Y-45643920D03*
D15*
X82868080Y-51593920D03*
X77868080Y-49393920D03*
X87868080Y-49393920D03*
D17*
X82868080Y-45643920D03*
D16*
X88368080Y-45643920D03*
D19*
X86143080Y-51593920D03*
D18*
X82868080Y-39743920D03*
X87868080Y-41843920D03*
X77868080Y-41843920D03*
D19*
X74593080Y-49393920D03*
D16*
X106368080Y-50977920D03*
D15*
X105868080Y-54727920D03*
X95868080Y-54727920D03*
D16*
X95368080Y-50977920D03*
D15*
X100868080Y-56927920D03*
D17*
X100868080Y-50977920D03*
D19*
X104143080Y-56927920D03*
D18*
X100868080Y-45077920D03*
D19*
X92593080Y-54727920D03*
D18*
X105868080Y-47177920D03*
X95868080Y-47177920D03*
D16*
X113348080Y-53517920D03*
D15*
X118848080Y-59467920D03*
D17*
X118848080Y-53517920D03*
D15*
X123848080Y-57267920D03*
X113848080Y-57267920D03*
D16*
X124348080Y-53517920D03*
D18*
X118848080Y-47617920D03*
D19*
X122123080Y-59467920D03*
D18*
X113848080Y-49717920D03*
D19*
X110573080Y-57267920D03*
D18*
X123848080Y-49717920D03*
D17*
X46868080Y-81527920D03*
D15*
X41868080Y-85277920D03*
D16*
X52368080Y-81527920D03*
D15*
X51868080Y-85277920D03*
D16*
X41368080Y-81527920D03*
D15*
X46868080Y-87477920D03*
D19*
X50143080Y-87477920D03*
D18*
X46868080Y-75627920D03*
X51868080Y-77727920D03*
D19*
X38593080Y-85277920D03*
D18*
X41868080Y-77727920D03*
D17*
X64868080Y-69519920D03*
D15*
X69868080Y-73269920D03*
D16*
X59368080Y-69519920D03*
D15*
X59868080Y-73269920D03*
D16*
X70368080Y-69519920D03*
D15*
X64868080Y-75469920D03*
D19*
X68143080Y-75469920D03*
D18*
X64868080Y-63619920D03*
D19*
X56593080Y-73269920D03*
D18*
X59868080Y-65719920D03*
X69868080Y-65719920D03*
D16*
X88368080Y-62661920D03*
D15*
X87868080Y-66411920D03*
D16*
X77368080Y-62661920D03*
D15*
X77868080Y-66411920D03*
D17*
X82868080Y-62661920D03*
D15*
X82868080Y-68611920D03*
D19*
X86143080Y-68611920D03*
D18*
X82868080Y-56761920D03*
D19*
X74593080Y-66411920D03*
D18*
X87868080Y-58861920D03*
X77868080Y-58861920D03*
D15*
X100868080Y-73945920D03*
D16*
X95368080Y-67995920D03*
D15*
X95868080Y-71745920D03*
X105868080Y-71745920D03*
D16*
X106368080Y-67995920D03*
D17*
X100868080Y-67995920D03*
D19*
X104143080Y-73945920D03*
D18*
X100868080Y-62095920D03*
X105868080Y-64195920D03*
X95868080Y-64195920D03*
D19*
X92593080Y-71745920D03*
D15*
X118848080Y-76485920D03*
X123848080Y-74285920D03*
D16*
X124348080Y-70535920D03*
X113348080Y-70535920D03*
D15*
X113848080Y-74285920D03*
D17*
X118848080Y-70535920D03*
D19*
X122123080Y-76485920D03*
D18*
X118848080Y-64635920D03*
D19*
X110573080Y-74285920D03*
D18*
X113848080Y-66735920D03*
X123848080Y-66735920D03*
D15*
X135349207Y-95480325D03*
X132119080Y-91075069D03*
D17*
X129144080Y-96227920D03*
D15*
X126688953Y-90480325D03*
D16*
X124380940Y-93477920D03*
X133907220Y-98977920D03*
D20*
X129282847Y-89437569D03*
D18*
X126194080Y-101337470D03*
D20*
X138185440Y-97117825D03*
D18*
X122913953Y-97018817D03*
X131574207Y-102018817D03*
D16*
X105271488Y-87054415D03*
D15*
X104783879Y-90806047D03*
X114443138Y-93394237D03*
D17*
X110584080Y-88477920D03*
D16*
X115896672Y-89901425D03*
D15*
X109044107Y-94225179D03*
D18*
X112111112Y-82778958D03*
D21*
X112207514Y-95072811D03*
D18*
X116397222Y-86101497D03*
X106737963Y-83513307D03*
D21*
X101620472Y-89958414D03*
D22*
X91924080Y-62915920D03*
X91924080Y-24815920D03*
X72874080Y-43865920D03*
X110974080Y-43865920D03*
D23*
X136906000Y-79756000D03*
D24*
X139446000Y-79756000D03*
X141986000Y-79756000D03*
X144526000Y-79756000D03*
D25*
X32920000Y-58780000D03*
D26*
X32920000Y-53780000D03*
X32920000Y-56280000D03*
D27*
X25420000Y-61880000D03*
X25420000Y-50680000D03*
D26*
X18420000Y-53780000D03*
X18420000Y-58780000D03*
D15*
X26185000Y-77180000D03*
D17*
X26185000Y-83130000D03*
D16*
X20685000Y-83130000D03*
D15*
X31185000Y-79380000D03*
D16*
X31685000Y-83130000D03*
D15*
X21185000Y-79380000D03*
D19*
X22910000Y-77180000D03*
D18*
X26185000Y-89030000D03*
X21185000Y-86930000D03*
X31185000Y-86930000D03*
D19*
X34460000Y-79380000D03*
D24*
X131700480Y-51070000D03*
D28*
X146178480Y-73930000D03*
D24*
X149480480Y-61230000D03*
D29*
X134494480Y-63770000D03*
X134494480Y-68850000D03*
D24*
X131700480Y-48530000D03*
X149480480Y-73930000D03*
X149480480Y-53610000D03*
X131700480Y-76470000D03*
X131700480Y-28210000D03*
X131700480Y-38370000D03*
D28*
X146178480Y-40910000D03*
D24*
X149480480Y-38370000D03*
D29*
X134494480Y-61230000D03*
D24*
X149480480Y-66310000D03*
D29*
X134494480Y-66310000D03*
D24*
X149480480Y-63770000D03*
X131700480Y-35830000D03*
X131700480Y-66310000D03*
X149480480Y-56150000D03*
D28*
X146178480Y-56150000D03*
D24*
X131700480Y-56150000D03*
X131700480Y-43450000D03*
X149480480Y-40910000D03*
D28*
X146178480Y-38370000D03*
X146178480Y-51070000D03*
X146178480Y-30750000D03*
X146178480Y-43450000D03*
D24*
X149480480Y-43450000D03*
D29*
X134494480Y-38370000D03*
D24*
X149480480Y-28210000D03*
D29*
X134494480Y-43450000D03*
D24*
X149480480Y-48530000D03*
D28*
X146178480Y-63770000D03*
D29*
X134494480Y-30750000D03*
D28*
X146178480Y-28210000D03*
D29*
X134494480Y-56150000D03*
D28*
X146178480Y-68850000D03*
D24*
X149480480Y-68850000D03*
X131700480Y-40910000D03*
D29*
X134494480Y-51070000D03*
D28*
X146178480Y-71390000D03*
D24*
X149480480Y-35830000D03*
D28*
X146178480Y-66310000D03*
D24*
X131700480Y-73930000D03*
D29*
X134494480Y-35830000D03*
D28*
X146178480Y-48530000D03*
D24*
X131700480Y-53610000D03*
X131700480Y-68850000D03*
X131700480Y-63770000D03*
D28*
X146178480Y-53610000D03*
D24*
X149480480Y-51070000D03*
D29*
X134494480Y-40910000D03*
D28*
X146178480Y-61230000D03*
D24*
X149480480Y-30750000D03*
D29*
X134494480Y-73930000D03*
X134494480Y-71390000D03*
D24*
X149480480Y-76470000D03*
X131700480Y-30750000D03*
D29*
X134494480Y-48530000D03*
D24*
X131700480Y-61230000D03*
D29*
X134494480Y-53610000D03*
D28*
X146178480Y-35830000D03*
D29*
X134494480Y-28210000D03*
D30*
X145162480Y-28210000D03*
X145162480Y-30750000D03*
D23*
X131700480Y-33290000D03*
D30*
X145162480Y-35830000D03*
X145162480Y-38370000D03*
X145162480Y-40910000D03*
X145162480Y-43450000D03*
D23*
X131700480Y-45990000D03*
D30*
X145162480Y-48530000D03*
X145162480Y-51070000D03*
X145162480Y-53610000D03*
X145162480Y-56150000D03*
D23*
X131700480Y-58690000D03*
D30*
X145162480Y-61230000D03*
X145162480Y-63770000D03*
X145162480Y-66310000D03*
X145162480Y-68850000D03*
D23*
X131700480Y-71390000D03*
D30*
X145162480Y-71390000D03*
X145162480Y-73930000D03*
D31*
X135510480Y-73930000D03*
X135510480Y-71390000D03*
D23*
X149480480Y-71390000D03*
D31*
X135510480Y-68850000D03*
X135510480Y-66310000D03*
X135510480Y-63770000D03*
X135510480Y-61230000D03*
D23*
X149480480Y-58690000D03*
D31*
X135510480Y-56150000D03*
X135510480Y-53610000D03*
X135510480Y-51070000D03*
X135510480Y-48530000D03*
D23*
X149480480Y-45990000D03*
D31*
X135510480Y-43450000D03*
X135510480Y-40910000D03*
X135510480Y-38370000D03*
X135510480Y-35830000D03*
D23*
X149480480Y-33290000D03*
D31*
X135510480Y-30750000D03*
X135510480Y-28210000D03*
D15*
X26200000Y-71220000D03*
D16*
X31700000Y-65270000D03*
X20700000Y-65270000D03*
D15*
X31200000Y-69020000D03*
X21200000Y-69020000D03*
D17*
X26200000Y-65270000D03*
D18*
X26200000Y-59370000D03*
D19*
X29475000Y-71220000D03*
D18*
X21200000Y-61470000D03*
D19*
X17925000Y-69020000D03*
D18*
X31200000Y-61470000D03*
D32*
X135680000Y-85030000D03*
X144880000Y-85030000D03*
D33*
X139180000Y-87830000D03*
X139180000Y-82230000D03*
X142380000Y-82230000D03*
X142380000Y-87830000D03*
X145580000Y-82230000D03*
X145580000Y-87830000D03*
X135680000Y-87830000D03*
X135680000Y-82230000D03*
D15*
X31250000Y-43750000D03*
X21250000Y-43750000D03*
D16*
X31750000Y-47500000D03*
D15*
X26250000Y-41550000D03*
D16*
X20750000Y-47500000D03*
D17*
X26250000Y-47500000D03*
D18*
X26250000Y-53400000D03*
D19*
X22975000Y-41550000D03*
X34525000Y-43750000D03*
D18*
X31250000Y-51300000D03*
X21250000Y-51300000D03*
D34*
X45980000Y-36380000D03*
X111370000Y-26770000D03*
X140930000Y-92780000D03*
X61940000Y-87780000D03*
D35*
X86565645Y-77690714D03*
D26*
X81602914Y-77081367D03*
X84084280Y-77386041D03*
D36*
X77612001Y-84147668D03*
X88728518Y-85512605D03*
D26*
X79835809Y-91473286D03*
X84798540Y-92082633D03*
D37*
X144526000Y-76708000D03*
X143525240Y-76708000D03*
X138437620Y-77216000D03*
X139438380Y-77216000D03*
X147058380Y-76454000D03*
X146057620Y-76454000D03*
X141986000Y-77216000D03*
X140985240Y-77216000D03*
M02*
